<?xml version="1.0" encoding="UTF-8" standalone="no"?>
<!DOCTYPE svg PUBLIC "-//W3C//DTD SVG 1.1//EN"
 "http://www.w3.org/Graphics/SVG/1.1/DTD/svg11.dtd">
<!-- Generated by graphviz version 2.38.0 (20140413.2041)
 -->
<!-- Title: Ogre::EmbeddedZipArchiveFactory Pages: 1 -->
<svg width="240pt" height="207pt"
 viewBox="0.00 0.00 240.00 207.00" xmlns="http://www.w3.org/2000/svg" xmlns:xlink="http://www.w3.org/1999/xlink">
<g id="graph0" class="graph" transform="scale(1 1) rotate(0) translate(4 203)">
<title>Ogre::EmbeddedZipArchiveFactory</title>
<!-- Node0 -->
<g id="node1" class="node"><title>Node0</title>
<polygon fill="#bfbfbf" stroke="black" points="65,-0.5 65,-30.5 202,-30.5 202,-0.5 65,-0.5"/>
<text text-anchor="start" x="73" y="-18.5" font-family="Helvetica,sans-Serif" font-size="10.00">Ogre::EmbeddedZipArchive</text>
<text text-anchor="middle" x="133.5" y="-7.5" font-family="Helvetica,sans-Serif" font-size="10.00">Factory</text>
</g>
<!-- Node1 -->
<g id="node2" class="node"><title>Node1</title>
<g id="a_node2"><a xlink:href="class_ogre_1_1_zip_archive_factory.html" target="_top" xlink:title="Specialisation to allow reading of files from a zip format source archive. ">
<polygon fill="none" stroke="black" points="72,-67.5 72,-86.5 195,-86.5 195,-67.5 72,-67.5"/>
<text text-anchor="middle" x="133.5" y="-74.5" font-family="Helvetica,sans-Serif" font-size="10.00">Ogre::ZipArchiveFactory</text>
</a>
</g>
</g>
<!-- Node1&#45;&gt;Node0 -->
<g id="edge1" class="edge"><title>Node1&#45;&gt;Node0</title>
<path fill="none" stroke="midnightblue" d="M133.5,-57.2349C133.5,-48.5864 133.5,-38.4969 133.5,-30.523"/>
<polygon fill="midnightblue" stroke="midnightblue" points="130,-57.4751 133.5,-67.4751 137,-57.4751 130,-57.4751"/>
</g>
<!-- Node2 -->
<g id="node3" class="node"><title>Node2</title>
<g id="a_node3"><a xlink:href="class_ogre_1_1_archive_factory.html" target="_top" xlink:title="Abstract factory class, archive codec plugins can register concrete subclasses of this...">
<polygon fill="none" stroke="black" points="78.5,-123.5 78.5,-142.5 188.5,-142.5 188.5,-123.5 78.5,-123.5"/>
<text text-anchor="middle" x="133.5" y="-130.5" font-family="Helvetica,sans-Serif" font-size="10.00">Ogre::ArchiveFactory</text>
</a>
</g>
</g>
<!-- Node2&#45;&gt;Node1 -->
<g id="edge2" class="edge"><title>Node2&#45;&gt;Node1</title>
<path fill="none" stroke="midnightblue" d="M133.5,-112.805C133.5,-103.91 133.5,-93.7798 133.5,-86.7511"/>
<polygon fill="midnightblue" stroke="midnightblue" points="130,-113.083 133.5,-123.083 137,-113.083 130,-113.083"/>
</g>
<!-- Node3 -->
<g id="node4" class="node"><title>Node3</title>
<g id="a_node4"><a xlink:href="class_ogre_1_1_factory_obj.html" target="_top" xlink:title="Ogre::FactoryObj\&lt; Archive \&gt;">
<polygon fill="none" stroke="black" points="0,-179.5 0,-198.5 143,-198.5 143,-179.5 0,-179.5"/>
<text text-anchor="middle" x="71.5" y="-186.5" font-family="Helvetica,sans-Serif" font-size="10.00">Ogre::FactoryObj&lt; Archive &gt;</text>
</a>
</g>
</g>
<!-- Node3&#45;&gt;Node2 -->
<g id="edge3" class="edge"><title>Node3&#45;&gt;Node2</title>
<path fill="none" stroke="midnightblue" d="M89.2536,-172.537C100.308,-162.909 114.131,-150.869 123.357,-142.834"/>
<polygon fill="midnightblue" stroke="midnightblue" points="86.7035,-170.117 81.4614,-179.324 91.301,-175.395 86.7035,-170.117"/>
</g>
<!-- Node4 -->
<g id="node5" class="node"><title>Node4</title>
<g id="a_node5"><a xlink:href="class_ogre_1_1_allocated_object.html" target="_top" xlink:title="ArchiveAlloc">
<polygon fill="none" stroke="black" points="161,-179.5 161,-198.5 232,-198.5 232,-179.5 161,-179.5"/>
<text text-anchor="middle" x="196.5" y="-186.5" font-family="Helvetica,sans-Serif" font-size="10.00">ArchiveAlloc</text>
</a>
</g>
</g>
<!-- Node4&#45;&gt;Node2 -->
<g id="edge4" class="edge"><title>Node4&#45;&gt;Node2</title>
<path fill="none" stroke="midnightblue" d="M178.46,-172.537C167.227,-162.909 153.181,-150.869 143.806,-142.834"/>
<polygon fill="midnightblue" stroke="midnightblue" points="176.508,-175.473 186.378,-179.324 181.063,-170.159 176.508,-175.473"/>
</g>
</g>
</svg>
