<?xml version="1.0" encoding="UTF-8" standalone="no"?>
<!DOCTYPE svg PUBLIC "-//W3C//DTD SVG 1.1//EN"
 "http://www.w3.org/Graphics/SVG/1.1/DTD/svg11.dtd">
<!-- Generated by graphviz version 2.38.0 (20140413.2041)
 -->
<!-- Title: Ogre::ShaderHelper Pages: 1 -->
<svg width="276pt" height="196pt"
 viewBox="0.00 0.00 276.00 196.00" xmlns="http://www.w3.org/2000/svg" xmlns:xlink="http://www.w3.org/1999/xlink">
<g id="graph0" class="graph" transform="scale(1 1) rotate(0) translate(4 192)">
<title>Ogre::ShaderHelper</title>
<!-- Node0 -->
<g id="node1" class="node"><title>Node0</title>
<polygon fill="#bfbfbf" stroke="black" points="82.5,-112.5 82.5,-131.5 185.5,-131.5 185.5,-112.5 82.5,-112.5"/>
<text text-anchor="middle" x="134" y="-119.5" font-family="Helvetica,sans-Serif" font-size="10.00">Ogre::ShaderHelper</text>
</g>
<!-- Node2 -->
<g id="node3" class="node"><title>Node2</title>
<g id="a_node3"><a xlink:href="class_ogre_1_1_shader_helper_cg.html" target="_top" xlink:title="Utility class to help with generating shaders for Cg / HLSL. ">
<polygon fill="none" stroke="black" points="6,-56.5 6,-75.5 122,-75.5 122,-56.5 6,-56.5"/>
<text text-anchor="middle" x="64" y="-63.5" font-family="Helvetica,sans-Serif" font-size="10.00">Ogre::ShaderHelperCg</text>
</a>
</g>
</g>
<!-- Node0&#45;&gt;Node2 -->
<g id="edge2" class="edge"><title>Node0&#45;&gt;Node2</title>
<path fill="none" stroke="midnightblue" d="M114.686,-106.101C102.088,-96.3824 86.0719,-84.0269 75.4513,-75.8339"/>
<polygon fill="midnightblue" stroke="midnightblue" points="112.698,-108.987 122.753,-112.324 116.973,-103.445 112.698,-108.987"/>
</g>
<!-- Node4 -->
<g id="node5" class="node"><title>Node4</title>
<g id="a_node5"><a xlink:href="class_ogre_1_1_shader_helper_g_l_s_l.html" target="_top" xlink:title="Utility class to help with generating shaders for GLSL. ">
<polygon fill="none" stroke="black" points="140,-56.5 140,-75.5 268,-75.5 268,-56.5 140,-56.5"/>
<text text-anchor="middle" x="204" y="-63.5" font-family="Helvetica,sans-Serif" font-size="10.00">Ogre::ShaderHelperGLSL</text>
</a>
</g>
</g>
<!-- Node0&#45;&gt;Node4 -->
<g id="edge4" class="edge"><title>Node0&#45;&gt;Node4</title>
<path fill="none" stroke="midnightblue" d="M153.314,-106.101C165.912,-96.3824 181.928,-84.0269 192.549,-75.8339"/>
<polygon fill="midnightblue" stroke="midnightblue" points="151.027,-103.445 145.247,-112.324 155.302,-108.987 151.027,-103.445"/>
</g>
<!-- Node1 -->
<g id="node2" class="node"><title>Node1</title>
<g id="a_node2"><a xlink:href="class_ogre_1_1_allocated_object.html" target="_top" xlink:title="TerrainAlloc">
<polygon fill="none" stroke="black" points="100,-168.5 100,-187.5 168,-187.5 168,-168.5 100,-168.5"/>
<text text-anchor="middle" x="134" y="-175.5" font-family="Helvetica,sans-Serif" font-size="10.00">TerrainAlloc</text>
</a>
</g>
</g>
<!-- Node1&#45;&gt;Node0 -->
<g id="edge1" class="edge"><title>Node1&#45;&gt;Node0</title>
<path fill="none" stroke="midnightblue" d="M134,-157.805C134,-148.91 134,-138.78 134,-131.751"/>
<polygon fill="midnightblue" stroke="midnightblue" points="130.5,-158.083 134,-168.083 137.5,-158.083 130.5,-158.083"/>
</g>
<!-- Node3 -->
<g id="node4" class="node"><title>Node3</title>
<g id="a_node4"><a xlink:href="class_ogre_1_1_shader_helper_h_l_s_l.html" target="_top" xlink:title="Ogre::ShaderHelperHLSL">
<polygon fill="none" stroke="black" points="0,-0.5 0,-19.5 128,-19.5 128,-0.5 0,-0.5"/>
<text text-anchor="middle" x="64" y="-7.5" font-family="Helvetica,sans-Serif" font-size="10.00">Ogre::ShaderHelperHLSL</text>
</a>
</g>
</g>
<!-- Node2&#45;&gt;Node3 -->
<g id="edge3" class="edge"><title>Node2&#45;&gt;Node3</title>
<path fill="none" stroke="midnightblue" d="M64,-45.8045C64,-36.9102 64,-26.7798 64,-19.7511"/>
<polygon fill="midnightblue" stroke="midnightblue" points="60.5001,-46.083 64,-56.083 67.5001,-46.083 60.5001,-46.083"/>
</g>
</g>
</svg>
