<?xml version="1.0" encoding="UTF-8" standalone="no"?>
<!DOCTYPE svg PUBLIC "-//W3C//DTD SVG 1.1//EN"
 "http://www.w3.org/Graphics/SVG/1.1/DTD/svg11.dtd">
<!-- Generated by graphviz version 2.38.0 (20140413.2041)
 -->
<!-- Title: Ogre::Plugin Pages: 1 -->
<svg width="369pt" height="484pt"
 viewBox="0.00 0.00 369.00 484.00" xmlns="http://www.w3.org/2000/svg" xmlns:xlink="http://www.w3.org/1999/xlink">
<g id="graph0" class="graph" transform="scale(1 1) rotate(0) translate(4 480)">
<title>Ogre::Plugin</title>
<!-- Node0 -->
<g id="node1" class="node"><title>Node0</title>
<polygon fill="#bfbfbf" stroke="black" points="101,-228.5 101,-247.5 172,-247.5 172,-228.5 101,-228.5"/>
<text text-anchor="middle" x="136.5" y="-235.5" font-family="Helvetica,sans-Serif" font-size="10.00">Ogre::Plugin</text>
</g>
<!-- Node2 -->
<g id="node3" class="node"><title>Node2</title>
<g id="a_node3"><a xlink:href="class_ogre_1_1_bsp_scene_manager_plugin.html" target="_top" xlink:title="Plugin instance for BSPSceneManager. ">
<polygon fill="none" stroke="black" points="208,-456.5 208,-475.5 361,-475.5 361,-456.5 208,-456.5"/>
<text text-anchor="middle" x="284.5" y="-463.5" font-family="Helvetica,sans-Serif" font-size="10.00">Ogre::BspSceneManagerPlugin</text>
</a>
</g>
</g>
<!-- Node0&#45;&gt;Node2 -->
<g id="edge2" class="edge"><title>Node0&#45;&gt;Node2</title>
<path fill="none" stroke="midnightblue" d="M138.163,-257.752C140.662,-299.207 152.474,-395.686 208,-447 212.169,-450.853 217.002,-453.953 222.17,-456.444"/>
<polygon fill="midnightblue" stroke="midnightblue" points="141.651,-257.422 137.677,-247.601 134.659,-257.757 141.651,-257.422"/>
</g>
<!-- Node3 -->
<g id="node4" class="node"><title>Node3</title>
<g id="a_node4"><a xlink:href="class_ogre_1_1_cg_plugin.html" target="_top" xlink:title="Plugin instance for Cg Program Manager. ">
<polygon fill="none" stroke="black" points="243,-418.5 243,-437.5 326,-437.5 326,-418.5 243,-418.5"/>
<text text-anchor="middle" x="284.5" y="-425.5" font-family="Helvetica,sans-Serif" font-size="10.00">Ogre::CgPlugin</text>
</a>
</g>
</g>
<!-- Node0&#45;&gt;Node3 -->
<g id="edge3" class="edge"><title>Node0&#45;&gt;Node3</title>
<path fill="none" stroke="midnightblue" d="M139.907,-258.055C145.304,-293.914 161.76,-369.002 208,-409 217.711,-417.4 230.612,-422.183 242.998,-424.875"/>
<polygon fill="midnightblue" stroke="midnightblue" points="143.339,-257.32 138.519,-247.885 136.403,-258.266 143.339,-257.32"/>
</g>
<!-- Node4 -->
<g id="node5" class="node"><title>Node4</title>
<g id="a_node5"><a xlink:href="class_ogre_1_1_d3_d11_plugin.html" target="_top" xlink:title="Plugin instance for D3D11 Manager. ">
<polygon fill="none" stroke="black" points="234,-380.5 234,-399.5 335,-399.5 335,-380.5 234,-380.5"/>
<text text-anchor="middle" x="284.5" y="-387.5" font-family="Helvetica,sans-Serif" font-size="10.00">Ogre::D3D11Plugin</text>
</a>
</g>
</g>
<!-- Node0&#45;&gt;Node4 -->
<g id="edge4" class="edge"><title>Node0&#45;&gt;Node4</title>
<path fill="none" stroke="midnightblue" d="M142.415,-257.665C150.777,-286.945 170.616,-341.688 208,-371 215.446,-376.838 224.464,-380.904 233.639,-383.73"/>
<polygon fill="midnightblue" stroke="midnightblue" points="145.738,-256.544 139.759,-247.797 138.978,-258.363 145.738,-256.544"/>
</g>
<!-- Node5 -->
<g id="node6" class="node"><title>Node5</title>
<g id="a_node6"><a xlink:href="class_ogre_1_1_d3_d9_plugin.html" target="_top" xlink:title="Plugin instance for D3D9 Manager. ">
<polygon fill="none" stroke="black" points="236.5,-342.5 236.5,-361.5 332.5,-361.5 332.5,-342.5 236.5,-342.5"/>
<text text-anchor="middle" x="284.5" y="-349.5" font-family="Helvetica,sans-Serif" font-size="10.00">Ogre::D3D9Plugin</text>
</a>
</g>
</g>
<!-- Node0&#45;&gt;Node5 -->
<g id="edge5" class="edge"><title>Node0&#45;&gt;Node5</title>
<path fill="none" stroke="midnightblue" d="M146.355,-256.695C157.613,-278.399 179.113,-313.681 208,-333 216.427,-338.635 226.396,-342.6 236.281,-345.388"/>
<polygon fill="midnightblue" stroke="midnightblue" points="149.378,-254.914 141.788,-247.522 143.112,-258.033 149.378,-254.914"/>
</g>
<!-- Node6 -->
<g id="node7" class="node"><title>Node6</title>
<g id="a_node7"><a xlink:href="class_ogre_1_1_free_image_plugin.html" target="_top" xlink:title="Ogre::FreeImagePlugin">
<polygon fill="none" stroke="black" points="226,-304.5 226,-323.5 343,-323.5 343,-304.5 226,-304.5"/>
<text text-anchor="middle" x="284.5" y="-311.5" font-family="Helvetica,sans-Serif" font-size="10.00">Ogre::FreeImagePlugin</text>
</a>
</g>
</g>
<!-- Node0&#45;&gt;Node6 -->
<g id="edge6" class="edge"><title>Node0&#45;&gt;Node6</title>
<path fill="none" stroke="midnightblue" d="M154.045,-254.906C167.471,-267.695 187.477,-284.749 208,-295 215.739,-298.865 224.327,-301.985 232.856,-304.491"/>
<polygon fill="midnightblue" stroke="midnightblue" points="156.181,-252.098 146.591,-247.594 151.279,-257.095 156.181,-252.098"/>
</g>
<!-- Node7 -->
<g id="node8" class="node"><title>Node7</title>
<g id="a_node8"><a xlink:href="class_ogre_1_1_g_l3_plus_plugin.html" target="_top" xlink:title="Plugin instance for GL3Plus Manager. ">
<polygon fill="none" stroke="black" points="230.5,-266.5 230.5,-285.5 338.5,-285.5 338.5,-266.5 230.5,-266.5"/>
<text text-anchor="middle" x="284.5" y="-273.5" font-family="Helvetica,sans-Serif" font-size="10.00">Ogre::GL3PlusPlugin</text>
</a>
</g>
</g>
<!-- Node0&#45;&gt;Node7 -->
<g id="edge7" class="edge"><title>Node0&#45;&gt;Node7</title>
<path fill="none" stroke="midnightblue" d="M182.118,-250.146C190.701,-252.448 199.624,-254.818 208,-257 220.033,-260.135 233.168,-263.471 245.059,-266.458"/>
<polygon fill="midnightblue" stroke="midnightblue" points="182.818,-246.71 172.252,-247.49 180.999,-253.469 182.818,-246.71"/>
</g>
<!-- Node8 -->
<g id="node9" class="node"><title>Node8</title>
<g id="a_node9"><a xlink:href="class_ogre_1_1_g_l_e_s2_plugin.html" target="_top" xlink:title="Plugin instance for GL ES 2 Manager. ">
<polygon fill="none" stroke="black" points="233.5,-228.5 233.5,-247.5 335.5,-247.5 335.5,-228.5 233.5,-228.5"/>
<text text-anchor="middle" x="284.5" y="-235.5" font-family="Helvetica,sans-Serif" font-size="10.00">Ogre::GLES2Plugin</text>
</a>
</g>
</g>
<!-- Node0&#45;&gt;Node8 -->
<g id="edge8" class="edge"><title>Node0&#45;&gt;Node8</title>
<path fill="none" stroke="midnightblue" d="M182.359,-238C198.508,-238 216.826,-238 233.394,-238"/>
<polygon fill="midnightblue" stroke="midnightblue" points="182.1,-234.5 172.1,-238 182.1,-241.5 182.1,-234.5"/>
</g>
<!-- Node9 -->
<g id="node10" class="node"><title>Node9</title>
<g id="a_node10"><a xlink:href="class_ogre_1_1_g_l_plugin.html" target="_top" xlink:title="Plugin instance for GL Manager. ">
<polygon fill="none" stroke="black" points="243,-190.5 243,-209.5 326,-209.5 326,-190.5 243,-190.5"/>
<text text-anchor="middle" x="284.5" y="-197.5" font-family="Helvetica,sans-Serif" font-size="10.00">Ogre::GLPlugin</text>
</a>
</g>
</g>
<!-- Node0&#45;&gt;Node9 -->
<g id="edge9" class="edge"><title>Node0&#45;&gt;Node9</title>
<path fill="none" stroke="midnightblue" d="M182.118,-225.854C190.701,-223.552 199.624,-221.182 208,-219 220.033,-215.865 233.168,-212.529 245.059,-209.542"/>
<polygon fill="midnightblue" stroke="midnightblue" points="180.999,-222.531 172.252,-228.51 182.818,-229.29 180.999,-222.531"/>
</g>
<!-- Node10 -->
<g id="node11" class="node"><title>Node10</title>
<g id="a_node11"><a xlink:href="class_ogre_1_1_octree_plugin.html" target="_top" xlink:title="Plugin instance for Octree Manager. ">
<polygon fill="none" stroke="black" points="234.5,-152.5 234.5,-171.5 334.5,-171.5 334.5,-152.5 234.5,-152.5"/>
<text text-anchor="middle" x="284.5" y="-159.5" font-family="Helvetica,sans-Serif" font-size="10.00">Ogre::OctreePlugin</text>
</a>
</g>
</g>
<!-- Node0&#45;&gt;Node10 -->
<g id="edge10" class="edge"><title>Node0&#45;&gt;Node10</title>
<path fill="none" stroke="midnightblue" d="M154.045,-221.094C167.471,-208.305 187.477,-191.251 208,-181 216.223,-176.893 225.404,-173.627 234.454,-171.046"/>
<polygon fill="midnightblue" stroke="midnightblue" points="151.279,-218.905 146.591,-228.406 156.181,-223.902 151.279,-218.905"/>
</g>
<!-- Node11 -->
<g id="node12" class="node"><title>Node11</title>
<g id="a_node12"><a xlink:href="class_ogre_1_1_octree_zone_plugin.html" target="_top" xlink:title="Plugin instance for OctreeZone. ">
<polygon fill="none" stroke="black" points="223.5,-114.5 223.5,-133.5 345.5,-133.5 345.5,-114.5 223.5,-114.5"/>
<text text-anchor="middle" x="284.5" y="-121.5" font-family="Helvetica,sans-Serif" font-size="10.00">Ogre::OctreeZonePlugin</text>
</a>
</g>
</g>
<!-- Node0&#45;&gt;Node11 -->
<g id="edge11" class="edge"><title>Node0&#45;&gt;Node11</title>
<path fill="none" stroke="midnightblue" d="M146.355,-219.305C157.613,-197.601 179.113,-162.319 208,-143 213.842,-139.093 220.426,-135.989 227.21,-133.523"/>
<polygon fill="midnightblue" stroke="midnightblue" points="143.112,-217.967 141.788,-228.478 149.378,-221.086 143.112,-217.967"/>
</g>
<!-- Node12 -->
<g id="node13" class="node"><title>Node12</title>
<g id="a_node13"><a xlink:href="class_ogre_1_1_particle_f_x_plugin.html" target="_top" xlink:title="Plugin instance for ParticleFX Manager. ">
<polygon fill="none" stroke="black" points="226.5,-76.5 226.5,-95.5 342.5,-95.5 342.5,-76.5 226.5,-76.5"/>
<text text-anchor="middle" x="284.5" y="-83.5" font-family="Helvetica,sans-Serif" font-size="10.00">Ogre::ParticleFXPlugin</text>
</a>
</g>
</g>
<!-- Node0&#45;&gt;Node12 -->
<g id="edge12" class="edge"><title>Node0&#45;&gt;Node12</title>
<path fill="none" stroke="midnightblue" d="M142.415,-218.335C150.777,-189.055 170.616,-134.312 208,-105 213.425,-100.747 219.684,-97.4339 226.231,-94.8558"/>
<polygon fill="midnightblue" stroke="midnightblue" points="138.978,-217.637 139.759,-228.203 145.738,-219.456 138.978,-217.637"/>
</g>
<!-- Node13 -->
<g id="node14" class="node"><title>Node13</title>
<g id="a_node14"><a xlink:href="class_ogre_1_1_p_c_z_plugin.html" target="_top" xlink:title="Plugin instance for PCZ Manager. ">
<polygon fill="none" stroke="black" points="239,-38.5 239,-57.5 330,-57.5 330,-38.5 239,-38.5"/>
<text text-anchor="middle" x="284.5" y="-45.5" font-family="Helvetica,sans-Serif" font-size="10.00">Ogre::PCZPlugin</text>
</a>
</g>
</g>
<!-- Node0&#45;&gt;Node13 -->
<g id="edge13" class="edge"><title>Node0&#45;&gt;Node13</title>
<path fill="none" stroke="midnightblue" d="M139.907,-217.945C145.304,-182.086 161.76,-106.998 208,-67 216.587,-59.5722 227.667,-54.9733 238.681,-52.1465"/>
<polygon fill="midnightblue" stroke="midnightblue" points="136.403,-217.734 138.519,-228.115 143.339,-218.68 136.403,-217.734"/>
</g>
<!-- Node14 -->
<g id="node15" class="node"><title>Node14</title>
<g id="a_node15"><a xlink:href="class_ogre_1_1_s_t_b_i_plugin.html" target="_top" xlink:title="Ogre::STBIPlugin">
<polygon fill="none" stroke="black" points="238,-0.5 238,-19.5 331,-19.5 331,-0.5 238,-0.5"/>
<text text-anchor="middle" x="284.5" y="-7.5" font-family="Helvetica,sans-Serif" font-size="10.00">Ogre::STBIPlugin</text>
</a>
</g>
</g>
<!-- Node0&#45;&gt;Node14 -->
<g id="edge14" class="edge"><title>Node0&#45;&gt;Node14</title>
<path fill="none" stroke="midnightblue" d="M138.163,-218.248C140.662,-176.793 152.474,-80.314 208,-29 216.239,-21.3859 227.072,-16.7118 237.951,-13.8717"/>
<polygon fill="midnightblue" stroke="midnightblue" points="134.659,-218.243 137.677,-228.399 141.651,-218.578 134.659,-218.243"/>
</g>
<!-- Node1 -->
<g id="node2" class="node"><title>Node1</title>
<g id="a_node2"><a xlink:href="class_ogre_1_1_allocated_object.html" target="_top" xlink:title="PluginAlloc">
<polygon fill="none" stroke="black" points="0,-228.5 0,-247.5 65,-247.5 65,-228.5 0,-228.5"/>
<text text-anchor="middle" x="32.5" y="-235.5" font-family="Helvetica,sans-Serif" font-size="10.00">PluginAlloc</text>
</a>
</g>
</g>
<!-- Node1&#45;&gt;Node0 -->
<g id="edge1" class="edge"><title>Node1&#45;&gt;Node0</title>
<path fill="none" stroke="midnightblue" d="M75.3605,-238C83.8761,-238 92.7431,-238 100.97,-238"/>
<polygon fill="midnightblue" stroke="midnightblue" points="75.2143,-234.5 65.2143,-238 75.2143,-241.5 75.2143,-234.5"/>
</g>
</g>
</svg>
