<?xml version="1.0" encoding="UTF-8" standalone="no"?>
<!DOCTYPE svg PUBLIC "-//W3C//DTD SVG 1.1//EN"
 "http://www.w3.org/Graphics/SVG/1.1/DTD/svg11.dtd">
<!-- Generated by graphviz version 2.38.0 (20140413.2041)
 -->
<!-- Title: Ogre::ScriptTranslator Pages: 1 -->
<svg width="464pt" height="633pt"
 viewBox="0.00 0.00 464.00 633.00" xmlns="http://www.w3.org/2000/svg" xmlns:xlink="http://www.w3.org/1999/xlink">
<g id="graph0" class="graph" transform="scale(1 1) rotate(0) translate(4 629)">
<title>Ogre::ScriptTranslator</title>
<!-- Node0 -->
<g id="node1" class="node"><title>Node0</title>
<polygon fill="#bfbfbf" stroke="black" points="143,-297.5 143,-316.5 256,-316.5 256,-297.5 143,-297.5"/>
<text text-anchor="middle" x="199.5" y="-304.5" font-family="Helvetica,sans-Serif" font-size="10.00">Ogre::ScriptTranslator</text>
</g>
<!-- Node2 -->
<g id="node3" class="node"><title>Node2</title>
<g id="a_node3"><a xlink:href="class_ogre_1_1_composition_pass_translator.html" target="_top" xlink:title="Ogre::CompositionPassTranslator">
<polygon fill="none" stroke="black" points="292,-605.5 292,-624.5 456,-624.5 456,-605.5 292,-605.5"/>
<text text-anchor="middle" x="374" y="-612.5" font-family="Helvetica,sans-Serif" font-size="10.00">Ogre::CompositionPassTranslator</text>
</a>
</g>
</g>
<!-- Node0&#45;&gt;Node2 -->
<g id="edge2" class="edge"><title>Node0&#45;&gt;Node2</title>
<path fill="none" stroke="midnightblue" d="M200.5,-327.035C201.646,-379.544 212.324,-522.176 292,-596 296.132,-599.829 300.885,-602.932 305.974,-605.441"/>
<polygon fill="midnightblue" stroke="midnightblue" points="203.997,-326.695 200.378,-316.737 196.997,-326.778 203.997,-326.695"/>
</g>
<!-- Node3 -->
<g id="node4" class="node"><title>Node3</title>
<g id="a_node4"><a xlink:href="class_ogre_1_1_composition_target_pass_translator.html" target="_top" xlink:title="Ogre::CompositionTargetPass\lTranslator">
<polygon fill="none" stroke="black" points="299.5,-556 299.5,-586 448.5,-586 448.5,-556 299.5,-556"/>
<text text-anchor="start" x="307.5" y="-574" font-family="Helvetica,sans-Serif" font-size="10.00">Ogre::CompositionTargetPass</text>
<text text-anchor="middle" x="374" y="-563" font-family="Helvetica,sans-Serif" font-size="10.00">Translator</text>
</a>
</g>
</g>
<!-- Node0&#45;&gt;Node3 -->
<g id="edge3" class="edge"><title>Node0&#45;&gt;Node3</title>
<path fill="none" stroke="midnightblue" d="M202.254,-327.059C207.349,-372.906 226.264,-486.091 292,-547 295.658,-550.389 299.773,-553.302 304.159,-555.804"/>
<polygon fill="midnightblue" stroke="midnightblue" points="205.718,-326.527 201.236,-316.927 198.753,-327.227 205.718,-326.527"/>
</g>
<!-- Node4 -->
<g id="node5" class="node"><title>Node4</title>
<g id="a_node5"><a xlink:href="class_ogre_1_1_composition_technique_translator.html" target="_top" xlink:title="Ogre::CompositionTechnique\lTranslator">
<polygon fill="none" stroke="black" points="302.5,-507 302.5,-537 445.5,-537 445.5,-507 302.5,-507"/>
<text text-anchor="start" x="310.5" y="-525" font-family="Helvetica,sans-Serif" font-size="10.00">Ogre::CompositionTechnique</text>
<text text-anchor="middle" x="374" y="-514" font-family="Helvetica,sans-Serif" font-size="10.00">Translator</text>
</a>
</g>
</g>
<!-- Node0&#45;&gt;Node4 -->
<g id="edge4" class="edge"><title>Node0&#45;&gt;Node4</title>
<path fill="none" stroke="midnightblue" d="M204.423,-326.423C213.181,-364.763 237.953,-450.481 292,-497 296.462,-500.84 301.507,-504.091 306.844,-506.842"/>
<polygon fill="midnightblue" stroke="midnightblue" points="207.82,-325.571 202.285,-316.537 200.978,-327.051 207.82,-325.571"/>
</g>
<!-- Node5 -->
<g id="node6" class="node"><title>Node5</title>
<g id="a_node6"><a xlink:href="class_ogre_1_1_compositor_translator.html" target="_top" xlink:title="Ogre::CompositorTranslator">
<polygon fill="none" stroke="black" points="305.5,-468.5 305.5,-487.5 442.5,-487.5 442.5,-468.5 305.5,-468.5"/>
<text text-anchor="middle" x="374" y="-475.5" font-family="Helvetica,sans-Serif" font-size="10.00">Ogre::CompositorTranslator</text>
</a>
</g>
</g>
<!-- Node0&#45;&gt;Node5 -->
<g id="edge5" class="edge"><title>Node0&#45;&gt;Node5</title>
<path fill="none" stroke="midnightblue" d="M206.572,-326.377C217.856,-359.069 245.255,-424.942 292,-459 297.253,-462.828 303.163,-465.897 309.335,-468.356"/>
<polygon fill="midnightblue" stroke="midnightblue" points="209.821,-325.052 203.359,-316.656 203.174,-327.249 209.821,-325.052"/>
</g>
<!-- Node6 -->
<g id="node7" class="node"><title>Node6</title>
<g id="a_node7"><a xlink:href="struct_ogre_1_1_font_translator.html" target="_top" xlink:title="[font_translator] ">
<polygon fill="none" stroke="black" points="320.5,-430.5 320.5,-449.5 427.5,-449.5 427.5,-430.5 320.5,-430.5"/>
<text text-anchor="middle" x="374" y="-437.5" font-family="Helvetica,sans-Serif" font-size="10.00">Ogre::FontTranslator</text>
</a>
</g>
</g>
<!-- Node0&#45;&gt;Node6 -->
<g id="edge6" class="edge"><title>Node0&#45;&gt;Node6</title>
<path fill="none" stroke="midnightblue" d="M210.298,-325.832C224.659,-351.491 253.904,-396.987 292,-421 300.553,-426.392 310.485,-430.255 320.403,-433.023"/>
<polygon fill="midnightblue" stroke="midnightblue" points="213.222,-323.882 205.38,-316.758 207.068,-327.218 213.222,-323.882"/>
</g>
<!-- Node7 -->
<g id="node8" class="node"><title>Node7</title>
<g id="a_node8"><a xlink:href="class_ogre_1_1_gpu_program_translator.html" target="_top" xlink:title="Ogre::GpuProgramTranslator">
<polygon fill="none" stroke="black" points="303,-392.5 303,-411.5 445,-411.5 445,-392.5 303,-392.5"/>
<text text-anchor="middle" x="374" y="-399.5" font-family="Helvetica,sans-Serif" font-size="10.00">Ogre::GpuProgramTranslator</text>
</a>
</g>
</g>
<!-- Node0&#45;&gt;Node7 -->
<g id="edge7" class="edge"><title>Node0&#45;&gt;Node7</title>
<path fill="none" stroke="midnightblue" d="M216.012,-323.855C232.999,-341.283 261.859,-368.001 292,-383 299.759,-386.861 308.33,-389.956 316.907,-392.432"/>
<polygon fill="midnightblue" stroke="midnightblue" points="218.512,-321.405 209.081,-316.577 213.443,-326.232 218.512,-321.405"/>
</g>
<!-- Node8 -->
<g id="node9" class="node"><title>Node8</title>
<g id="a_node9"><a xlink:href="class_ogre_1_1_material_translator.html" target="_top" xlink:title="Ogre::MaterialTranslator">
<polygon fill="none" stroke="black" points="313,-354.5 313,-373.5 435,-373.5 435,-354.5 313,-354.5"/>
<text text-anchor="middle" x="374" y="-361.5" font-family="Helvetica,sans-Serif" font-size="10.00">Ogre::MaterialTranslator</text>
</a>
</g>
</g>
<!-- Node0&#45;&gt;Node8 -->
<g id="edge8" class="edge"><title>Node0&#45;&gt;Node8</title>
<path fill="none" stroke="midnightblue" d="M230.084,-320.731C247.78,-328.579 270.867,-338.184 292,-345 302.997,-348.547 315.032,-351.733 326.381,-354.437"/>
<polygon fill="midnightblue" stroke="midnightblue" points="231.409,-317.49 220.853,-316.581 228.539,-323.874 231.409,-317.49"/>
</g>
<!-- Node9 -->
<g id="node10" class="node"><title>Node9</title>
<g id="a_node10"><a xlink:href="class_ogre_1_1_particle_affector_translator.html" target="_top" xlink:title="Ogre::ParticleAffectorTranslator">
<polygon fill="none" stroke="black" points="296.5,-316.5 296.5,-335.5 451.5,-335.5 451.5,-316.5 296.5,-316.5"/>
<text text-anchor="middle" x="374" y="-323.5" font-family="Helvetica,sans-Serif" font-size="10.00">Ogre::ParticleAffectorTranslator</text>
</a>
</g>
</g>
<!-- Node0&#45;&gt;Node9 -->
<g id="edge9" class="edge"><title>Node0&#45;&gt;Node9</title>
<path fill="none" stroke="midnightblue" d="M266.117,-314.227C275.95,-315.31 286.164,-316.435 296.205,-317.541"/>
<polygon fill="midnightblue" stroke="midnightblue" points="266.353,-310.732 256.03,-313.116 265.586,-317.69 266.353,-310.732"/>
</g>
<!-- Node10 -->
<g id="node11" class="node"><title>Node10</title>
<g id="a_node11"><a xlink:href="class_ogre_1_1_particle_emitter_translator.html" target="_top" xlink:title="Ogre::ParticleEmitterTranslator">
<polygon fill="none" stroke="black" points="298,-278.5 298,-297.5 450,-297.5 450,-278.5 298,-278.5"/>
<text text-anchor="middle" x="374" y="-285.5" font-family="Helvetica,sans-Serif" font-size="10.00">Ogre::ParticleEmitterTranslator</text>
</a>
</g>
</g>
<!-- Node0&#45;&gt;Node10 -->
<g id="edge10" class="edge"><title>Node0&#45;&gt;Node10</title>
<path fill="none" stroke="midnightblue" d="M266.188,-299.765C276.51,-298.628 287.248,-297.445 297.764,-296.287"/>
<polygon fill="midnightblue" stroke="midnightblue" points="265.586,-296.31 256.03,-300.884 266.353,-303.268 265.586,-296.31"/>
</g>
<!-- Node11 -->
<g id="node12" class="node"><title>Node11</title>
<g id="a_node12"><a xlink:href="class_ogre_1_1_particle_system_translator.html" target="_top" xlink:title="Ogre::ParticleSystemTranslator">
<polygon fill="none" stroke="black" points="297,-240.5 297,-259.5 451,-259.5 451,-240.5 297,-240.5"/>
<text text-anchor="middle" x="374" y="-247.5" font-family="Helvetica,sans-Serif" font-size="10.00">Ogre::ParticleSystemTranslator</text>
</a>
</g>
</g>
<!-- Node0&#45;&gt;Node11 -->
<g id="edge11" class="edge"><title>Node0&#45;&gt;Node11</title>
<path fill="none" stroke="midnightblue" d="M230.084,-293.269C247.78,-285.421 270.867,-275.816 292,-269 302.997,-265.453 315.032,-262.267 326.381,-259.563"/>
<polygon fill="midnightblue" stroke="midnightblue" points="228.539,-290.126 220.853,-297.419 231.409,-296.51 228.539,-290.126"/>
</g>
<!-- Node12 -->
<g id="node13" class="node"><title>Node12</title>
<g id="a_node13"><a xlink:href="class_ogre_1_1_pass_translator.html" target="_top" xlink:title="Ogre::PassTranslator">
<polygon fill="none" stroke="black" points="319,-202.5 319,-221.5 429,-221.5 429,-202.5 319,-202.5"/>
<text text-anchor="middle" x="374" y="-209.5" font-family="Helvetica,sans-Serif" font-size="10.00">Ogre::PassTranslator</text>
</a>
</g>
</g>
<!-- Node0&#45;&gt;Node12 -->
<g id="edge12" class="edge"><title>Node0&#45;&gt;Node12</title>
<path fill="none" stroke="midnightblue" d="M216.012,-290.145C232.999,-272.717 261.859,-245.999 292,-231 300.276,-226.881 309.477,-223.635 318.622,-221.081"/>
<polygon fill="midnightblue" stroke="midnightblue" points="213.443,-287.768 209.081,-297.423 218.512,-292.595 213.443,-287.768"/>
</g>
<!-- Node13 -->
<g id="node14" class="node"><title>Node13</title>
<g id="a_node14"><a xlink:href="class_ogre_1_1_r_t_shader_1_1_s_g_script_translator.html" target="_top" xlink:title="This class responsible for translating core features of the RT Shader System for Ogre material script...">
<polygon fill="none" stroke="black" points="307,-153 307,-183 441,-183 441,-153 307,-153"/>
<text text-anchor="start" x="315" y="-171" font-family="Helvetica,sans-Serif" font-size="10.00">Ogre::RTShader::SGScript</text>
<text text-anchor="middle" x="374" y="-160" font-family="Helvetica,sans-Serif" font-size="10.00">Translator</text>
</a>
</g>
</g>
<!-- Node0&#45;&gt;Node13 -->
<g id="edge13" class="edge"><title>Node0&#45;&gt;Node13</title>
<path fill="none" stroke="midnightblue" d="M210.538,-288.535C225.181,-263.306 254.755,-218.312 292,-193 297.721,-189.112 304.071,-185.809 310.627,-183.007"/>
<polygon fill="midnightblue" stroke="midnightblue" points="207.377,-287.016 205.513,-297.445 213.474,-290.454 207.377,-287.016"/>
</g>
<!-- Node14 -->
<g id="node15" class="node"><title>Node14</title>
<g id="a_node15"><a xlink:href="class_ogre_1_1_shared_params_translator.html" target="_top" xlink:title="Ogre::SharedParamsTranslator">
<polygon fill="none" stroke="black" points="298,-114.5 298,-133.5 450,-133.5 450,-114.5 298,-114.5"/>
<text text-anchor="middle" x="374" y="-121.5" font-family="Helvetica,sans-Serif" font-size="10.00">Ogre::SharedParamsTranslator</text>
</a>
</g>
</g>
<!-- Node0&#45;&gt;Node14 -->
<g id="edge14" class="edge"><title>Node0&#45;&gt;Node14</title>
<path fill="none" stroke="midnightblue" d="M205.683,-287.573C215.986,-252.871 242.438,-180.377 292,-143 297.074,-139.173 302.797,-136.101 308.796,-133.636"/>
<polygon fill="midnightblue" stroke="midnightblue" points="202.252,-286.844 202.896,-297.419 208.987,-288.75 202.252,-286.844"/>
</g>
<!-- Node15 -->
<g id="node16" class="node"><title>Node15</title>
<g id="a_node16"><a xlink:href="class_ogre_1_1_technique_translator.html" target="_top" xlink:title="Ogre::TechniqueTranslator">
<polygon fill="none" stroke="black" points="308,-76.5 308,-95.5 440,-95.5 440,-76.5 308,-76.5"/>
<text text-anchor="middle" x="374" y="-83.5" font-family="Helvetica,sans-Serif" font-size="10.00">Ogre::TechniqueTranslator</text>
</a>
</g>
</g>
<!-- Node0&#45;&gt;Node15 -->
<g id="edge15" class="edge"><title>Node0&#45;&gt;Node15</title>
<path fill="none" stroke="midnightblue" d="M203.557,-287.135C210.917,-246.364 233.548,-153.04 292,-105 296.687,-101.148 302.016,-98.0486 307.651,-95.5585"/>
<polygon fill="midnightblue" stroke="midnightblue" points="200.078,-286.718 201.868,-297.16 206.981,-287.88 200.078,-286.718"/>
</g>
<!-- Node16 -->
<g id="node17" class="node"><title>Node16</title>
<g id="a_node17"><a xlink:href="class_ogre_1_1_texture_source_translator.html" target="_top" xlink:title="Ogre::TextureSourceTranslator">
<polygon fill="none" stroke="black" points="298.5,-38.5 298.5,-57.5 449.5,-57.5 449.5,-38.5 298.5,-38.5"/>
<text text-anchor="middle" x="374" y="-45.5" font-family="Helvetica,sans-Serif" font-size="10.00">Ogre::TextureSourceTranslator</text>
</a>
</g>
</g>
<!-- Node0&#45;&gt;Node16 -->
<g id="edge16" class="edge"><title>Node0&#45;&gt;Node16</title>
<path fill="none" stroke="midnightblue" d="M201.952,-287.309C206.442,-241.318 224.227,-126.26 292,-67 296.349,-63.1969 301.317,-60.1184 306.604,-57.6309"/>
<polygon fill="midnightblue" stroke="midnightblue" points="198.451,-287.172 201.074,-297.437 205.425,-287.777 198.451,-287.172"/>
</g>
<!-- Node17 -->
<g id="node18" class="node"><title>Node17</title>
<g id="a_node18"><a xlink:href="class_ogre_1_1_texture_unit_translator.html" target="_top" xlink:title="Ogre::TextureUnitTranslator">
<polygon fill="none" stroke="black" points="305,-0.5 305,-19.5 443,-19.5 443,-0.5 305,-0.5"/>
<text text-anchor="middle" x="374" y="-7.5" font-family="Helvetica,sans-Serif" font-size="10.00">Ogre::TextureUnitTranslator</text>
</a>
</g>
</g>
<!-- Node0&#45;&gt;Node17 -->
<g id="edge17" class="edge"><title>Node0&#45;&gt;Node17</title>
<path fill="none" stroke="midnightblue" d="M200.789,-287.043C202.663,-235.956 215.008,-99.5288 292,-29 296.154,-25.1949 300.922,-22.1081 306.021,-19.6093"/>
<polygon fill="midnightblue" stroke="midnightblue" points="197.282,-287.267 200.516,-297.356 204.279,-287.452 197.282,-287.267"/>
</g>
<!-- Node1 -->
<g id="node2" class="node"><title>Node1</title>
<g id="a_node2"><a xlink:href="class_ogre_1_1_allocated_object.html" target="_top" xlink:title="ScriptTranslatorAlloc">
<polygon fill="none" stroke="black" points="0,-297.5 0,-316.5 107,-316.5 107,-297.5 0,-297.5"/>
<text text-anchor="middle" x="53.5" y="-304.5" font-family="Helvetica,sans-Serif" font-size="10.00">ScriptTranslatorAlloc</text>
</a>
</g>
</g>
<!-- Node1&#45;&gt;Node0 -->
<g id="edge1" class="edge"><title>Node1&#45;&gt;Node0</title>
<path fill="none" stroke="midnightblue" d="M117.473,-307C125.905,-307 134.505,-307 142.8,-307"/>
<polygon fill="midnightblue" stroke="midnightblue" points="117.303,-303.5 107.303,-307 117.303,-310.5 117.303,-303.5"/>
</g>
</g>
</svg>
