<?xml version="1.0" encoding="UTF-8" standalone="no"?>
<!DOCTYPE svg PUBLIC "-//W3C//DTD SVG 1.1//EN"
 "http://www.w3.org/Graphics/SVG/1.1/DTD/svg11.dtd">
<!-- Generated by graphviz version 2.38.0 (20140413.2041)
 -->
<!-- Title: Ogre::DataStream Pages: 1 -->
<svg width="389pt" height="142pt"
 viewBox="0.00 0.00 389.00 142.00" xmlns="http://www.w3.org/2000/svg" xmlns:xlink="http://www.w3.org/1999/xlink">
<g id="graph0" class="graph" transform="scale(1 1) rotate(0) translate(4 138)">
<title>Ogre::DataStream</title>
<!-- Node0 -->
<g id="node1" class="node"><title>Node0</title>
<polygon fill="#bfbfbf" stroke="black" points="106,-57.5 106,-76.5 202,-76.5 202,-57.5 106,-57.5"/>
<text text-anchor="middle" x="154" y="-64.5" font-family="Helvetica,sans-Serif" font-size="10.00">Ogre::DataStream</text>
</g>
<!-- Node2 -->
<g id="node3" class="node"><title>Node2</title>
<g id="a_node3"><a xlink:href="class_ogre_1_1_deflate_stream.html" target="_top" xlink:title="Stream which compresses / uncompresses data using the &#39;deflate&#39; compression algorithm. ">
<polygon fill="none" stroke="black" points="256,-114.5 256,-133.5 363,-133.5 363,-114.5 256,-114.5"/>
<text text-anchor="middle" x="309.5" y="-121.5" font-family="Helvetica,sans-Serif" font-size="10.00">Ogre::DeflateStream</text>
</a>
</g>
</g>
<!-- Node0&#45;&gt;Node2 -->
<g id="edge2" class="edge"><title>Node0&#45;&gt;Node2</title>
<path fill="none" stroke="midnightblue" d="M182.676,-81.073C198.589,-88.8069 219.112,-98.1845 238,-105 247.777,-108.528 258.525,-111.745 268.617,-114.489"/>
<polygon fill="midnightblue" stroke="midnightblue" points="183.936,-77.7921 173.42,-76.5075 180.84,-84.07 183.936,-77.7921"/>
</g>
<!-- Node3 -->
<g id="node4" class="node"><title>Node3</title>
<g id="a_node4"><a xlink:href="class_ogre_1_1_file_handle_data_stream.html" target="_top" xlink:title="Common subclass of DataStream for handling data from C&#45;style file handles. ">
<polygon fill="none" stroke="black" points="238,-76.5 238,-95.5 381,-95.5 381,-76.5 238,-76.5"/>
<text text-anchor="middle" x="309.5" y="-83.5" font-family="Helvetica,sans-Serif" font-size="10.00">Ogre::FileHandleDataStream</text>
</a>
</g>
</g>
<!-- Node0&#45;&gt;Node3 -->
<g id="edge3" class="edge"><title>Node0&#45;&gt;Node3</title>
<path fill="none" stroke="midnightblue" d="M212.307,-74.0934C220.662,-75.1276 229.347,-76.2025 237.928,-77.2646"/>
<polygon fill="midnightblue" stroke="midnightblue" points="212.662,-70.6107 202.308,-72.8557 211.802,-77.5577 212.662,-70.6107"/>
</g>
<!-- Node4 -->
<g id="node5" class="node"><title>Node4</title>
<g id="a_node5"><a xlink:href="class_ogre_1_1_file_stream_data_stream.html" target="_top" xlink:title="Common subclass of DataStream for handling data from std::basic_istream. ">
<polygon fill="none" stroke="black" points="238,-38.5 238,-57.5 381,-57.5 381,-38.5 238,-38.5"/>
<text text-anchor="middle" x="309.5" y="-45.5" font-family="Helvetica,sans-Serif" font-size="10.00">Ogre::FileStreamDataStream</text>
</a>
</g>
</g>
<!-- Node0&#45;&gt;Node4 -->
<g id="edge4" class="edge"><title>Node0&#45;&gt;Node4</title>
<path fill="none" stroke="midnightblue" d="M212.307,-59.9066C220.662,-58.8724 229.347,-57.7975 237.928,-56.7354"/>
<polygon fill="midnightblue" stroke="midnightblue" points="211.802,-56.4423 202.308,-61.1443 212.662,-63.3893 211.802,-56.4423"/>
</g>
<!-- Node5 -->
<g id="node6" class="node"><title>Node5</title>
<g id="a_node6"><a xlink:href="class_ogre_1_1_memory_data_stream.html" target="_top" xlink:title="Common subclass of DataStream for handling data from chunks of memory. ">
<polygon fill="none" stroke="black" points="244,-0.5 244,-19.5 375,-19.5 375,-0.5 244,-0.5"/>
<text text-anchor="middle" x="309.5" y="-7.5" font-family="Helvetica,sans-Serif" font-size="10.00">Ogre::MemoryDataStream</text>
</a>
</g>
</g>
<!-- Node0&#45;&gt;Node5 -->
<g id="edge5" class="edge"><title>Node0&#45;&gt;Node5</title>
<path fill="none" stroke="midnightblue" d="M182.676,-52.927C198.589,-45.1931 219.112,-35.8155 238,-29 247.777,-25.4719 258.525,-22.2546 268.617,-19.5109"/>
<polygon fill="midnightblue" stroke="midnightblue" points="180.84,-49.93 173.42,-57.4925 183.936,-56.2079 180.84,-49.93"/>
</g>
<!-- Node1 -->
<g id="node2" class="node"><title>Node1</title>
<g id="a_node2"><a xlink:href="class_ogre_1_1_allocated_object.html" target="_top" xlink:title="StreamAlloc">
<polygon fill="none" stroke="black" points="0,-57.5 0,-76.5 70,-76.5 70,-57.5 0,-57.5"/>
<text text-anchor="middle" x="35" y="-64.5" font-family="Helvetica,sans-Serif" font-size="10.00">StreamAlloc</text>
</a>
</g>
</g>
<!-- Node1&#45;&gt;Node0 -->
<g id="edge1" class="edge"><title>Node1&#45;&gt;Node0</title>
<path fill="none" stroke="midnightblue" d="M80.1772,-67C88.6068,-67 97.4592,-67 105.974,-67"/>
<polygon fill="midnightblue" stroke="midnightblue" points="80.1558,-63.5001 70.1558,-67 80.1557,-70.5001 80.1558,-63.5001"/>
</g>
</g>
</svg>
