<?xml version="1.0" encoding="UTF-8" standalone="no"?>
<!DOCTYPE svg PUBLIC "-//W3C//DTD SVG 1.1//EN"
 "http://www.w3.org/Graphics/SVG/1.1/DTD/svg11.dtd">
<!-- Generated by graphviz version 2.38.0 (20140413.2041)
 -->
<!-- Title: Ogre::ShadowCaster Pages: 1 -->
<svg width="788pt" height="522pt"
 viewBox="0.00 0.00 788.00 522.00" xmlns="http://www.w3.org/2000/svg" xmlns:xlink="http://www.w3.org/1999/xlink">
<g id="graph0" class="graph" transform="scale(1 1) rotate(0) translate(4 518)">
<title>Ogre::ShadowCaster</title>
<!-- Node0 -->
<g id="node1" class="node"><title>Node0</title>
<polygon fill="#bfbfbf" stroke="black" points="0,-266.5 0,-285.5 108,-285.5 108,-266.5 0,-266.5"/>
<text text-anchor="middle" x="54" y="-273.5" font-family="Helvetica,sans-Serif" font-size="10.00">Ogre::ShadowCaster</text>
</g>
<!-- Node1 -->
<g id="node2" class="node"><title>Node1</title>
<g id="a_node2"><a xlink:href="class_ogre_1_1_movable_object.html" target="_top" xlink:title="Abstract class defining a movable object in a scene. ">
<polygon fill="none" stroke="black" points="144,-266.5 144,-285.5 253,-285.5 253,-266.5 144,-266.5"/>
<text text-anchor="middle" x="198.5" y="-273.5" font-family="Helvetica,sans-Serif" font-size="10.00">Ogre::MovableObject</text>
</a>
</g>
</g>
<!-- Node0&#45;&gt;Node1 -->
<g id="edge1" class="edge"><title>Node0&#45;&gt;Node1</title>
<path fill="none" stroke="midnightblue" d="M118.079,-276C126.702,-276 135.487,-276 143.919,-276"/>
<polygon fill="midnightblue" stroke="midnightblue" points="118.062,-272.5 108.062,-276 118.062,-279.5 118.062,-272.5"/>
</g>
<!-- Node2 -->
<g id="node3" class="node"><title>Node2</title>
<g id="a_node3"><a xlink:href="class_ogre_1_1_billboard_chain.html" target="_top" xlink:title="Allows the rendering of a chain of connected billboards. ">
<polygon fill="none" stroke="black" points="297,-494.5 297,-513.5 404,-513.5 404,-494.5 297,-494.5"/>
<text text-anchor="middle" x="350.5" y="-501.5" font-family="Helvetica,sans-Serif" font-size="10.00">Ogre::BillboardChain</text>
</a>
</g>
</g>
<!-- Node1&#45;&gt;Node2 -->
<g id="edge2" class="edge"><title>Node1&#45;&gt;Node2</title>
<path fill="none" stroke="midnightblue" d="M202.334,-295.601C209.32,-336.768 231.2,-432.726 289,-485 293.328,-488.914 298.456,-492.022 303.869,-494.489"/>
<polygon fill="midnightblue" stroke="midnightblue" points="205.76,-294.855 200.741,-285.524 198.845,-295.948 205.76,-294.855"/>
</g>
<!-- Node4 -->
<g id="node5" class="node"><title>Node4</title>
<g id="a_node5"><a xlink:href="class_ogre_1_1_billboard_set.html" target="_top" xlink:title="A collection of billboards (faces which are always facing the given direction) with the same (default...">
<polygon fill="none" stroke="black" points="302.5,-456.5 302.5,-475.5 398.5,-475.5 398.5,-456.5 302.5,-456.5"/>
<text text-anchor="middle" x="350.5" y="-463.5" font-family="Helvetica,sans-Serif" font-size="10.00">Ogre::BillboardSet</text>
</a>
</g>
</g>
<!-- Node1&#45;&gt;Node4 -->
<g id="edge4" class="edge"><title>Node1&#45;&gt;Node4</title>
<path fill="none" stroke="midnightblue" d="M204.479,-295.872C214.411,-331.438 240.06,-406.074 289,-447 293.645,-450.884 299.087,-453.977 304.768,-456.438"/>
<polygon fill="midnightblue" stroke="midnightblue" points="207.75,-294.553 201.797,-285.789 200.985,-296.353 207.75,-294.553"/>
</g>
<!-- Node5 -->
<g id="node6" class="node"><title>Node5</title>
<g id="a_node6"><a xlink:href="class_ogre_1_1_entity.html" target="_top" xlink:title="Defines an instance of a discrete, movable object based on a Mesh. ">
<polygon fill="none" stroke="black" points="316,-418.5 316,-437.5 385,-437.5 385,-418.5 316,-418.5"/>
<text text-anchor="middle" x="350.5" y="-425.5" font-family="Helvetica,sans-Serif" font-size="10.00">Ogre::Entity</text>
</a>
</g>
</g>
<!-- Node1&#45;&gt;Node5 -->
<g id="edge5" class="edge"><title>Node1&#45;&gt;Node5</title>
<path fill="none" stroke="midnightblue" d="M207.316,-295.043C220.121,-323.911 248.284,-378.598 289,-409 296.851,-414.862 306.555,-418.945 315.876,-421.777"/>
<polygon fill="midnightblue" stroke="midnightblue" points="210.454,-293.481 203.298,-285.668 204.02,-296.238 210.454,-293.481"/>
</g>
<!-- Node6 -->
<g id="node7" class="node"><title>Node6</title>
<g id="a_node7"><a xlink:href="class_ogre_1_1_frustum.html" target="_top" xlink:title="A frustum represents a pyramid, capped at the near and far end which is used to represent either a vi...">
<polygon fill="none" stroke="black" points="310.5,-380.5 310.5,-399.5 390.5,-399.5 390.5,-380.5 310.5,-380.5"/>
<text text-anchor="middle" x="350.5" y="-387.5" font-family="Helvetica,sans-Serif" font-size="10.00">Ogre::Frustum</text>
</a>
</g>
</g>
<!-- Node1&#45;&gt;Node6 -->
<g id="edge6" class="edge"><title>Node1&#45;&gt;Node6</title>
<path fill="none" stroke="midnightblue" d="M211.792,-293.801C227.389,-315.106 256.237,-350.471 289,-371 295.53,-375.092 303.013,-378.367 310.439,-380.965"/>
<polygon fill="midnightblue" stroke="midnightblue" points="214.606,-291.718 205.945,-285.615 208.909,-295.787 214.606,-291.718"/>
</g>
<!-- Node10 -->
<g id="node11" class="node"><title>Node10</title>
<g id="a_node11"><a xlink:href="class_ogre_1_1_instance_batch.html" target="_top" xlink:title="InstanceBatch forms part of the new Instancing system This is an abstract class that must be derived ...">
<polygon fill="none" stroke="black" points="297,-342.5 297,-361.5 404,-361.5 404,-342.5 297,-342.5"/>
<text text-anchor="middle" x="350.5" y="-349.5" font-family="Helvetica,sans-Serif" font-size="10.00">Ogre::InstanceBatch</text>
</a>
</g>
</g>
<!-- Node1&#45;&gt;Node10 -->
<g id="edge10" class="edge"><title>Node1&#45;&gt;Node10</title>
<path fill="none" stroke="midnightblue" d="M220.588,-291.687C238.171,-304.2 264.254,-321.48 289,-333 296.785,-336.624 305.442,-339.804 313.718,-342.473"/>
<polygon fill="midnightblue" stroke="midnightblue" points="222.375,-288.66 212.221,-285.634 218.272,-294.331 222.375,-288.66"/>
</g>
<!-- Node16 -->
<g id="node17" class="node"><title>Node16</title>
<g id="a_node17"><a xlink:href="class_ogre_1_1_instanced_entity.html" target="_top" xlink:title="Ogre::InstancedEntity">
<polygon fill="none" stroke="black" points="294.5,-304.5 294.5,-323.5 406.5,-323.5 406.5,-304.5 294.5,-304.5"/>
<text text-anchor="middle" x="350.5" y="-311.5" font-family="Helvetica,sans-Serif" font-size="10.00">Ogre::InstancedEntity</text>
</a>
</g>
</g>
<!-- Node1&#45;&gt;Node16 -->
<g id="edge16" class="edge"><title>Node1&#45;&gt;Node16</title>
<path fill="none" stroke="midnightblue" d="M247.311,-288.112C268.202,-293.404 292.347,-299.521 311.921,-304.48"/>
<polygon fill="midnightblue" stroke="midnightblue" points="247.905,-284.652 237.351,-285.589 246.186,-291.438 247.905,-284.652"/>
</g>
<!-- Node17 -->
<g id="node18" class="node"><title>Node17</title>
<g id="a_node18"><a xlink:href="class_ogre_1_1_light.html" target="_top" xlink:title="Representation of a dynamic light source in the scene. ">
<polygon fill="none" stroke="black" points="318,-266.5 318,-285.5 383,-285.5 383,-266.5 318,-266.5"/>
<text text-anchor="middle" x="350.5" y="-273.5" font-family="Helvetica,sans-Serif" font-size="10.00">Ogre::Light</text>
</a>
</g>
</g>
<!-- Node1&#45;&gt;Node17 -->
<g id="edge17" class="edge"><title>Node1&#45;&gt;Node17</title>
<path fill="none" stroke="midnightblue" d="M263.294,-276C282.187,-276 302.05,-276 317.942,-276"/>
<polygon fill="midnightblue" stroke="midnightblue" points="263.23,-272.5 253.23,-276 263.23,-279.5 263.23,-272.5"/>
</g>
<!-- Node19 -->
<g id="node20" class="node"><title>Node19</title>
<g id="a_node20"><a xlink:href="class_ogre_1_1_manual_object.html" target="_top" xlink:title="Class providing a much simplified interface to generating manual objects with custom geometry...">
<polygon fill="none" stroke="black" points="298.5,-228.5 298.5,-247.5 402.5,-247.5 402.5,-228.5 298.5,-228.5"/>
<text text-anchor="middle" x="350.5" y="-235.5" font-family="Helvetica,sans-Serif" font-size="10.00">Ogre::ManualObject</text>
</a>
</g>
</g>
<!-- Node1&#45;&gt;Node19 -->
<g id="edge19" class="edge"><title>Node1&#45;&gt;Node19</title>
<path fill="none" stroke="midnightblue" d="M247.311,-263.888C268.202,-258.596 292.347,-252.479 311.921,-247.52"/>
<polygon fill="midnightblue" stroke="midnightblue" points="246.186,-260.562 237.351,-266.411 247.905,-267.348 246.186,-260.562"/>
</g>
<!-- Node20 -->
<g id="node21" class="node"><title>Node20</title>
<g id="a_node21"><a xlink:href="class_ogre_1_1_movable_plane.html" target="_top" xlink:title="Definition of a Plane that may be attached to a node, and the derived details of it retrieved simply...">
<polygon fill="none" stroke="black" points="298,-190.5 298,-209.5 403,-209.5 403,-190.5 298,-190.5"/>
<text text-anchor="middle" x="350.5" y="-197.5" font-family="Helvetica,sans-Serif" font-size="10.00">Ogre::MovablePlane</text>
</a>
</g>
</g>
<!-- Node1&#45;&gt;Node20 -->
<g id="edge20" class="edge"><title>Node1&#45;&gt;Node20</title>
<path fill="none" stroke="midnightblue" d="M220.588,-260.313C238.171,-247.8 264.254,-230.52 289,-219 296.785,-215.376 305.442,-212.196 313.718,-209.527"/>
<polygon fill="midnightblue" stroke="midnightblue" points="218.272,-257.669 212.221,-266.366 222.375,-263.34 218.272,-257.669"/>
</g>
<!-- Node21 -->
<g id="node22" class="node"><title>Node21</title>
<g id="a_node22"><a xlink:href="class_ogre_1_1_particle_system.html" target="_top" xlink:title="Class defining particle system based special effects. ">
<polygon fill="none" stroke="black" points="295.5,-152.5 295.5,-171.5 405.5,-171.5 405.5,-152.5 295.5,-152.5"/>
<text text-anchor="middle" x="350.5" y="-159.5" font-family="Helvetica,sans-Serif" font-size="10.00">Ogre::ParticleSystem</text>
</a>
</g>
</g>
<!-- Node1&#45;&gt;Node21 -->
<g id="edge21" class="edge"><title>Node1&#45;&gt;Node21</title>
<path fill="none" stroke="midnightblue" d="M211.792,-258.199C227.389,-236.894 256.237,-201.529 289,-181 295.064,-177.2 301.949,-174.105 308.847,-171.602"/>
<polygon fill="midnightblue" stroke="midnightblue" points="208.909,-256.213 205.945,-266.385 214.606,-260.282 208.909,-256.213"/>
</g>
<!-- Node22 -->
<g id="node23" class="node"><title>Node22</title>
<g id="a_node23"><a xlink:href="class_ogre_1_1_portal_base.html" target="_top" xlink:title="PortalBase &#45; Base class to Portal and AntiPortal classes. ">
<polygon fill="none" stroke="black" points="304.5,-114.5 304.5,-133.5 396.5,-133.5 396.5,-114.5 304.5,-114.5"/>
<text text-anchor="middle" x="350.5" y="-121.5" font-family="Helvetica,sans-Serif" font-size="10.00">Ogre::PortalBase</text>
</a>
</g>
</g>
<!-- Node1&#45;&gt;Node22 -->
<g id="edge22" class="edge"><title>Node1&#45;&gt;Node22</title>
<path fill="none" stroke="midnightblue" d="M207.316,-256.957C220.121,-228.089 248.284,-173.402 289,-143 294.205,-139.114 300.224,-136.01 306.405,-133.534"/>
<polygon fill="midnightblue" stroke="midnightblue" points="204.02,-255.762 203.298,-266.332 210.454,-258.519 204.02,-255.762"/>
</g>
<!-- Node25 -->
<g id="node26" class="node"><title>Node25</title>
<g id="a_node26"><a xlink:href="class_ogre_1_1_simple_renderable.html" target="_top" xlink:title="Simple implementation of MovableObject and Renderable for single&#45;part custom objects. ">
<polygon fill="none" stroke="black" points="289,-76.5 289,-95.5 412,-95.5 412,-76.5 289,-76.5"/>
<text text-anchor="middle" x="350.5" y="-83.5" font-family="Helvetica,sans-Serif" font-size="10.00">Ogre::SimpleRenderable</text>
</a>
</g>
</g>
<!-- Node1&#45;&gt;Node25 -->
<g id="edge25" class="edge"><title>Node1&#45;&gt;Node25</title>
<path fill="none" stroke="midnightblue" d="M204.479,-256.128C214.411,-220.562 240.06,-145.926 289,-105 293.645,-101.116 299.087,-98.0234 304.768,-95.5621"/>
<polygon fill="midnightblue" stroke="midnightblue" points="200.985,-255.647 201.797,-266.211 207.75,-257.447 200.985,-255.647"/>
</g>
<!-- Node29 -->
<g id="node30" class="node"><title>Node29</title>
<g id="a_node30"><a xlink:href="class_ogre_1_1_static_geometry_1_1_region.html" target="_top" xlink:title="The details of a topological region which is the highest level of partitioning for this class...">
<polygon fill="none" stroke="black" points="294.5,-27 294.5,-57 406.5,-57 406.5,-27 294.5,-27"/>
<text text-anchor="start" x="302.5" y="-45" font-family="Helvetica,sans-Serif" font-size="10.00">Ogre::StaticGeometry</text>
<text text-anchor="middle" x="350.5" y="-34" font-family="Helvetica,sans-Serif" font-size="10.00">::Region</text>
</a>
</g>
</g>
<!-- Node1&#45;&gt;Node29 -->
<g id="edge29" class="edge"><title>Node1&#45;&gt;Node29</title>
<path fill="none" stroke="midnightblue" d="M202.81,-256.224C210.607,-215.491 233.8,-121.5 289,-67 292.882,-63.1673 297.435,-59.8929 302.271,-57.1023"/>
<polygon fill="midnightblue" stroke="midnightblue" points="199.337,-255.76 201.005,-266.223 206.225,-257.003 199.337,-255.76"/>
</g>
<!-- Node3 -->
<g id="node4" class="node"><title>Node3</title>
<g id="a_node4"><a xlink:href="class_ogre_1_1_ribbon_trail.html" target="_top" xlink:title="Subclass of BillboardChain which automatically leaves a trail behind one or more Node instances...">
<polygon fill="none" stroke="black" points="475.5,-494.5 475.5,-513.5 568.5,-513.5 568.5,-494.5 475.5,-494.5"/>
<text text-anchor="middle" x="522" y="-501.5" font-family="Helvetica,sans-Serif" font-size="10.00">Ogre::RibbonTrail</text>
</a>
</g>
</g>
<!-- Node2&#45;&gt;Node3 -->
<g id="edge3" class="edge"><title>Node2&#45;&gt;Node3</title>
<path fill="none" stroke="midnightblue" d="M414.308,-504C434.599,-504 456.693,-504 475.485,-504"/>
<polygon fill="midnightblue" stroke="midnightblue" points="414.202,-500.5 404.202,-504 414.202,-507.5 414.202,-500.5"/>
</g>
<!-- Node7 -->
<g id="node8" class="node"><title>Node7</title>
<g id="a_node8"><a xlink:href="class_ogre_1_1_camera.html" target="_top" xlink:title="A viewpoint from which the scene will be rendered. ">
<polygon fill="none" stroke="black" points="483,-418.5 483,-437.5 561,-437.5 561,-418.5 483,-418.5"/>
<text text-anchor="middle" x="522" y="-425.5" font-family="Helvetica,sans-Serif" font-size="10.00">Ogre::Camera</text>
</a>
</g>
</g>
<!-- Node6&#45;&gt;Node7 -->
<g id="edge7" class="edge"><title>Node6&#45;&gt;Node7</title>
<path fill="none" stroke="midnightblue" d="M400.891,-401.073C426.998,-406.926 458.559,-414.001 482.776,-419.431"/>
<polygon fill="midnightblue" stroke="midnightblue" points="401.336,-397.586 390.813,-398.813 399.805,-404.416 401.336,-397.586"/>
</g>
<!-- Node8 -->
<g id="node9" class="node"><title>Node8</title>
<g id="a_node9"><a xlink:href="class_ogre_1_1_octree_camera.html" target="_top" xlink:title="Specialized viewpoint from which an Octree can be rendered. ">
<polygon fill="none" stroke="black" points="652.5,-456.5 652.5,-475.5 759.5,-475.5 759.5,-456.5 652.5,-456.5"/>
<text text-anchor="middle" x="706" y="-463.5" font-family="Helvetica,sans-Serif" font-size="10.00">Ogre::OctreeCamera</text>
</a>
</g>
</g>
<!-- Node7&#45;&gt;Node8 -->
<g id="edge8" class="edge"><title>Node7&#45;&gt;Node8</title>
<path fill="none" stroke="midnightblue" d="M571.278,-438.08C598.621,-443.789 632.621,-450.888 659.495,-456.499"/>
<polygon fill="midnightblue" stroke="midnightblue" points="571.657,-434.584 561.153,-435.966 570.227,-441.436 571.657,-434.584"/>
</g>
<!-- Node9 -->
<g id="node10" class="node"><title>Node9</title>
<g id="a_node10"><a xlink:href="class_ogre_1_1_p_c_z_camera.html" target="_top" xlink:title="Specialized viewpoint from which an PCZone Scene can be rendered. ">
<polygon fill="none" stroke="black" points="657,-418.5 657,-437.5 755,-437.5 755,-418.5 657,-418.5"/>
<text text-anchor="middle" x="706" y="-425.5" font-family="Helvetica,sans-Serif" font-size="10.00">Ogre::PCZCamera</text>
</a>
</g>
</g>
<!-- Node7&#45;&gt;Node9 -->
<g id="edge9" class="edge"><title>Node7&#45;&gt;Node9</title>
<path fill="none" stroke="midnightblue" d="M571.324,-428C597.762,-428 630.413,-428 656.827,-428"/>
<polygon fill="midnightblue" stroke="midnightblue" points="571.153,-424.5 561.153,-428 571.153,-431.5 571.153,-424.5"/>
</g>
<!-- Node11 -->
<g id="node12" class="node"><title>Node11</title>
<g id="a_node12"><a xlink:href="class_ogre_1_1_base_instance_batch_v_t_f.html" target="_top" xlink:title="Instancing implementation using vertex texture through Vertex Texture Fetch (VTF) This implementation...">
<polygon fill="none" stroke="black" points="448,-380.5 448,-399.5 596,-399.5 596,-380.5 448,-380.5"/>
<text text-anchor="middle" x="522" y="-387.5" font-family="Helvetica,sans-Serif" font-size="10.00">Ogre::BaseInstanceBatchVTF</text>
</a>
</g>
</g>
<!-- Node10&#45;&gt;Node11 -->
<g id="edge11" class="edge"><title>Node10&#45;&gt;Node11</title>
<path fill="none" stroke="midnightblue" d="M404.242,-363.824C428.139,-369.182 456.015,-375.431 478.536,-380.48"/>
<polygon fill="midnightblue" stroke="midnightblue" points="404.795,-360.361 394.272,-361.589 403.264,-367.192 404.795,-360.361"/>
</g>
<!-- Node14 -->
<g id="node15" class="node"><title>Node14</title>
<g id="a_node15"><a xlink:href="class_ogre_1_1_instance_batch_h_w.html" target="_top" xlink:title="This is technique requires true instancing hardware support. ">
<polygon fill="none" stroke="black" points="460,-342.5 460,-361.5 584,-361.5 584,-342.5 460,-342.5"/>
<text text-anchor="middle" x="522" y="-349.5" font-family="Helvetica,sans-Serif" font-size="10.00">Ogre::InstanceBatchHW</text>
</a>
</g>
</g>
<!-- Node10&#45;&gt;Node14 -->
<g id="edge14" class="edge"><title>Node10&#45;&gt;Node14</title>
<path fill="none" stroke="midnightblue" d="M414.299,-352C429.143,-352 444.951,-352 459.726,-352"/>
<polygon fill="midnightblue" stroke="midnightblue" points="414.202,-348.5 404.202,-352 414.202,-355.5 414.202,-348.5"/>
</g>
<!-- Node15 -->
<g id="node16" class="node"><title>Node15</title>
<g id="a_node16"><a xlink:href="class_ogre_1_1_instance_batch_shader.html" target="_top" xlink:title="This is the same technique the old &quot;InstancedGeometry&quot; implementation used (with improvements). ">
<polygon fill="none" stroke="black" points="453.5,-304.5 453.5,-323.5 590.5,-323.5 590.5,-304.5 453.5,-304.5"/>
<text text-anchor="middle" x="522" y="-311.5" font-family="Helvetica,sans-Serif" font-size="10.00">Ogre::InstanceBatchShader</text>
</a>
</g>
</g>
<!-- Node10&#45;&gt;Node15 -->
<g id="edge15" class="edge"><title>Node10&#45;&gt;Node15</title>
<path fill="none" stroke="midnightblue" d="M404.242,-340.176C428.139,-334.818 456.015,-328.569 478.536,-323.52"/>
<polygon fill="midnightblue" stroke="midnightblue" points="403.264,-336.808 394.272,-342.411 404.795,-343.639 403.264,-336.808"/>
</g>
<!-- Node12 -->
<g id="node13" class="node"><title>Node12</title>
<g id="a_node13"><a xlink:href="class_ogre_1_1_instance_batch_h_w___v_t_f.html" target="_top" xlink:title="Instancing implementation using vertex texture through Vertex Texture Fetch (VTF) and hardware instan...">
<polygon fill="none" stroke="black" points="632,-380.5 632,-399.5 780,-399.5 780,-380.5 632,-380.5"/>
<text text-anchor="middle" x="706" y="-387.5" font-family="Helvetica,sans-Serif" font-size="10.00">Ogre::InstanceBatchHW_VTF</text>
</a>
</g>
</g>
<!-- Node11&#45;&gt;Node12 -->
<g id="edge12" class="edge"><title>Node11&#45;&gt;Node12</title>
<path fill="none" stroke="midnightblue" d="M606.516,-390C614.992,-390 623.556,-390 631.91,-390"/>
<polygon fill="midnightblue" stroke="midnightblue" points="606.24,-386.5 596.24,-390 606.24,-393.5 606.24,-386.5"/>
</g>
<!-- Node13 -->
<g id="node14" class="node"><title>Node13</title>
<g id="a_node14"><a xlink:href="class_ogre_1_1_instance_batch_v_t_f.html" target="_top" xlink:title="Ogre::InstanceBatchVTF">
<polygon fill="none" stroke="black" points="643.5,-342.5 643.5,-361.5 768.5,-361.5 768.5,-342.5 643.5,-342.5"/>
<text text-anchor="middle" x="706" y="-349.5" font-family="Helvetica,sans-Serif" font-size="10.00">Ogre::InstanceBatchVTF</text>
</a>
</g>
</g>
<!-- Node11&#45;&gt;Node13 -->
<g id="edge13" class="edge"><title>Node11&#45;&gt;Node13</title>
<path fill="none" stroke="midnightblue" d="M578.946,-378.319C604.756,-372.93 635.007,-366.614 659.404,-361.52"/>
<polygon fill="midnightblue" stroke="midnightblue" points="578,-374.941 568.926,-380.411 579.431,-381.793 578,-374.941"/>
</g>
<!-- Node18 -->
<g id="node19" class="node"><title>Node18</title>
<g id="a_node19"><a xlink:href="class_ogre_1_1_p_c_z_light.html" target="_top" xlink:title="Specialized version of Ogre::Light which caches which zones the light affects. ">
<polygon fill="none" stroke="black" points="479.5,-266.5 479.5,-285.5 564.5,-285.5 564.5,-266.5 479.5,-266.5"/>
<text text-anchor="middle" x="522" y="-273.5" font-family="Helvetica,sans-Serif" font-size="10.00">Ogre::PCZLight</text>
</a>
</g>
</g>
<!-- Node17&#45;&gt;Node18 -->
<g id="edge18" class="edge"><title>Node17&#45;&gt;Node18</title>
<path fill="none" stroke="midnightblue" d="M393.384,-276C419.573,-276 453.174,-276 479.324,-276"/>
<polygon fill="midnightblue" stroke="midnightblue" points="393.382,-272.5 383.382,-276 393.382,-279.5 393.382,-272.5"/>
</g>
<!-- Node23 -->
<g id="node24" class="node"><title>Node23</title>
<g id="a_node24"><a xlink:href="class_ogre_1_1_anti_portal.html" target="_top" xlink:title="AntiPortal datastructure for occlusion culling. ">
<polygon fill="none" stroke="black" points="479,-152.5 479,-171.5 565,-171.5 565,-152.5 479,-152.5"/>
<text text-anchor="middle" x="522" y="-159.5" font-family="Helvetica,sans-Serif" font-size="10.00">Ogre::AntiPortal</text>
</a>
</g>
</g>
<!-- Node22&#45;&gt;Node23 -->
<g id="edge23" class="edge"><title>Node22&#45;&gt;Node23</title>
<path fill="none" stroke="midnightblue" d="M404.281,-135.833C428.273,-141.212 456.27,-147.488 478.829,-152.546"/>
<polygon fill="midnightblue" stroke="midnightblue" points="404.795,-132.361 394.272,-133.589 403.264,-139.192 404.795,-132.361"/>
</g>
<!-- Node24 -->
<g id="node25" class="node"><title>Node24</title>
<g id="a_node25"><a xlink:href="class_ogre_1_1_portal.html" target="_top" xlink:title="Portal datastructure for connecting zones. ">
<polygon fill="none" stroke="black" points="487.5,-114.5 487.5,-133.5 556.5,-133.5 556.5,-114.5 487.5,-114.5"/>
<text text-anchor="middle" x="522" y="-121.5" font-family="Helvetica,sans-Serif" font-size="10.00">Ogre::Portal</text>
</a>
</g>
</g>
<!-- Node22&#45;&gt;Node24 -->
<g id="edge24" class="edge"><title>Node22&#45;&gt;Node24</title>
<path fill="none" stroke="midnightblue" d="M407.205,-124C433.666,-124 464.425,-124 487.287,-124"/>
<polygon fill="midnightblue" stroke="midnightblue" points="406.923,-120.5 396.923,-124 406.923,-127.5 406.923,-120.5"/>
</g>
<!-- Node26 -->
<g id="node27" class="node"><title>Node26</title>
<g id="a_node27"><a xlink:href="class_ogre_1_1_rectangle2_d.html" target="_top" xlink:title="Allows the rendering of a simple 2D rectangle This class renders a simple 2D rectangle; this rectangl...">
<polygon fill="none" stroke="black" points="471.5,-76.5 471.5,-95.5 572.5,-95.5 572.5,-76.5 471.5,-76.5"/>
<text text-anchor="middle" x="522" y="-83.5" font-family="Helvetica,sans-Serif" font-size="10.00">Ogre::Rectangle2D</text>
</a>
</g>
</g>
<!-- Node25&#45;&gt;Node26 -->
<g id="edge26" class="edge"><title>Node25&#45;&gt;Node26</title>
<path fill="none" stroke="midnightblue" d="M422.346,-86C438.803,-86 455.979,-86 471.3,-86"/>
<polygon fill="midnightblue" stroke="midnightblue" points="422.215,-82.5001 412.215,-86 422.215,-89.5001 422.215,-82.5001"/>
</g>
<!-- Node27 -->
<g id="node28" class="node"><title>Node27</title>
<g id="a_node28"><a xlink:href="class_ogre_1_1_volume_1_1_chunk.html" target="_top" xlink:title="A single volume chunk mesh. ">
<polygon fill="none" stroke="black" points="466.5,-38.5 466.5,-57.5 577.5,-57.5 577.5,-38.5 466.5,-38.5"/>
<text text-anchor="middle" x="522" y="-45.5" font-family="Helvetica,sans-Serif" font-size="10.00">Ogre::Volume::Chunk</text>
</a>
</g>
</g>
<!-- Node25&#45;&gt;Node27 -->
<g id="edge27" class="edge"><title>Node25&#45;&gt;Node27</title>
<path fill="none" stroke="midnightblue" d="M404.242,-74.1757C428.139,-68.8184 456.015,-62.5689 478.536,-57.5201"/>
<polygon fill="midnightblue" stroke="midnightblue" points="403.264,-70.8081 394.272,-76.411 404.795,-77.6386 403.264,-70.8081"/>
</g>
<!-- Node28 -->
<g id="node29" class="node"><title>Node28</title>
<g id="a_node29"><a xlink:href="class_ogre_1_1_wire_bounding_box.html" target="_top" xlink:title="Allows the rendering of a wireframe bounding box. ">
<polygon fill="none" stroke="black" points="461,-0.5 461,-19.5 583,-19.5 583,-0.5 461,-0.5"/>
<text text-anchor="middle" x="522" y="-7.5" font-family="Helvetica,sans-Serif" font-size="10.00">Ogre::WireBoundingBox</text>
</a>
</g>
</g>
<!-- Node25&#45;&gt;Node28 -->
<g id="edge28" class="edge"><title>Node25&#45;&gt;Node28</title>
<path fill="none" stroke="midnightblue" d="M399.51,-72.5533C403.863,-70.62 408.097,-68.4428 412,-66 431.449,-53.8284 428.168,-40.5367 448,-29 454.679,-25.1149 462.156,-22.0114 469.71,-19.5356"/>
<polygon fill="midnightblue" stroke="midnightblue" points="397.858,-69.4441 389.871,-76.4047 400.456,-75.9444 397.858,-69.4441"/>
</g>
</g>
</svg>
