<?xml version="1.0" encoding="UTF-8" standalone="no"?>
<!DOCTYPE svg PUBLIC "-//W3C//DTD SVG 1.1//EN"
 "http://www.w3.org/Graphics/SVG/1.1/DTD/svg11.dtd">
<!-- Generated by graphviz version 2.38.0 (20140413.2041)
 -->
<!-- Title: Ogre::RenderTarget Pages: 1 -->
<svg width="796pt" height="424pt"
 viewBox="0.00 0.00 796.00 423.50" xmlns="http://www.w3.org/2000/svg" xmlns:xlink="http://www.w3.org/1999/xlink">
<g id="graph0" class="graph" transform="scale(1 1) rotate(0) translate(4 419.5)">
<title>Ogre::RenderTarget</title>
<!-- Node0 -->
<g id="node1" class="node"><title>Node0</title>
<polygon fill="#bfbfbf" stroke="black" points="123,-145 123,-164 226,-164 226,-145 123,-145"/>
<text text-anchor="middle" x="174.5" y="-152" font-family="Helvetica,sans-Serif" font-size="10.00">Ogre::RenderTarget</text>
</g>
<!-- Node2 -->
<g id="node3" class="node"><title>Node2</title>
<g id="a_node3"><a xlink:href="class_ogre_1_1_multi_render_target.html" target="_top" xlink:title="This class represents a render target that renders to multiple RenderTextures at once. ">
<polygon fill="none" stroke="black" points="262,-289 262,-308 386,-308 386,-289 262,-289"/>
<text text-anchor="middle" x="324" y="-296" font-family="Helvetica,sans-Serif" font-size="10.00">Ogre::MultiRenderTarget</text>
</a>
</g>
</g>
<!-- Node0&#45;&gt;Node2 -->
<g id="edge2" class="edge"><title>Node0&#45;&gt;Node2</title>
<path fill="none" stroke="midnightblue" d="M192.794,-171.384C223.952,-201.802 288.559,-264.876 313.179,-288.912"/>
<polygon fill="midnightblue" stroke="midnightblue" points="195.239,-168.879 185.638,-164.398 190.349,-173.888 195.239,-168.879"/>
</g>
<!-- Node8 -->
<g id="node9" class="node"><title>Node8</title>
<g id="a_node9"><a xlink:href="class_ogre_1_1_render_texture.html" target="_top" xlink:title="This class represents a RenderTarget that renders to a Texture. ">
<polygon fill="none" stroke="black" points="270,-145 270,-164 378,-164 378,-145 270,-145"/>
<text text-anchor="middle" x="324" y="-152" font-family="Helvetica,sans-Serif" font-size="10.00">Ogre::RenderTexture</text>
</a>
</g>
</g>
<!-- Node0&#45;&gt;Node8 -->
<g id="edge8" class="edge"><title>Node0&#45;&gt;Node8</title>
<path fill="none" stroke="midnightblue" d="M236.338,-154.5C247.467,-154.5 259.002,-154.5 269.884,-154.5"/>
<polygon fill="midnightblue" stroke="midnightblue" points="236.261,-151 226.261,-154.5 236.261,-158 236.261,-151"/>
</g>
<!-- Node17 -->
<g id="node18" class="node"><title>Node17</title>
<g id="a_node18"><a xlink:href="class_ogre_1_1_render_window.html" target="_top" xlink:title="Manages the target rendering window. ">
<polygon fill="none" stroke="black" points="269,-47 269,-66 379,-66 379,-47 269,-47"/>
<text text-anchor="middle" x="324" y="-54" font-family="Helvetica,sans-Serif" font-size="10.00">Ogre::RenderWindow</text>
</a>
</g>
</g>
<!-- Node0&#45;&gt;Node17 -->
<g id="edge17" class="edge"><title>Node0&#45;&gt;Node17</title>
<path fill="none" stroke="midnightblue" d="M198.262,-139.377C228.894,-119.025 282.512,-83.4006 308.312,-66.2591"/>
<polygon fill="midnightblue" stroke="midnightblue" points="196.304,-136.476 189.911,-144.925 200.178,-142.306 196.304,-136.476"/>
</g>
<!-- Node1 -->
<g id="node2" class="node"><title>Node1</title>
<g id="a_node2"><a xlink:href="class_ogre_1_1_allocated_object.html" target="_top" xlink:title="RenderSysAlloc">
<polygon fill="none" stroke="black" points="0,-145 0,-164 87,-164 87,-145 0,-145"/>
<text text-anchor="middle" x="43.5" y="-152" font-family="Helvetica,sans-Serif" font-size="10.00">RenderSysAlloc</text>
</a>
</g>
</g>
<!-- Node1&#45;&gt;Node0 -->
<g id="edge1" class="edge"><title>Node1&#45;&gt;Node0</title>
<path fill="none" stroke="midnightblue" d="M97.2458,-154.5C105.713,-154.5 114.461,-154.5 122.877,-154.5"/>
<polygon fill="midnightblue" stroke="midnightblue" points="97.097,-151 87.0969,-154.5 97.0969,-158 97.097,-151"/>
</g>
<!-- Node3 -->
<g id="node4" class="node"><title>Node3</title>
<g id="a_node4"><a xlink:href="class_ogre_1_1_d3_d11_multi_render_target.html" target="_top" xlink:title="Ogre::D3D11MultiRenderTarget">
<polygon fill="none" stroke="black" points="426.5,-396 426.5,-415 581.5,-415 581.5,-396 426.5,-396"/>
<text text-anchor="middle" x="504" y="-403" font-family="Helvetica,sans-Serif" font-size="10.00">Ogre::D3D11MultiRenderTarget</text>
</a>
</g>
</g>
<!-- Node2&#45;&gt;Node3 -->
<g id="edge3" class="edge"><title>Node2&#45;&gt;Node3</title>
<path fill="none" stroke="midnightblue" d="M339.245,-315.936C356.65,-336.053 388.005,-368.646 422,-386.5 429.417,-390.395 437.631,-393.501 445.9,-395.975"/>
<polygon fill="midnightblue" stroke="midnightblue" points="341.801,-313.538 332.673,-308.158 336.454,-318.056 341.801,-313.538"/>
</g>
<!-- Node4 -->
<g id="node5" class="node"><title>Node4</title>
<g id="a_node5"><a xlink:href="class_ogre_1_1_d3_d9_multi_render_target.html" target="_top" xlink:title="Ogre::D3D9MultiRenderTarget">
<polygon fill="none" stroke="black" points="429.5,-358 429.5,-377 578.5,-377 578.5,-358 429.5,-358"/>
<text text-anchor="middle" x="504" y="-365" font-family="Helvetica,sans-Serif" font-size="10.00">Ogre::D3D9MultiRenderTarget</text>
</a>
</g>
</g>
<!-- Node2&#45;&gt;Node4 -->
<g id="edge4" class="edge"><title>Node2&#45;&gt;Node4</title>
<path fill="none" stroke="midnightblue" d="M349.264,-313.136C368.439,-324.172 396.182,-338.983 422,-348.5 432.029,-352.197 443.028,-355.344 453.598,-357.951"/>
<polygon fill="midnightblue" stroke="midnightblue" points="350.984,-310.088 340.585,-308.062 347.451,-316.131 350.984,-310.088"/>
</g>
<!-- Node5 -->
<g id="node6" class="node"><title>Node5</title>
<g id="a_node6"><a xlink:href="class_ogre_1_1_g_l3_plus_f_b_o_multi_render_target.html" target="_top" xlink:title="MultiRenderTarget for OpenGL. ">
<polygon fill="none" stroke="black" points="427,-308.5 427,-338.5 581,-338.5 581,-308.5 427,-308.5"/>
<text text-anchor="start" x="435" y="-326.5" font-family="Helvetica,sans-Serif" font-size="10.00">Ogre::GL3PlusFBOMultiRender</text>
<text text-anchor="middle" x="504" y="-315.5" font-family="Helvetica,sans-Serif" font-size="10.00">Target</text>
</a>
</g>
</g>
<!-- Node2&#45;&gt;Node5 -->
<g id="edge5" class="edge"><title>Node2&#45;&gt;Node5</title>
<path fill="none" stroke="midnightblue" d="M396.209,-308.501C406.286,-309.917 416.68,-311.376 426.846,-312.804"/>
<polygon fill="midnightblue" stroke="midnightblue" points="396.647,-305.029 386.258,-307.104 395.673,-311.96 396.647,-305.029"/>
</g>
<!-- Node6 -->
<g id="node7" class="node"><title>Node6</title>
<g id="a_node7"><a xlink:href="class_ogre_1_1_g_l_e_s2_f_b_o_multi_render_target.html" target="_top" xlink:title="MultiRenderTarget for GL ES 2.x. ">
<polygon fill="none" stroke="black" points="430,-259.5 430,-289.5 578,-289.5 578,-259.5 430,-259.5"/>
<text text-anchor="start" x="438" y="-277.5" font-family="Helvetica,sans-Serif" font-size="10.00">Ogre::GLES2FBOMultiRender</text>
<text text-anchor="middle" x="504" y="-266.5" font-family="Helvetica,sans-Serif" font-size="10.00">Target</text>
</a>
</g>
</g>
<!-- Node2&#45;&gt;Node6 -->
<g id="edge6" class="edge"><title>Node2&#45;&gt;Node6</title>
<path fill="none" stroke="midnightblue" d="M396.306,-288.886C407.386,-287.392 418.848,-285.846 429.967,-284.347"/>
<polygon fill="midnightblue" stroke="midnightblue" points="395.7,-285.436 386.258,-290.241 396.636,-292.373 395.7,-285.436"/>
</g>
<!-- Node7 -->
<g id="node8" class="node"><title>Node7</title>
<g id="a_node8"><a xlink:href="class_ogre_1_1_g_l_f_b_o_multi_render_target.html" target="_top" xlink:title="MultiRenderTarget for GL. ">
<polygon fill="none" stroke="black" points="425.5,-221 425.5,-240 582.5,-240 582.5,-221 425.5,-221"/>
<text text-anchor="middle" x="504" y="-228" font-family="Helvetica,sans-Serif" font-size="10.00">Ogre::GLFBOMultiRenderTarget</text>
</a>
</g>
</g>
<!-- Node2&#45;&gt;Node7 -->
<g id="edge7" class="edge"><title>Node2&#45;&gt;Node7</title>
<path fill="none" stroke="midnightblue" d="M350.665,-283.878C369.837,-273.436 396.943,-259.669 422,-250.5 433.154,-246.418 445.473,-242.9 457.067,-240.002"/>
<polygon fill="midnightblue" stroke="midnightblue" points="348.734,-280.946 341.676,-288.848 352.121,-287.073 348.734,-280.946"/>
</g>
<!-- Node9 -->
<g id="node10" class="node"><title>Node9</title>
<g id="a_node10"><a xlink:href="class_ogre_1_1_d3_d11_render_texture.html" target="_top" xlink:title="RenderTexture implementation for D3D11. ">
<polygon fill="none" stroke="black" points="434.5,-183 434.5,-202 573.5,-202 573.5,-183 434.5,-183"/>
<text text-anchor="middle" x="504" y="-190" font-family="Helvetica,sans-Serif" font-size="10.00">Ogre::D3D11RenderTexture</text>
</a>
</g>
</g>
<!-- Node8&#45;&gt;Node9 -->
<g id="edge9" class="edge"><title>Node8&#45;&gt;Node9</title>
<path fill="none" stroke="midnightblue" d="M379.716,-166.181C404.959,-171.57 434.545,-177.886 458.406,-182.98"/>
<polygon fill="midnightblue" stroke="midnightblue" points="380.427,-162.754 369.917,-164.089 378.966,-169.6 380.427,-162.754"/>
</g>
<!-- Node10 -->
<g id="node11" class="node"><title>Node10</title>
<g id="a_node11"><a xlink:href="class_ogre_1_1_d3_d9_render_texture.html" target="_top" xlink:title="RenderTexture implementation for D3D9. ">
<polygon fill="none" stroke="black" points="437,-145 437,-164 571,-164 571,-145 437,-145"/>
<text text-anchor="middle" x="504" y="-152" font-family="Helvetica,sans-Serif" font-size="10.00">Ogre::D3D9RenderTexture</text>
</a>
</g>
</g>
<!-- Node8&#45;&gt;Node10 -->
<g id="edge10" class="edge"><title>Node8&#45;&gt;Node10</title>
<path fill="none" stroke="midnightblue" d="M388.498,-154.5C404.142,-154.5 420.933,-154.5 436.706,-154.5"/>
<polygon fill="midnightblue" stroke="midnightblue" points="388.406,-151 378.406,-154.5 388.406,-158 388.406,-151"/>
</g>
<!-- Node11 -->
<g id="node12" class="node"><title>Node11</title>
<g id="a_node12"><a xlink:href="class_ogre_1_1_g_l_render_texture.html" target="_top" xlink:title="Base class for GL Render Textures. ">
<polygon fill="none" stroke="black" points="443.5,-107 443.5,-126 564.5,-126 564.5,-107 443.5,-107"/>
<text text-anchor="middle" x="504" y="-114" font-family="Helvetica,sans-Serif" font-size="10.00">Ogre::GLRenderTexture</text>
</a>
</g>
</g>
<!-- Node8&#45;&gt;Node11 -->
<g id="edge11" class="edge"><title>Node8&#45;&gt;Node11</title>
<path fill="none" stroke="midnightblue" d="M379.716,-142.819C404.959,-137.43 434.545,-131.114 458.406,-126.02"/>
<polygon fill="midnightblue" stroke="midnightblue" points="378.966,-139.4 369.917,-144.911 380.427,-146.246 378.966,-139.4"/>
</g>
<!-- Node12 -->
<g id="node13" class="node"><title>Node12</title>
<g id="a_node13"><a xlink:href="class_ogre_1_1_g_l3_plus_f_b_o_render_texture.html" target="_top" xlink:title="RenderTexture for GL FBO. ">
<polygon fill="none" stroke="black" points="622,-202 622,-221 788,-221 788,-202 622,-202"/>
<text text-anchor="middle" x="705" y="-209" font-family="Helvetica,sans-Serif" font-size="10.00">Ogre::GL3PlusFBORenderTexture</text>
</a>
</g>
</g>
<!-- Node11&#45;&gt;Node12 -->
<g id="edge12" class="edge"><title>Node11&#45;&gt;Node12</title>
<path fill="none" stroke="midnightblue" d="M574.185,-128.67C578.346,-130.623 582.327,-132.884 586,-135.5 610.405,-152.884 597.572,-175.149 622,-192.5 627.48,-196.393 633.639,-199.5 640.055,-201.978"/>
<polygon fill="midnightblue" stroke="midnightblue" points="575.424,-125.396 564.842,-124.868 572.785,-131.879 575.424,-125.396"/>
</g>
<!-- Node13 -->
<g id="node14" class="node"><title>Node13</title>
<g id="a_node14"><a xlink:href="class_ogre_1_1_g_l_copying_render_texture.html" target="_top" xlink:title="Ogre::GLCopyingRenderTexture">
<polygon fill="none" stroke="black" points="626.5,-164 626.5,-183 783.5,-183 783.5,-164 626.5,-164"/>
<text text-anchor="middle" x="705" y="-171" font-family="Helvetica,sans-Serif" font-size="10.00">Ogre::GLCopyingRenderTexture</text>
</a>
</g>
</g>
<!-- Node11&#45;&gt;Node13 -->
<g id="edge13" class="edge"><title>Node11&#45;&gt;Node13</title>
<path fill="none" stroke="midnightblue" d="M564.716,-128.67C571.97,-130.685 579.21,-132.96 586,-135.5 602.945,-141.84 605.047,-148.183 622,-154.5 631.996,-158.225 642.959,-161.37 653.525,-163.964"/>
<polygon fill="midnightblue" stroke="midnightblue" points="565.419,-125.236 554.858,-126.082 563.641,-132.007 565.419,-125.236"/>
</g>
<!-- Node14 -->
<g id="node15" class="node"><title>Node14</title>
<g id="a_node15"><a xlink:href="class_ogre_1_1_g_l_e_s2_f_b_o_render_texture.html" target="_top" xlink:title="RenderTexture for GL ES 2 FBO. ">
<polygon fill="none" stroke="black" points="625,-126 625,-145 785,-145 785,-126 625,-126"/>
<text text-anchor="middle" x="705" y="-133" font-family="Helvetica,sans-Serif" font-size="10.00">Ogre::GLES2FBORenderTexture</text>
</a>
</g>
</g>
<!-- Node11&#45;&gt;Node14 -->
<g id="edge14" class="edge"><title>Node11&#45;&gt;Node14</title>
<path fill="none" stroke="midnightblue" d="M575.091,-123.192C591.172,-124.727 608.378,-126.37 624.812,-127.939"/>
<polygon fill="midnightblue" stroke="midnightblue" points="574.994,-119.667 564.707,-122.201 574.329,-126.635 574.994,-119.667"/>
</g>
<!-- Node15 -->
<g id="node16" class="node"><title>Node15</title>
<g id="a_node16"><a xlink:href="class_ogre_1_1_g_l_f_b_o_render_texture.html" target="_top" xlink:title="RenderTexture for GL FBO. ">
<polygon fill="none" stroke="black" points="634.5,-88 634.5,-107 775.5,-107 775.5,-88 634.5,-88"/>
<text text-anchor="middle" x="705" y="-95" font-family="Helvetica,sans-Serif" font-size="10.00">Ogre::GLFBORenderTexture</text>
</a>
</g>
</g>
<!-- Node11&#45;&gt;Node15 -->
<g id="edge15" class="edge"><title>Node11&#45;&gt;Node15</title>
<path fill="none" stroke="midnightblue" d="M574.895,-109.827C594.119,-107.991 614.964,-106.001 634.183,-104.166"/>
<polygon fill="midnightblue" stroke="midnightblue" points="574.329,-106.365 564.707,-110.799 574.994,-113.333 574.329,-106.365"/>
</g>
<!-- Node16 -->
<g id="node17" class="node"><title>Node16</title>
<g id="a_node17"><a xlink:href="class_ogre_1_1_g_l_p_b_render_texture.html" target="_top" xlink:title="Ogre::GLPBRenderTexture">
<polygon fill="none" stroke="black" points="638,-50 638,-69 772,-69 772,-50 638,-50"/>
<text text-anchor="middle" x="705" y="-57" font-family="Helvetica,sans-Serif" font-size="10.00">Ogre::GLPBRenderTexture</text>
</a>
</g>
</g>
<!-- Node11&#45;&gt;Node16 -->
<g id="edge16" class="edge"><title>Node11&#45;&gt;Node16</title>
<path fill="none" stroke="midnightblue" d="M541.882,-103.617C564.792,-95.8408 594.932,-86.0164 622,-78.5 634.109,-75.1374 647.337,-71.8898 659.564,-69.0595"/>
<polygon fill="midnightblue" stroke="midnightblue" points="540.55,-100.374 532.22,-106.921 542.814,-106.997 540.55,-100.374"/>
</g>
<!-- Node18 -->
<g id="node19" class="node"><title>Node18</title>
<g id="a_node19"><a xlink:href="class_ogre_1_1_d3_d11_render_window_base.html" target="_top" xlink:title="Ogre::D3D11RenderWindowBase">
<polygon fill="none" stroke="black" points="422,-47 422,-66 586,-66 586,-47 422,-47"/>
<text text-anchor="middle" x="504" y="-54" font-family="Helvetica,sans-Serif" font-size="10.00">Ogre::D3D11RenderWindowBase</text>
</a>
</g>
</g>
<!-- Node17&#45;&gt;Node18 -->
<g id="edge18" class="edge"><title>Node17&#45;&gt;Node18</title>
<path fill="none" stroke="midnightblue" d="M389.627,-56.5C400.066,-56.5 410.99,-56.5 421.761,-56.5"/>
<polygon fill="midnightblue" stroke="midnightblue" points="389.373,-53.0001 379.373,-56.5 389.373,-60.0001 389.373,-53.0001"/>
</g>
<!-- Node20 -->
<g id="node21" class="node"><title>Node20</title>
<g id="a_node21"><a xlink:href="class_ogre_1_1_d3_d9_render_window.html" target="_top" xlink:title="Ogre::D3D9RenderWindow">
<polygon fill="none" stroke="black" points="436,-9 436,-28 572,-28 572,-9 436,-9"/>
<text text-anchor="middle" x="504" y="-16" font-family="Helvetica,sans-Serif" font-size="10.00">Ogre::D3D9RenderWindow</text>
</a>
</g>
</g>
<!-- Node17&#45;&gt;Node20 -->
<g id="edge20" class="edge"><title>Node17&#45;&gt;Node20</title>
<path fill="none" stroke="midnightblue" d="M379.716,-44.819C404.959,-39.4301 434.545,-33.1139 458.406,-28.0201"/>
<polygon fill="midnightblue" stroke="midnightblue" points="378.966,-41.4003 369.917,-46.911 380.427,-48.246 378.966,-41.4003"/>
</g>
<!-- Node19 -->
<g id="node20" class="node"><title>Node19</title>
<g id="a_node20"><a xlink:href="class_ogre_1_1_d3_d11_render_window_swap_chain_based.html" target="_top" xlink:title="Ogre::D3D11RenderWindowSwap\lChainBased">
<polygon fill="none" stroke="black" points="622,-0.5 622,-30.5 788,-30.5 788,-0.5 622,-0.5"/>
<text text-anchor="start" x="630" y="-18.5" font-family="Helvetica,sans-Serif" font-size="10.00">Ogre::D3D11RenderWindowSwap</text>
<text text-anchor="middle" x="705" y="-7.5" font-family="Helvetica,sans-Serif" font-size="10.00">ChainBased</text>
</a>
</g>
</g>
<!-- Node18&#45;&gt;Node19 -->
<g id="edge19" class="edge"><title>Node18&#45;&gt;Node19</title>
<path fill="none" stroke="midnightblue" d="M561.155,-44.9305C582.785,-40.4739 607.813,-35.3175 630.818,-30.5777"/>
<polygon fill="midnightblue" stroke="midnightblue" points="560.243,-41.5447 551.155,-46.9907 561.655,-48.4007 560.243,-41.5447"/>
</g>
</g>
</svg>
