<?xml version="1.0" encoding="UTF-8" standalone="no"?>
<!DOCTYPE svg PUBLIC "-//W3C//DTD SVG 1.1//EN"
 "http://www.w3.org/Graphics/SVG/1.1/DTD/svg11.dtd">
<!-- Generated by graphviz version 2.38.0 (20140413.2041)
 -->
<!-- Title: Ogre::ScriptTranslatorManager Pages: 1 -->
<svg width="324pt" height="151pt"
 viewBox="0.00 0.00 324.00 151.00" xmlns="http://www.w3.org/2000/svg" xmlns:xlink="http://www.w3.org/1999/xlink">
<g id="graph0" class="graph" transform="scale(1 1) rotate(0) translate(4 147)">
<title>Ogre::ScriptTranslatorManager</title>
<!-- Node0 -->
<g id="node1" class="node"><title>Node0</title>
<polygon fill="#bfbfbf" stroke="black" points="78,-67.5 78,-86.5 228,-86.5 228,-67.5 78,-67.5"/>
<text text-anchor="middle" x="153" y="-74.5" font-family="Helvetica,sans-Serif" font-size="10.00">Ogre::ScriptTranslatorManager</text>
</g>
<!-- Node2 -->
<g id="node3" class="node"><title>Node2</title>
<g id="a_node3"><a xlink:href="class_ogre_1_1_builtin_script_translator_manager.html" target="_top" xlink:title="This class manages the builtin translators. ">
<polygon fill="none" stroke="black" points="0,-0.5 0,-30.5 140,-30.5 140,-0.5 0,-0.5"/>
<text text-anchor="start" x="8" y="-18.5" font-family="Helvetica,sans-Serif" font-size="10.00">Ogre::BuiltinScriptTranslator</text>
<text text-anchor="middle" x="70" y="-7.5" font-family="Helvetica,sans-Serif" font-size="10.00">Manager</text>
</a>
</g>
</g>
<!-- Node0&#45;&gt;Node2 -->
<g id="edge2" class="edge"><title>Node0&#45;&gt;Node2</title>
<path fill="none" stroke="midnightblue" d="M132.728,-61.468C119.587,-52.0474 102.559,-39.8408 89.5615,-30.523"/>
<polygon fill="midnightblue" stroke="midnightblue" points="130.941,-64.4934 141.108,-67.4751 135.02,-58.8042 130.941,-64.4934"/>
</g>
<!-- Node3 -->
<g id="node4" class="node"><title>Node3</title>
<g id="a_node4"><a xlink:href="class_ogre_1_1_overlay_translator_manager.html" target="_top" xlink:title="[font_translator] ">
<polygon fill="none" stroke="black" points="158,-6 158,-25 316,-25 316,-6 158,-6"/>
<text text-anchor="middle" x="237" y="-13" font-family="Helvetica,sans-Serif" font-size="10.00">Ogre::OverlayTranslatorManager</text>
</a>
</g>
</g>
<!-- Node0&#45;&gt;Node3 -->
<g id="edge3" class="edge"><title>Node0&#45;&gt;Node3</title>
<path fill="none" stroke="midnightblue" d="M173.311,-61.6127C189.467,-50.1691 211.523,-34.546 224.987,-25.0091"/>
<polygon fill="midnightblue" stroke="midnightblue" points="171.172,-58.8388 165.035,-67.4751 175.218,-64.551 171.172,-58.8388"/>
</g>
<!-- Node1 -->
<g id="node2" class="node"><title>Node1</title>
<g id="a_node2"><a xlink:href="class_ogre_1_1_allocated_object.html" target="_top" xlink:title="ScriptTranslatorAlloc">
<polygon fill="none" stroke="black" points="99.5,-123.5 99.5,-142.5 206.5,-142.5 206.5,-123.5 99.5,-123.5"/>
<text text-anchor="middle" x="153" y="-130.5" font-family="Helvetica,sans-Serif" font-size="10.00">ScriptTranslatorAlloc</text>
</a>
</g>
</g>
<!-- Node1&#45;&gt;Node0 -->
<g id="edge1" class="edge"><title>Node1&#45;&gt;Node0</title>
<path fill="none" stroke="midnightblue" d="M153,-112.805C153,-103.91 153,-93.7798 153,-86.7511"/>
<polygon fill="midnightblue" stroke="midnightblue" points="149.5,-113.083 153,-123.083 156.5,-113.083 149.5,-113.083"/>
</g>
</g>
</svg>
