<?xml version="1.0" encoding="UTF-8" standalone="no"?>
<!DOCTYPE svg PUBLIC "-//W3C//DTD SVG 1.1//EN"
 "http://www.w3.org/Graphics/SVG/1.1/DTD/svg11.dtd">
<!-- Generated by graphviz version 2.38.0 (20140413.2041)
 -->
<!-- Title: Ogre::Renderable Pages: 1 -->
<svg width="828pt" height="475pt"
 viewBox="0.00 0.00 828.00 475.00" xmlns="http://www.w3.org/2000/svg" xmlns:xlink="http://www.w3.org/1999/xlink">
<g id="graph0" class="graph" transform="scale(1 1) rotate(0) translate(4 471)">
<title>Ogre::Renderable</title>
<!-- Node0 -->
<g id="node1" class="node"><title>Node0</title>
<polygon fill="#bfbfbf" stroke="black" points="0,-229.5 0,-248.5 93,-248.5 93,-229.5 0,-229.5"/>
<text text-anchor="middle" x="46.5" y="-236.5" font-family="Helvetica,sans-Serif" font-size="10.00">Ogre::Renderable</text>
</g>
<!-- Node1 -->
<g id="node2" class="node"><title>Node1</title>
<g id="a_node2"><a xlink:href="class_ogre_1_1_billboard_chain.html" target="_top" xlink:title="Allows the rendering of a chain of connected billboards. ">
<polygon fill="none" stroke="black" points="151,-447.5 151,-466.5 258,-466.5 258,-447.5 151,-447.5"/>
<text text-anchor="middle" x="204.5" y="-454.5" font-family="Helvetica,sans-Serif" font-size="10.00">Ogre::BillboardChain</text>
</a>
</g>
</g>
<!-- Node0&#45;&gt;Node1 -->
<g id="edge1" class="edge"><title>Node0&#45;&gt;Node1</title>
<path fill="none" stroke="midnightblue" d="M49.725,-258.693C55.3269,-298.742 73.7606,-389.951 129,-438 135.244,-443.431 142.834,-447.346 150.75,-450.161"/>
<polygon fill="midnightblue" stroke="midnightblue" points="53.1781,-258.102 48.4416,-248.624 46.2342,-258.987 53.1781,-258.102"/>
</g>
<!-- Node3 -->
<g id="node4" class="node"><title>Node3</title>
<g id="a_node4"><a xlink:href="class_ogre_1_1_billboard_set.html" target="_top" xlink:title="A collection of billboards (faces which are always facing the given direction) with the same (default...">
<polygon fill="none" stroke="black" points="156.5,-409.5 156.5,-428.5 252.5,-428.5 252.5,-409.5 156.5,-409.5"/>
<text text-anchor="middle" x="204.5" y="-416.5" font-family="Helvetica,sans-Serif" font-size="10.00">Ogre::BillboardSet</text>
</a>
</g>
</g>
<!-- Node0&#45;&gt;Node3 -->
<g id="edge3" class="edge"><title>Node0&#45;&gt;Node3</title>
<path fill="none" stroke="midnightblue" d="M51.8782,-258.877C60.4773,-293.098 82.8889,-363.019 129,-400 136.81,-406.263 146.438,-410.487 156.149,-413.33"/>
<polygon fill="midnightblue" stroke="midnightblue" points="55.1878,-257.664 49.4773,-248.74 48.3762,-259.277 55.1878,-257.664"/>
</g>
<!-- Node4 -->
<g id="node5" class="node"><title>Node4</title>
<g id="a_node5"><a xlink:href="class_ogre_1_1_border_renderable.html" target="_top" xlink:title="Class for rendering the border of a BorderPanelOverlayElement. ">
<polygon fill="none" stroke="black" points="143.5,-371.5 143.5,-390.5 265.5,-390.5 265.5,-371.5 143.5,-371.5"/>
<text text-anchor="middle" x="204.5" y="-378.5" font-family="Helvetica,sans-Serif" font-size="10.00">Ogre::BorderRenderable</text>
</a>
</g>
</g>
<!-- Node0&#45;&gt;Node4 -->
<g id="edge4" class="edge"><title>Node0&#45;&gt;Node4</title>
<path fill="none" stroke="midnightblue" d="M54.9976,-258.385C66.6081,-285.773 91.5746,-335.414 129,-362 134.441,-365.865 140.598,-368.945 146.985,-371.4"/>
<polygon fill="midnightblue" stroke="midnightblue" points="58.0926,-256.705 51.0821,-248.761 51.6086,-259.342 58.0926,-256.705"/>
</g>
<!-- Node5 -->
<g id="node6" class="node"><title>Node5</title>
<g id="a_node6"><a xlink:href="class_ogre_1_1_frustum.html" target="_top" xlink:title="A frustum represents a pyramid, capped at the near and far end which is used to represent either a vi...">
<polygon fill="none" stroke="black" points="164.5,-333.5 164.5,-352.5 244.5,-352.5 244.5,-333.5 164.5,-333.5"/>
<text text-anchor="middle" x="204.5" y="-340.5" font-family="Helvetica,sans-Serif" font-size="10.00">Ogre::Frustum</text>
</a>
</g>
</g>
<!-- Node0&#45;&gt;Node5 -->
<g id="edge5" class="edge"><title>Node0&#45;&gt;Node5</title>
<path fill="none" stroke="midnightblue" d="M59.832,-256.878C74.1967,-276.329 99.7294,-306.926 129,-324 139.723,-330.255 152.487,-334.473 164.394,-337.308"/>
<polygon fill="midnightblue" stroke="midnightblue" points="62.5486,-254.66 53.877,-248.573 56.8599,-258.739 62.5486,-254.66"/>
</g>
<!-- Node9 -->
<g id="node10" class="node"><title>Node9</title>
<g id="a_node10"><a xlink:href="class_ogre_1_1_instance_batch.html" target="_top" xlink:title="InstanceBatch forms part of the new Instancing system This is an abstract class that must be derived ...">
<polygon fill="none" stroke="black" points="151,-295.5 151,-314.5 258,-314.5 258,-295.5 151,-295.5"/>
<text text-anchor="middle" x="204.5" y="-302.5" font-family="Helvetica,sans-Serif" font-size="10.00">Ogre::InstanceBatch</text>
</a>
</g>
</g>
<!-- Node0&#45;&gt;Node9 -->
<g id="edge9" class="edge"><title>Node0&#45;&gt;Node9</title>
<path fill="none" stroke="midnightblue" d="M69.9127,-254.168C85.8251,-264.367 108.006,-277.458 129,-286 138.149,-289.722 148.234,-292.88 157.949,-295.489"/>
<polygon fill="midnightblue" stroke="midnightblue" points="71.6097,-251.096 61.3244,-248.554 67.7794,-256.955 71.6097,-251.096"/>
</g>
<!-- Node15 -->
<g id="node16" class="node"><title>Node15</title>
<g id="a_node16"><a xlink:href="class_ogre_1_1_manual_object_1_1_manual_object_section.html" target="_top" xlink:title="Built, renderable section of geometry. ">
<polygon fill="none" stroke="black" points="146.5,-246 146.5,-276 262.5,-276 262.5,-246 146.5,-246"/>
<text text-anchor="start" x="154.5" y="-264" font-family="Helvetica,sans-Serif" font-size="10.00">Ogre::ManualObject</text>
<text text-anchor="middle" x="204.5" y="-253" font-family="Helvetica,sans-Serif" font-size="10.00">::ManualObjectSection</text>
</a>
</g>
</g>
<!-- Node0&#45;&gt;Node15 -->
<g id="edge15" class="edge"><title>Node0&#45;&gt;Node15</title>
<path fill="none" stroke="midnightblue" d="M103.035,-246.832C117.057,-248.809 132.138,-250.936 146.243,-252.925"/>
<polygon fill="midnightblue" stroke="midnightblue" points="103.432,-243.353 93.041,-245.422 102.454,-250.285 103.432,-243.353"/>
</g>
<!-- Node16 -->
<g id="node17" class="node"><title>Node16</title>
<g id="a_node17"><a xlink:href="class_ogre_1_1_node_1_1_debug_renderable.html" target="_top" xlink:title="Inner class for displaying debug renderable for Node. ">
<polygon fill="none" stroke="black" points="129,-207.5 129,-226.5 280,-226.5 280,-207.5 129,-207.5"/>
<text text-anchor="middle" x="204.5" y="-214.5" font-family="Helvetica,sans-Serif" font-size="10.00">Ogre::Node::DebugRenderable</text>
</a>
</g>
</g>
<!-- Node0&#45;&gt;Node16 -->
<g id="edge16" class="edge"><title>Node0&#45;&gt;Node16</title>
<path fill="none" stroke="midnightblue" d="M103.022,-231.17C113.657,-229.67 124.901,-228.084 135.867,-226.538"/>
<polygon fill="midnightblue" stroke="midnightblue" points="102.454,-227.715 93.041,-232.578 103.432,-234.647 102.454,-227.715"/>
</g>
<!-- Node17 -->
<g id="node18" class="node"><title>Node17</title>
<g id="a_node18"><a xlink:href="class_ogre_1_1_overlay_element.html" target="_top" xlink:title="Abstract definition of a 2D element to be displayed in an Overlay. ">
<polygon fill="none" stroke="black" points="148,-169.5 148,-188.5 261,-188.5 261,-169.5 148,-169.5"/>
<text text-anchor="middle" x="204.5" y="-176.5" font-family="Helvetica,sans-Serif" font-size="10.00">Ogre::OverlayElement</text>
</a>
</g>
</g>
<!-- Node0&#45;&gt;Node17 -->
<g id="edge17" class="edge"><title>Node0&#45;&gt;Node17</title>
<path fill="none" stroke="midnightblue" d="M72.9737,-224.389C88.7299,-215.809 109.589,-205.26 129,-198 138.627,-194.399 149.202,-191.246 159.285,-188.596"/>
<polygon fill="midnightblue" stroke="midnightblue" points="70.9303,-221.52 63.8812,-229.429 74.3242,-227.642 70.9303,-221.52"/>
</g>
<!-- Node22 -->
<g id="node23" class="node"><title>Node22</title>
<g id="a_node23"><a xlink:href="class_ogre_1_1_shadow_renderable.html" target="_top" xlink:title="Class which represents the renderable aspects of a set of shadow volume faces. ">
<polygon fill="none" stroke="black" points="140.5,-131.5 140.5,-150.5 268.5,-150.5 268.5,-131.5 140.5,-131.5"/>
<text text-anchor="middle" x="204.5" y="-138.5" font-family="Helvetica,sans-Serif" font-size="10.00">Ogre::ShadowRenderable</text>
</a>
</g>
</g>
<!-- Node0&#45;&gt;Node22 -->
<g id="edge22" class="edge"><title>Node0&#45;&gt;Node22</title>
<path fill="none" stroke="midnightblue" d="M61.0097,-221.31C75.7689,-203.219 101.063,-175.618 129,-160 135.874,-156.157 143.537,-153.076 151.259,-150.61"/>
<polygon fill="midnightblue" stroke="midnightblue" points="58.118,-219.324 54.6452,-229.333 63.602,-223.674 58.118,-219.324"/>
</g>
<!-- Node24 -->
<g id="node25" class="node"><title>Node24</title>
<g id="a_node25"><a xlink:href="class_ogre_1_1_simple_renderable.html" target="_top" xlink:title="Simple implementation of MovableObject and Renderable for single&#45;part custom objects. ">
<polygon fill="none" stroke="black" points="143,-88.5 143,-107.5 266,-107.5 266,-88.5 143,-88.5"/>
<text text-anchor="middle" x="204.5" y="-95.5" font-family="Helvetica,sans-Serif" font-size="10.00">Ogre::SimpleRenderable</text>
</a>
</g>
</g>
<!-- Node0&#45;&gt;Node24 -->
<g id="edge24" class="edge"><title>Node0&#45;&gt;Node24</title>
<path fill="none" stroke="midnightblue" d="M55.8377,-220.091C68.1724,-194.247 93.6886,-148.127 129,-122 137.52,-115.696 147.765,-111.005 157.892,-107.53"/>
<polygon fill="midnightblue" stroke="midnightblue" points="52.6387,-218.671 51.6304,-229.217 58.9957,-221.601 52.6387,-218.671"/>
</g>
<!-- Node28 -->
<g id="node29" class="node"><title>Node28</title>
<g id="a_node29"><a xlink:href="class_ogre_1_1_static_geometry_1_1_geometry_bucket.html" target="_top" xlink:title="A GeometryBucket is a the lowest level bucket where geometry with the same vertex &amp; index format is s...">
<polygon fill="none" stroke="black" points="148.5,-39 148.5,-69 260.5,-69 260.5,-39 148.5,-39"/>
<text text-anchor="start" x="156.5" y="-57" font-family="Helvetica,sans-Serif" font-size="10.00">Ogre::StaticGeometry</text>
<text text-anchor="middle" x="204.5" y="-46" font-family="Helvetica,sans-Serif" font-size="10.00">::GeometryBucket</text>
</a>
</g>
</g>
<!-- Node0&#45;&gt;Node28 -->
<g id="edge28" class="edge"><title>Node0&#45;&gt;Node28</title>
<path fill="none" stroke="midnightblue" d="M52.3356,-219.111C61.5258,-185.46 84.6741,-117.232 129,-79 134.682,-74.0991 141.361,-70.1502 148.347,-66.9703"/>
<polygon fill="midnightblue" stroke="midnightblue" points="48.8665,-218.546 49.7437,-229.104 55.6423,-220.303 48.8665,-218.546"/>
</g>
<!-- Node29 -->
<g id="node30" class="node"><title>Node29</title>
<g id="a_node30"><a xlink:href="class_ogre_1_1_sub_entity.html" target="_top" xlink:title="Utility class which defines the sub&#45;parts of an Entity. ">
<polygon fill="none" stroke="black" points="161.5,-0.5 161.5,-19.5 247.5,-19.5 247.5,-0.5 161.5,-0.5"/>
<text text-anchor="middle" x="204.5" y="-7.5" font-family="Helvetica,sans-Serif" font-size="10.00">Ogre::SubEntity</text>
</a>
</g>
</g>
<!-- Node0&#45;&gt;Node29 -->
<g id="edge29" class="edge"><title>Node0&#45;&gt;Node29</title>
<path fill="none" stroke="midnightblue" d="M49.2409,-219.366C54.0115,-177.756 71.0902,-80.3211 129,-29 137.991,-21.0322 149.868,-16.3185 161.49,-13.5555"/>
<polygon fill="midnightblue" stroke="midnightblue" points="45.7582,-219.019 48.2171,-229.325 52.7215,-219.735 45.7582,-219.019"/>
</g>
<!-- Node2 -->
<g id="node3" class="node"><title>Node2</title>
<g id="a_node3"><a xlink:href="class_ogre_1_1_ribbon_trail.html" target="_top" xlink:title="Subclass of BillboardChain which automatically leaves a trail behind one or more Node instances...">
<polygon fill="none" stroke="black" points="346,-447.5 346,-466.5 439,-466.5 439,-447.5 346,-447.5"/>
<text text-anchor="middle" x="392.5" y="-454.5" font-family="Helvetica,sans-Serif" font-size="10.00">Ogre::RibbonTrail</text>
</a>
</g>
</g>
<!-- Node1&#45;&gt;Node2 -->
<g id="edge2" class="edge"><title>Node1&#45;&gt;Node2</title>
<path fill="none" stroke="midnightblue" d="M268.565,-457C293.904,-457 322.563,-457 345.832,-457"/>
<polygon fill="midnightblue" stroke="midnightblue" points="268.303,-453.5 258.303,-457 268.303,-460.5 268.303,-453.5"/>
</g>
<!-- Node6 -->
<g id="node7" class="node"><title>Node6</title>
<g id="a_node7"><a xlink:href="class_ogre_1_1_camera.html" target="_top" xlink:title="A viewpoint from which the scene will be rendered. ">
<polygon fill="none" stroke="black" points="353.5,-371.5 353.5,-390.5 431.5,-390.5 431.5,-371.5 353.5,-371.5"/>
<text text-anchor="middle" x="392.5" y="-378.5" font-family="Helvetica,sans-Serif" font-size="10.00">Ogre::Camera</text>
</a>
</g>
</g>
<!-- Node5&#45;&gt;Node6 -->
<g id="edge6" class="edge"><title>Node5&#45;&gt;Node6</title>
<path fill="none" stroke="midnightblue" d="M255.063,-353.126C285.905,-359.427 324.966,-367.407 353.383,-373.213"/>
<polygon fill="midnightblue" stroke="midnightblue" points="255.444,-349.631 244.946,-351.059 254.043,-356.49 255.444,-349.631"/>
</g>
<!-- Node7 -->
<g id="node8" class="node"><title>Node7</title>
<g id="a_node8"><a xlink:href="class_ogre_1_1_octree_camera.html" target="_top" xlink:title="Specialized viewpoint from which an Octree can be rendered. ">
<polygon fill="none" stroke="black" points="525.5,-409.5 525.5,-428.5 632.5,-428.5 632.5,-409.5 525.5,-409.5"/>
<text text-anchor="middle" x="579" y="-416.5" font-family="Helvetica,sans-Serif" font-size="10.00">Ogre::OctreeCamera</text>
</a>
</g>
</g>
<!-- Node6&#45;&gt;Node7 -->
<g id="edge7" class="edge"><title>Node6&#45;&gt;Node7</title>
<path fill="none" stroke="midnightblue" d="M441.622,-390.911C469.404,-396.633 504.172,-403.794 531.649,-409.454"/>
<polygon fill="midnightblue" stroke="midnightblue" points="442.229,-387.463 431.729,-388.874 440.817,-394.319 442.229,-387.463"/>
</g>
<!-- Node8 -->
<g id="node9" class="node"><title>Node8</title>
<g id="a_node9"><a xlink:href="class_ogre_1_1_p_c_z_camera.html" target="_top" xlink:title="Specialized viewpoint from which an PCZone Scene can be rendered. ">
<polygon fill="none" stroke="black" points="530,-371.5 530,-390.5 628,-390.5 628,-371.5 530,-371.5"/>
<text text-anchor="middle" x="579" y="-378.5" font-family="Helvetica,sans-Serif" font-size="10.00">Ogre::PCZCamera</text>
</a>
</g>
</g>
<!-- Node6&#45;&gt;Node8 -->
<g id="edge8" class="edge"><title>Node6&#45;&gt;Node8</title>
<path fill="none" stroke="midnightblue" d="M441.795,-381C468.98,-381 502.813,-381 529.958,-381"/>
<polygon fill="midnightblue" stroke="midnightblue" points="441.729,-377.5 431.729,-381 441.728,-384.5 441.729,-377.5"/>
</g>
<!-- Node10 -->
<g id="node11" class="node"><title>Node10</title>
<g id="a_node11"><a xlink:href="class_ogre_1_1_base_instance_batch_v_t_f.html" target="_top" xlink:title="Instancing implementation using vertex texture through Vertex Texture Fetch (VTF) This implementation...">
<polygon fill="none" stroke="black" points="318.5,-333.5 318.5,-352.5 466.5,-352.5 466.5,-333.5 318.5,-333.5"/>
<text text-anchor="middle" x="392.5" y="-340.5" font-family="Helvetica,sans-Serif" font-size="10.00">Ogre::BaseInstanceBatchVTF</text>
</a>
</g>
</g>
<!-- Node9&#45;&gt;Node10 -->
<g id="edge10" class="edge"><title>Node9&#45;&gt;Node10</title>
<path fill="none" stroke="midnightblue" d="M262.325,-316.61C288.779,-322.014 319.858,-328.364 344.902,-333.48"/>
<polygon fill="midnightblue" stroke="midnightblue" points="262.934,-313.162 252.436,-314.589 261.533,-320.02 262.934,-313.162"/>
</g>
<!-- Node13 -->
<g id="node14" class="node"><title>Node13</title>
<g id="a_node14"><a xlink:href="class_ogre_1_1_instance_batch_h_w.html" target="_top" xlink:title="This is technique requires true instancing hardware support. ">
<polygon fill="none" stroke="black" points="330.5,-295.5 330.5,-314.5 454.5,-314.5 454.5,-295.5 330.5,-295.5"/>
<text text-anchor="middle" x="392.5" y="-302.5" font-family="Helvetica,sans-Serif" font-size="10.00">Ogre::InstanceBatchHW</text>
</a>
</g>
</g>
<!-- Node9&#45;&gt;Node13 -->
<g id="edge13" class="edge"><title>Node9&#45;&gt;Node13</title>
<path fill="none" stroke="midnightblue" d="M268.532,-305C288.495,-305 310.522,-305 330.351,-305"/>
<polygon fill="midnightblue" stroke="midnightblue" points="268.303,-301.5 258.303,-305 268.303,-308.5 268.303,-301.5"/>
</g>
<!-- Node14 -->
<g id="node15" class="node"><title>Node14</title>
<g id="a_node15"><a xlink:href="class_ogre_1_1_instance_batch_shader.html" target="_top" xlink:title="This is the same technique the old &quot;InstancedGeometry&quot; implementation used (with improvements). ">
<polygon fill="none" stroke="black" points="324,-257.5 324,-276.5 461,-276.5 461,-257.5 324,-257.5"/>
<text text-anchor="middle" x="392.5" y="-264.5" font-family="Helvetica,sans-Serif" font-size="10.00">Ogre::InstanceBatchShader</text>
</a>
</g>
</g>
<!-- Node9&#45;&gt;Node14 -->
<g id="edge14" class="edge"><title>Node9&#45;&gt;Node14</title>
<path fill="none" stroke="midnightblue" d="M262.325,-293.39C288.779,-287.986 319.858,-281.636 344.902,-276.52"/>
<polygon fill="midnightblue" stroke="midnightblue" points="261.533,-289.98 252.436,-295.411 262.934,-296.838 261.533,-289.98"/>
</g>
<!-- Node11 -->
<g id="node12" class="node"><title>Node11</title>
<g id="a_node12"><a xlink:href="class_ogre_1_1_instance_batch_h_w___v_t_f.html" target="_top" xlink:title="Instancing implementation using vertex texture through Vertex Texture Fetch (VTF) and hardware instan...">
<polygon fill="none" stroke="black" points="505,-333.5 505,-352.5 653,-352.5 653,-333.5 505,-333.5"/>
<text text-anchor="middle" x="579" y="-340.5" font-family="Helvetica,sans-Serif" font-size="10.00">Ogre::InstanceBatchHW_VTF</text>
</a>
</g>
</g>
<!-- Node10&#45;&gt;Node11 -->
<g id="edge11" class="edge"><title>Node10&#45;&gt;Node11</title>
<path fill="none" stroke="midnightblue" d="M476.792,-343C486.169,-343 495.67,-343 504.904,-343"/>
<polygon fill="midnightblue" stroke="midnightblue" points="476.684,-339.5 466.684,-343 476.684,-346.5 476.684,-339.5"/>
</g>
<!-- Node12 -->
<g id="node13" class="node"><title>Node12</title>
<g id="a_node13"><a xlink:href="class_ogre_1_1_instance_batch_v_t_f.html" target="_top" xlink:title="Ogre::InstanceBatchVTF">
<polygon fill="none" stroke="black" points="516.5,-295.5 516.5,-314.5 641.5,-314.5 641.5,-295.5 516.5,-295.5"/>
<text text-anchor="middle" x="579" y="-302.5" font-family="Helvetica,sans-Serif" font-size="10.00">Ogre::InstanceBatchVTF</text>
</a>
</g>
</g>
<!-- Node10&#45;&gt;Node12 -->
<g id="edge12" class="edge"><title>Node10&#45;&gt;Node12</title>
<path fill="none" stroke="midnightblue" d="M449.867,-331.39C476.107,-325.986 506.936,-319.636 531.778,-314.52"/>
<polygon fill="midnightblue" stroke="midnightblue" points="449.145,-327.966 440.057,-333.411 450.558,-334.822 449.145,-327.966"/>
</g>
<!-- Node18 -->
<g id="node19" class="node"><title>Node18</title>
<g id="a_node19"><a xlink:href="class_ogre_1_1_overlay_container.html" target="_top" xlink:title="A 2D element which contains other OverlayElement instances. ">
<polygon fill="none" stroke="black" points="333,-218.5 333,-237.5 452,-237.5 452,-218.5 333,-218.5"/>
<text text-anchor="middle" x="392.5" y="-225.5" font-family="Helvetica,sans-Serif" font-size="10.00">Ogre::OverlayContainer</text>
</a>
</g>
</g>
<!-- Node17&#45;&gt;Node18 -->
<g id="edge18" class="edge"><title>Node17&#45;&gt;Node18</title>
<path fill="none" stroke="midnightblue" d="M254.203,-191.071C262.816,-193.306 271.686,-195.671 280,-198 296.11,-202.513 299.883,-204.513 316,-209 327.589,-212.227 340.245,-215.506 351.826,-218.412"/>
<polygon fill="midnightblue" stroke="midnightblue" points="254.815,-187.615 244.259,-188.519 253.074,-194.395 254.815,-187.615"/>
</g>
<!-- Node21 -->
<g id="node22" class="node"><title>Node21</title>
<g id="a_node22"><a xlink:href="class_ogre_1_1_text_area_overlay_element.html" target="_top" xlink:title="This class implements an overlay element which contains simple unformatted text. ">
<polygon fill="none" stroke="black" points="316,-180.5 316,-199.5 469,-199.5 469,-180.5 316,-180.5"/>
<text text-anchor="middle" x="392.5" y="-187.5" font-family="Helvetica,sans-Serif" font-size="10.00">Ogre::TextAreaOverlayElement</text>
</a>
</g>
</g>
<!-- Node17&#45;&gt;Node21 -->
<g id="edge21" class="edge"><title>Node17&#45;&gt;Node21</title>
<path fill="none" stroke="midnightblue" d="M271.366,-182.895C285.79,-183.748 301.168,-184.658 315.937,-185.531"/>
<polygon fill="midnightblue" stroke="midnightblue" points="271.243,-179.382 261.054,-182.285 270.83,-186.37 271.243,-179.382"/>
</g>
<!-- Node19 -->
<g id="node20" class="node"><title>Node19</title>
<g id="a_node20"><a xlink:href="class_ogre_1_1_panel_overlay_element.html" target="_top" xlink:title="OverlayElement representing a flat, single&#45;material (or transparent) panel which can contain other el...">
<polygon fill="none" stroke="black" points="510,-218.5 510,-237.5 648,-237.5 648,-218.5 510,-218.5"/>
<text text-anchor="middle" x="579" y="-225.5" font-family="Helvetica,sans-Serif" font-size="10.00">Ogre::PanelOverlayElement</text>
</a>
</g>
</g>
<!-- Node18&#45;&gt;Node19 -->
<g id="edge19" class="edge"><title>Node18&#45;&gt;Node19</title>
<path fill="none" stroke="midnightblue" d="M462.206,-228C477.781,-228 494.315,-228 509.865,-228"/>
<polygon fill="midnightblue" stroke="midnightblue" points="462.13,-224.5 452.13,-228 462.13,-231.5 462.13,-224.5"/>
</g>
<!-- Node20 -->
<g id="node21" class="node"><title>Node20</title>
<g id="a_node21"><a xlink:href="class_ogre_1_1_border_panel_overlay_element.html" target="_top" xlink:title="A specialisation of the PanelOverlayElement to provide a panel with a border. ">
<polygon fill="none" stroke="black" points="689,-213 689,-243 820,-243 820,-213 689,-213"/>
<text text-anchor="start" x="697" y="-231" font-family="Helvetica,sans-Serif" font-size="10.00">Ogre::BorderPanelOverlay</text>
<text text-anchor="middle" x="754.5" y="-220" font-family="Helvetica,sans-Serif" font-size="10.00">Element</text>
</a>
</g>
</g>
<!-- Node19&#45;&gt;Node20 -->
<g id="edge20" class="edge"><title>Node19&#45;&gt;Node20</title>
<path fill="none" stroke="midnightblue" d="M658.209,-228C668.418,-228 678.787,-228 688.742,-228"/>
<polygon fill="midnightblue" stroke="midnightblue" points="658.074,-224.5 648.074,-228 658.074,-231.5 658.074,-224.5"/>
</g>
<!-- Node23 -->
<g id="node24" class="node"><title>Node23</title>
<g id="a_node24"><a xlink:href="class_ogre_1_1_manual_object_1_1_manual_object_section_shadow_renderable.html" target="_top" xlink:title="Nested class to allow shadows. ">
<polygon fill="none" stroke="black" points="317,-120.5 317,-161.5 468,-161.5 468,-120.5 317,-120.5"/>
<text text-anchor="start" x="325" y="-149.5" font-family="Helvetica,sans-Serif" font-size="10.00">Ogre::ManualObject</text>
<text text-anchor="start" x="325" y="-138.5" font-family="Helvetica,sans-Serif" font-size="10.00">::ManualObjectSectionShadow</text>
<text text-anchor="middle" x="392.5" y="-127.5" font-family="Helvetica,sans-Serif" font-size="10.00">Renderable</text>
</a>
</g>
</g>
<!-- Node22&#45;&gt;Node23 -->
<g id="edge23" class="edge"><title>Node22&#45;&gt;Node23</title>
<path fill="none" stroke="midnightblue" d="M279.046,-141C291.487,-141 304.415,-141 316.883,-141"/>
<polygon fill="midnightblue" stroke="midnightblue" points="278.731,-137.5 268.731,-141 278.731,-144.5 278.731,-137.5"/>
</g>
<!-- Node25 -->
<g id="node26" class="node"><title>Node25</title>
<g id="a_node26"><a xlink:href="class_ogre_1_1_rectangle2_d.html" target="_top" xlink:title="Allows the rendering of a simple 2D rectangle This class renders a simple 2D rectangle; this rectangl...">
<polygon fill="none" stroke="black" points="342,-82.5 342,-101.5 443,-101.5 443,-82.5 342,-82.5"/>
<text text-anchor="middle" x="392.5" y="-89.5" font-family="Helvetica,sans-Serif" font-size="10.00">Ogre::Rectangle2D</text>
</a>
</g>
</g>
<!-- Node24&#45;&gt;Node25 -->
<g id="edge25" class="edge"><title>Node24&#45;&gt;Node25</title>
<path fill="none" stroke="midnightblue" d="M276.361,-95.7141C298.179,-95.0104 321.723,-94.2509 341.8,-93.6032"/>
<polygon fill="midnightblue" stroke="midnightblue" points="276.028,-92.223 266.146,-96.0437 276.254,-99.2194 276.028,-92.223"/>
</g>
<!-- Node26 -->
<g id="node27" class="node"><title>Node26</title>
<g id="a_node27"><a xlink:href="class_ogre_1_1_volume_1_1_chunk.html" target="_top" xlink:title="A single volume chunk mesh. ">
<polygon fill="none" stroke="black" points="337,-44.5 337,-63.5 448,-63.5 448,-44.5 337,-44.5"/>
<text text-anchor="middle" x="392.5" y="-51.5" font-family="Helvetica,sans-Serif" font-size="10.00">Ogre::Volume::Chunk</text>
</a>
</g>
</g>
<!-- Node24&#45;&gt;Node26 -->
<g id="edge26" class="edge"><title>Node24&#45;&gt;Node26</title>
<path fill="none" stroke="midnightblue" d="M255.705,-86.1236C285.667,-79.0358 323.208,-70.1552 351.22,-63.5287"/>
<polygon fill="midnightblue" stroke="midnightblue" points="254.785,-82.7445 245.859,-88.4527 256.396,-89.5565 254.785,-82.7445"/>
</g>
<!-- Node27 -->
<g id="node28" class="node"><title>Node27</title>
<g id="a_node28"><a xlink:href="class_ogre_1_1_wire_bounding_box.html" target="_top" xlink:title="Allows the rendering of a wireframe bounding box. ">
<polygon fill="none" stroke="black" points="331.5,-6.5 331.5,-25.5 453.5,-25.5 453.5,-6.5 331.5,-6.5"/>
<text text-anchor="middle" x="392.5" y="-13.5" font-family="Helvetica,sans-Serif" font-size="10.00">Ogre::WireBoundingBox</text>
</a>
</g>
</g>
<!-- Node24&#45;&gt;Node27 -->
<g id="edge27" class="edge"><title>Node24&#45;&gt;Node27</title>
<path fill="none" stroke="midnightblue" d="M267.133,-84.76C271.633,-82.8061 275.978,-80.5666 280,-78 301.011,-64.5914 294.885,-48.2429 316,-35 322.183,-31.122 329.117,-28.0346 336.21,-25.5769"/>
<polygon fill="midnightblue" stroke="midnightblue" points="265.803,-81.5214 257.73,-88.3825 268.32,-88.0534 265.803,-81.5214"/>
</g>
</g>
</svg>
