<?xml version="1.0" encoding="UTF-8" standalone="no"?>
<!DOCTYPE svg PUBLIC "-//W3C//DTD SVG 1.1//EN"
 "http://www.w3.org/Graphics/SVG/1.1/DTD/svg11.dtd">
<!-- Generated by graphviz version 2.38.0 (20140413.2041)
 -->
<!-- Title: Ogre::MovableObject Pages: 1 -->
<svg width="793pt" height="522pt"
 viewBox="0.00 0.00 793.00 522.00" xmlns="http://www.w3.org/2000/svg" xmlns:xlink="http://www.w3.org/1999/xlink">
<g id="graph0" class="graph" transform="scale(1 1) rotate(0) translate(4 518)">
<title>Ogre::MovableObject</title>
<!-- Node0 -->
<g id="node1" class="node"><title>Node0</title>
<polygon fill="#bfbfbf" stroke="black" points="149,-266.5 149,-285.5 258,-285.5 258,-266.5 149,-266.5"/>
<text text-anchor="middle" x="203.5" y="-273.5" font-family="Helvetica,sans-Serif" font-size="10.00">Ogre::MovableObject</text>
</g>
<!-- Node4 -->
<g id="node5" class="node"><title>Node4</title>
<g id="a_node5"><a xlink:href="class_ogre_1_1_billboard_chain.html" target="_top" xlink:title="Allows the rendering of a chain of connected billboards. ">
<polygon fill="none" stroke="black" points="302,-494.5 302,-513.5 409,-513.5 409,-494.5 302,-494.5"/>
<text text-anchor="middle" x="355.5" y="-501.5" font-family="Helvetica,sans-Serif" font-size="10.00">Ogre::BillboardChain</text>
</a>
</g>
</g>
<!-- Node0&#45;&gt;Node4 -->
<g id="edge4" class="edge"><title>Node0&#45;&gt;Node4</title>
<path fill="none" stroke="midnightblue" d="M207.334,-295.601C214.32,-336.768 236.2,-432.726 294,-485 298.328,-488.914 303.456,-492.022 308.869,-494.489"/>
<polygon fill="midnightblue" stroke="midnightblue" points="210.76,-294.855 205.741,-285.524 203.845,-295.948 210.76,-294.855"/>
</g>
<!-- Node6 -->
<g id="node7" class="node"><title>Node6</title>
<g id="a_node7"><a xlink:href="class_ogre_1_1_billboard_set.html" target="_top" xlink:title="A collection of billboards (faces which are always facing the given direction) with the same (default...">
<polygon fill="none" stroke="black" points="307.5,-456.5 307.5,-475.5 403.5,-475.5 403.5,-456.5 307.5,-456.5"/>
<text text-anchor="middle" x="355.5" y="-463.5" font-family="Helvetica,sans-Serif" font-size="10.00">Ogre::BillboardSet</text>
</a>
</g>
</g>
<!-- Node0&#45;&gt;Node6 -->
<g id="edge6" class="edge"><title>Node0&#45;&gt;Node6</title>
<path fill="none" stroke="midnightblue" d="M209.479,-295.872C219.411,-331.438 245.06,-406.074 294,-447 298.645,-450.884 304.087,-453.977 309.768,-456.438"/>
<polygon fill="midnightblue" stroke="midnightblue" points="212.75,-294.553 206.797,-285.789 205.985,-296.353 212.75,-294.553"/>
</g>
<!-- Node7 -->
<g id="node8" class="node"><title>Node7</title>
<g id="a_node8"><a xlink:href="class_ogre_1_1_entity.html" target="_top" xlink:title="Defines an instance of a discrete, movable object based on a Mesh. ">
<polygon fill="none" stroke="black" points="321,-418.5 321,-437.5 390,-437.5 390,-418.5 321,-418.5"/>
<text text-anchor="middle" x="355.5" y="-425.5" font-family="Helvetica,sans-Serif" font-size="10.00">Ogre::Entity</text>
</a>
</g>
</g>
<!-- Node0&#45;&gt;Node7 -->
<g id="edge7" class="edge"><title>Node0&#45;&gt;Node7</title>
<path fill="none" stroke="midnightblue" d="M212.316,-295.043C225.121,-323.911 253.284,-378.598 294,-409 301.851,-414.862 311.555,-418.945 320.876,-421.777"/>
<polygon fill="midnightblue" stroke="midnightblue" points="215.454,-293.481 208.298,-285.668 209.02,-296.238 215.454,-293.481"/>
</g>
<!-- Node8 -->
<g id="node9" class="node"><title>Node8</title>
<g id="a_node9"><a xlink:href="class_ogre_1_1_frustum.html" target="_top" xlink:title="A frustum represents a pyramid, capped at the near and far end which is used to represent either a vi...">
<polygon fill="none" stroke="black" points="315.5,-380.5 315.5,-399.5 395.5,-399.5 395.5,-380.5 315.5,-380.5"/>
<text text-anchor="middle" x="355.5" y="-387.5" font-family="Helvetica,sans-Serif" font-size="10.00">Ogre::Frustum</text>
</a>
</g>
</g>
<!-- Node0&#45;&gt;Node8 -->
<g id="edge8" class="edge"><title>Node0&#45;&gt;Node8</title>
<path fill="none" stroke="midnightblue" d="M216.792,-293.801C232.389,-315.106 261.237,-350.471 294,-371 300.53,-375.092 308.013,-378.367 315.439,-380.965"/>
<polygon fill="midnightblue" stroke="midnightblue" points="219.606,-291.718 210.945,-285.615 213.909,-295.787 219.606,-291.718"/>
</g>
<!-- Node12 -->
<g id="node13" class="node"><title>Node12</title>
<g id="a_node13"><a xlink:href="class_ogre_1_1_instance_batch.html" target="_top" xlink:title="InstanceBatch forms part of the new Instancing system This is an abstract class that must be derived ...">
<polygon fill="none" stroke="black" points="302,-342.5 302,-361.5 409,-361.5 409,-342.5 302,-342.5"/>
<text text-anchor="middle" x="355.5" y="-349.5" font-family="Helvetica,sans-Serif" font-size="10.00">Ogre::InstanceBatch</text>
</a>
</g>
</g>
<!-- Node0&#45;&gt;Node12 -->
<g id="edge12" class="edge"><title>Node0&#45;&gt;Node12</title>
<path fill="none" stroke="midnightblue" d="M225.588,-291.687C243.171,-304.2 269.254,-321.48 294,-333 301.785,-336.624 310.442,-339.804 318.718,-342.473"/>
<polygon fill="midnightblue" stroke="midnightblue" points="227.375,-288.66 217.221,-285.634 223.272,-294.331 227.375,-288.66"/>
</g>
<!-- Node18 -->
<g id="node19" class="node"><title>Node18</title>
<g id="a_node19"><a xlink:href="class_ogre_1_1_instanced_entity.html" target="_top" xlink:title="Ogre::InstancedEntity">
<polygon fill="none" stroke="black" points="299.5,-304.5 299.5,-323.5 411.5,-323.5 411.5,-304.5 299.5,-304.5"/>
<text text-anchor="middle" x="355.5" y="-311.5" font-family="Helvetica,sans-Serif" font-size="10.00">Ogre::InstancedEntity</text>
</a>
</g>
</g>
<!-- Node0&#45;&gt;Node18 -->
<g id="edge18" class="edge"><title>Node0&#45;&gt;Node18</title>
<path fill="none" stroke="midnightblue" d="M252.311,-288.112C273.202,-293.404 297.347,-299.521 316.921,-304.48"/>
<polygon fill="midnightblue" stroke="midnightblue" points="252.905,-284.652 242.351,-285.589 251.186,-291.438 252.905,-284.652"/>
</g>
<!-- Node19 -->
<g id="node20" class="node"><title>Node19</title>
<g id="a_node20"><a xlink:href="class_ogre_1_1_light.html" target="_top" xlink:title="Representation of a dynamic light source in the scene. ">
<polygon fill="none" stroke="black" points="323,-266.5 323,-285.5 388,-285.5 388,-266.5 323,-266.5"/>
<text text-anchor="middle" x="355.5" y="-273.5" font-family="Helvetica,sans-Serif" font-size="10.00">Ogre::Light</text>
</a>
</g>
</g>
<!-- Node0&#45;&gt;Node19 -->
<g id="edge19" class="edge"><title>Node0&#45;&gt;Node19</title>
<path fill="none" stroke="midnightblue" d="M268.294,-276C287.187,-276 307.05,-276 322.942,-276"/>
<polygon fill="midnightblue" stroke="midnightblue" points="268.23,-272.5 258.23,-276 268.23,-279.5 268.23,-272.5"/>
</g>
<!-- Node21 -->
<g id="node22" class="node"><title>Node21</title>
<g id="a_node22"><a xlink:href="class_ogre_1_1_manual_object.html" target="_top" xlink:title="Class providing a much simplified interface to generating manual objects with custom geometry...">
<polygon fill="none" stroke="black" points="303.5,-228.5 303.5,-247.5 407.5,-247.5 407.5,-228.5 303.5,-228.5"/>
<text text-anchor="middle" x="355.5" y="-235.5" font-family="Helvetica,sans-Serif" font-size="10.00">Ogre::ManualObject</text>
</a>
</g>
</g>
<!-- Node0&#45;&gt;Node21 -->
<g id="edge21" class="edge"><title>Node0&#45;&gt;Node21</title>
<path fill="none" stroke="midnightblue" d="M252.311,-263.888C273.202,-258.596 297.347,-252.479 316.921,-247.52"/>
<polygon fill="midnightblue" stroke="midnightblue" points="251.186,-260.562 242.351,-266.411 252.905,-267.348 251.186,-260.562"/>
</g>
<!-- Node22 -->
<g id="node23" class="node"><title>Node22</title>
<g id="a_node23"><a xlink:href="class_ogre_1_1_movable_plane.html" target="_top" xlink:title="Definition of a Plane that may be attached to a node, and the derived details of it retrieved simply...">
<polygon fill="none" stroke="black" points="303,-190.5 303,-209.5 408,-209.5 408,-190.5 303,-190.5"/>
<text text-anchor="middle" x="355.5" y="-197.5" font-family="Helvetica,sans-Serif" font-size="10.00">Ogre::MovablePlane</text>
</a>
</g>
</g>
<!-- Node0&#45;&gt;Node22 -->
<g id="edge22" class="edge"><title>Node0&#45;&gt;Node22</title>
<path fill="none" stroke="midnightblue" d="M225.588,-260.313C243.171,-247.8 269.254,-230.52 294,-219 301.785,-215.376 310.442,-212.196 318.718,-209.527"/>
<polygon fill="midnightblue" stroke="midnightblue" points="223.272,-257.669 217.221,-266.366 227.375,-263.34 223.272,-257.669"/>
</g>
<!-- Node23 -->
<g id="node24" class="node"><title>Node23</title>
<g id="a_node24"><a xlink:href="class_ogre_1_1_particle_system.html" target="_top" xlink:title="Class defining particle system based special effects. ">
<polygon fill="none" stroke="black" points="300.5,-152.5 300.5,-171.5 410.5,-171.5 410.5,-152.5 300.5,-152.5"/>
<text text-anchor="middle" x="355.5" y="-159.5" font-family="Helvetica,sans-Serif" font-size="10.00">Ogre::ParticleSystem</text>
</a>
</g>
</g>
<!-- Node0&#45;&gt;Node23 -->
<g id="edge23" class="edge"><title>Node0&#45;&gt;Node23</title>
<path fill="none" stroke="midnightblue" d="M216.792,-258.199C232.389,-236.894 261.237,-201.529 294,-181 300.064,-177.2 306.949,-174.105 313.847,-171.602"/>
<polygon fill="midnightblue" stroke="midnightblue" points="213.909,-256.213 210.945,-266.385 219.606,-260.282 213.909,-256.213"/>
</g>
<!-- Node24 -->
<g id="node25" class="node"><title>Node24</title>
<g id="a_node25"><a xlink:href="class_ogre_1_1_portal_base.html" target="_top" xlink:title="PortalBase &#45; Base class to Portal and AntiPortal classes. ">
<polygon fill="none" stroke="black" points="309.5,-114.5 309.5,-133.5 401.5,-133.5 401.5,-114.5 309.5,-114.5"/>
<text text-anchor="middle" x="355.5" y="-121.5" font-family="Helvetica,sans-Serif" font-size="10.00">Ogre::PortalBase</text>
</a>
</g>
</g>
<!-- Node0&#45;&gt;Node24 -->
<g id="edge24" class="edge"><title>Node0&#45;&gt;Node24</title>
<path fill="none" stroke="midnightblue" d="M212.316,-256.957C225.121,-228.089 253.284,-173.402 294,-143 299.205,-139.114 305.224,-136.01 311.405,-133.534"/>
<polygon fill="midnightblue" stroke="midnightblue" points="209.02,-255.762 208.298,-266.332 215.454,-258.519 209.02,-255.762"/>
</g>
<!-- Node27 -->
<g id="node28" class="node"><title>Node27</title>
<g id="a_node28"><a xlink:href="class_ogre_1_1_simple_renderable.html" target="_top" xlink:title="Simple implementation of MovableObject and Renderable for single&#45;part custom objects. ">
<polygon fill="none" stroke="black" points="294,-76.5 294,-95.5 417,-95.5 417,-76.5 294,-76.5"/>
<text text-anchor="middle" x="355.5" y="-83.5" font-family="Helvetica,sans-Serif" font-size="10.00">Ogre::SimpleRenderable</text>
</a>
</g>
</g>
<!-- Node0&#45;&gt;Node27 -->
<g id="edge27" class="edge"><title>Node0&#45;&gt;Node27</title>
<path fill="none" stroke="midnightblue" d="M209.479,-256.128C219.411,-220.562 245.06,-145.926 294,-105 298.645,-101.116 304.087,-98.0234 309.768,-95.5621"/>
<polygon fill="midnightblue" stroke="midnightblue" points="205.985,-255.647 206.797,-266.211 212.75,-257.447 205.985,-255.647"/>
</g>
<!-- Node31 -->
<g id="node32" class="node"><title>Node31</title>
<g id="a_node32"><a xlink:href="class_ogre_1_1_static_geometry_1_1_region.html" target="_top" xlink:title="The details of a topological region which is the highest level of partitioning for this class...">
<polygon fill="none" stroke="black" points="299.5,-27 299.5,-57 411.5,-57 411.5,-27 299.5,-27"/>
<text text-anchor="start" x="307.5" y="-45" font-family="Helvetica,sans-Serif" font-size="10.00">Ogre::StaticGeometry</text>
<text text-anchor="middle" x="355.5" y="-34" font-family="Helvetica,sans-Serif" font-size="10.00">::Region</text>
</a>
</g>
</g>
<!-- Node0&#45;&gt;Node31 -->
<g id="edge31" class="edge"><title>Node0&#45;&gt;Node31</title>
<path fill="none" stroke="midnightblue" d="M207.81,-256.224C215.607,-215.491 238.8,-121.5 294,-67 297.882,-63.1673 302.435,-59.8929 307.271,-57.1023"/>
<polygon fill="midnightblue" stroke="midnightblue" points="204.337,-255.76 206.005,-266.223 211.225,-257.003 204.337,-255.76"/>
</g>
<!-- Node1 -->
<g id="node2" class="node"><title>Node1</title>
<g id="a_node2"><a xlink:href="class_ogre_1_1_shadow_caster.html" target="_top" xlink:title="This class defines the interface that must be implemented by shadow casters. ">
<polygon fill="none" stroke="black" points="2.5,-304.5 2.5,-323.5 110.5,-323.5 110.5,-304.5 2.5,-304.5"/>
<text text-anchor="middle" x="56.5" y="-311.5" font-family="Helvetica,sans-Serif" font-size="10.00">Ogre::ShadowCaster</text>
</a>
</g>
</g>
<!-- Node1&#45;&gt;Node0 -->
<g id="edge1" class="edge"><title>Node1&#45;&gt;Node0</title>
<path fill="none" stroke="midnightblue" d="M103.993,-301.816C124.124,-296.54 147.338,-290.456 166.173,-285.52"/>
<polygon fill="midnightblue" stroke="midnightblue" points="102.876,-298.49 94.0896,-304.411 104.65,-305.262 102.876,-298.49"/>
</g>
<!-- Node2 -->
<g id="node3" class="node"><title>Node2</title>
<g id="a_node3"><a xlink:href="class_ogre_1_1_animable_object.html" target="_top" xlink:title="Defines an interface to classes which have one or more AnimableValue instances to expose...">
<polygon fill="none" stroke="black" points="0,-266.5 0,-285.5 113,-285.5 113,-266.5 0,-266.5"/>
<text text-anchor="middle" x="56.5" y="-273.5" font-family="Helvetica,sans-Serif" font-size="10.00">Ogre::AnimableObject</text>
</a>
</g>
</g>
<!-- Node2&#45;&gt;Node0 -->
<g id="edge2" class="edge"><title>Node2&#45;&gt;Node0</title>
<path fill="none" stroke="midnightblue" d="M123.381,-276C131.846,-276 140.433,-276 148.675,-276"/>
<polygon fill="midnightblue" stroke="midnightblue" points="123.146,-272.5 113.146,-276 123.146,-279.5 123.146,-272.5"/>
</g>
<!-- Node3 -->
<g id="node4" class="node"><title>Node3</title>
<g id="a_node4"><a xlink:href="class_ogre_1_1_allocated_object.html" target="_top" xlink:title="MovableAlloc">
<polygon fill="none" stroke="black" points="19,-228.5 19,-247.5 94,-247.5 94,-228.5 19,-228.5"/>
<text text-anchor="middle" x="56.5" y="-235.5" font-family="Helvetica,sans-Serif" font-size="10.00">MovableAlloc</text>
</a>
</g>
</g>
<!-- Node3&#45;&gt;Node0 -->
<g id="edge3" class="edge"><title>Node3&#45;&gt;Node0</title>
<path fill="none" stroke="midnightblue" d="M103.993,-250.184C124.124,-255.46 147.338,-261.544 166.173,-266.48"/>
<polygon fill="midnightblue" stroke="midnightblue" points="104.65,-246.738 94.0896,-247.589 102.876,-253.51 104.65,-246.738"/>
</g>
<!-- Node5 -->
<g id="node6" class="node"><title>Node5</title>
<g id="a_node6"><a xlink:href="class_ogre_1_1_ribbon_trail.html" target="_top" xlink:title="Subclass of BillboardChain which automatically leaves a trail behind one or more Node instances...">
<polygon fill="none" stroke="black" points="480.5,-494.5 480.5,-513.5 573.5,-513.5 573.5,-494.5 480.5,-494.5"/>
<text text-anchor="middle" x="527" y="-501.5" font-family="Helvetica,sans-Serif" font-size="10.00">Ogre::RibbonTrail</text>
</a>
</g>
</g>
<!-- Node4&#45;&gt;Node5 -->
<g id="edge5" class="edge"><title>Node4&#45;&gt;Node5</title>
<path fill="none" stroke="midnightblue" d="M419.308,-504C439.599,-504 461.693,-504 480.485,-504"/>
<polygon fill="midnightblue" stroke="midnightblue" points="419.202,-500.5 409.202,-504 419.202,-507.5 419.202,-500.5"/>
</g>
<!-- Node9 -->
<g id="node10" class="node"><title>Node9</title>
<g id="a_node10"><a xlink:href="class_ogre_1_1_camera.html" target="_top" xlink:title="A viewpoint from which the scene will be rendered. ">
<polygon fill="none" stroke="black" points="488,-418.5 488,-437.5 566,-437.5 566,-418.5 488,-418.5"/>
<text text-anchor="middle" x="527" y="-425.5" font-family="Helvetica,sans-Serif" font-size="10.00">Ogre::Camera</text>
</a>
</g>
</g>
<!-- Node8&#45;&gt;Node9 -->
<g id="edge9" class="edge"><title>Node8&#45;&gt;Node9</title>
<path fill="none" stroke="midnightblue" d="M405.891,-401.073C431.998,-406.926 463.559,-414.001 487.776,-419.431"/>
<polygon fill="midnightblue" stroke="midnightblue" points="406.336,-397.586 395.813,-398.813 404.805,-404.416 406.336,-397.586"/>
</g>
<!-- Node10 -->
<g id="node11" class="node"><title>Node10</title>
<g id="a_node11"><a xlink:href="class_ogre_1_1_octree_camera.html" target="_top" xlink:title="Specialized viewpoint from which an Octree can be rendered. ">
<polygon fill="none" stroke="black" points="657.5,-456.5 657.5,-475.5 764.5,-475.5 764.5,-456.5 657.5,-456.5"/>
<text text-anchor="middle" x="711" y="-463.5" font-family="Helvetica,sans-Serif" font-size="10.00">Ogre::OctreeCamera</text>
</a>
</g>
</g>
<!-- Node9&#45;&gt;Node10 -->
<g id="edge10" class="edge"><title>Node9&#45;&gt;Node10</title>
<path fill="none" stroke="midnightblue" d="M576.278,-438.08C603.621,-443.789 637.621,-450.888 664.495,-456.499"/>
<polygon fill="midnightblue" stroke="midnightblue" points="576.657,-434.584 566.153,-435.966 575.227,-441.436 576.657,-434.584"/>
</g>
<!-- Node11 -->
<g id="node12" class="node"><title>Node11</title>
<g id="a_node12"><a xlink:href="class_ogre_1_1_p_c_z_camera.html" target="_top" xlink:title="Specialized viewpoint from which an PCZone Scene can be rendered. ">
<polygon fill="none" stroke="black" points="662,-418.5 662,-437.5 760,-437.5 760,-418.5 662,-418.5"/>
<text text-anchor="middle" x="711" y="-425.5" font-family="Helvetica,sans-Serif" font-size="10.00">Ogre::PCZCamera</text>
</a>
</g>
</g>
<!-- Node9&#45;&gt;Node11 -->
<g id="edge11" class="edge"><title>Node9&#45;&gt;Node11</title>
<path fill="none" stroke="midnightblue" d="M576.324,-428C602.762,-428 635.413,-428 661.827,-428"/>
<polygon fill="midnightblue" stroke="midnightblue" points="576.153,-424.5 566.153,-428 576.153,-431.5 576.153,-424.5"/>
</g>
<!-- Node13 -->
<g id="node14" class="node"><title>Node13</title>
<g id="a_node14"><a xlink:href="class_ogre_1_1_base_instance_batch_v_t_f.html" target="_top" xlink:title="Instancing implementation using vertex texture through Vertex Texture Fetch (VTF) This implementation...">
<polygon fill="none" stroke="black" points="453,-380.5 453,-399.5 601,-399.5 601,-380.5 453,-380.5"/>
<text text-anchor="middle" x="527" y="-387.5" font-family="Helvetica,sans-Serif" font-size="10.00">Ogre::BaseInstanceBatchVTF</text>
</a>
</g>
</g>
<!-- Node12&#45;&gt;Node13 -->
<g id="edge13" class="edge"><title>Node12&#45;&gt;Node13</title>
<path fill="none" stroke="midnightblue" d="M409.242,-363.824C433.139,-369.182 461.015,-375.431 483.536,-380.48"/>
<polygon fill="midnightblue" stroke="midnightblue" points="409.795,-360.361 399.272,-361.589 408.264,-367.192 409.795,-360.361"/>
</g>
<!-- Node16 -->
<g id="node17" class="node"><title>Node16</title>
<g id="a_node17"><a xlink:href="class_ogre_1_1_instance_batch_h_w.html" target="_top" xlink:title="This is technique requires true instancing hardware support. ">
<polygon fill="none" stroke="black" points="465,-342.5 465,-361.5 589,-361.5 589,-342.5 465,-342.5"/>
<text text-anchor="middle" x="527" y="-349.5" font-family="Helvetica,sans-Serif" font-size="10.00">Ogre::InstanceBatchHW</text>
</a>
</g>
</g>
<!-- Node12&#45;&gt;Node16 -->
<g id="edge16" class="edge"><title>Node12&#45;&gt;Node16</title>
<path fill="none" stroke="midnightblue" d="M419.299,-352C434.143,-352 449.951,-352 464.726,-352"/>
<polygon fill="midnightblue" stroke="midnightblue" points="419.202,-348.5 409.202,-352 419.202,-355.5 419.202,-348.5"/>
</g>
<!-- Node17 -->
<g id="node18" class="node"><title>Node17</title>
<g id="a_node18"><a xlink:href="class_ogre_1_1_instance_batch_shader.html" target="_top" xlink:title="This is the same technique the old &quot;InstancedGeometry&quot; implementation used (with improvements). ">
<polygon fill="none" stroke="black" points="458.5,-304.5 458.5,-323.5 595.5,-323.5 595.5,-304.5 458.5,-304.5"/>
<text text-anchor="middle" x="527" y="-311.5" font-family="Helvetica,sans-Serif" font-size="10.00">Ogre::InstanceBatchShader</text>
</a>
</g>
</g>
<!-- Node12&#45;&gt;Node17 -->
<g id="edge17" class="edge"><title>Node12&#45;&gt;Node17</title>
<path fill="none" stroke="midnightblue" d="M409.242,-340.176C433.139,-334.818 461.015,-328.569 483.536,-323.52"/>
<polygon fill="midnightblue" stroke="midnightblue" points="408.264,-336.808 399.272,-342.411 409.795,-343.639 408.264,-336.808"/>
</g>
<!-- Node14 -->
<g id="node15" class="node"><title>Node14</title>
<g id="a_node15"><a xlink:href="class_ogre_1_1_instance_batch_h_w___v_t_f.html" target="_top" xlink:title="Instancing implementation using vertex texture through Vertex Texture Fetch (VTF) and hardware instan...">
<polygon fill="none" stroke="black" points="637,-380.5 637,-399.5 785,-399.5 785,-380.5 637,-380.5"/>
<text text-anchor="middle" x="711" y="-387.5" font-family="Helvetica,sans-Serif" font-size="10.00">Ogre::InstanceBatchHW_VTF</text>
</a>
</g>
</g>
<!-- Node13&#45;&gt;Node14 -->
<g id="edge14" class="edge"><title>Node13&#45;&gt;Node14</title>
<path fill="none" stroke="midnightblue" d="M611.516,-390C619.992,-390 628.556,-390 636.91,-390"/>
<polygon fill="midnightblue" stroke="midnightblue" points="611.24,-386.5 601.24,-390 611.24,-393.5 611.24,-386.5"/>
</g>
<!-- Node15 -->
<g id="node16" class="node"><title>Node15</title>
<g id="a_node16"><a xlink:href="class_ogre_1_1_instance_batch_v_t_f.html" target="_top" xlink:title="Ogre::InstanceBatchVTF">
<polygon fill="none" stroke="black" points="648.5,-342.5 648.5,-361.5 773.5,-361.5 773.5,-342.5 648.5,-342.5"/>
<text text-anchor="middle" x="711" y="-349.5" font-family="Helvetica,sans-Serif" font-size="10.00">Ogre::InstanceBatchVTF</text>
</a>
</g>
</g>
<!-- Node13&#45;&gt;Node15 -->
<g id="edge15" class="edge"><title>Node13&#45;&gt;Node15</title>
<path fill="none" stroke="midnightblue" d="M583.946,-378.319C609.756,-372.93 640.007,-366.614 664.404,-361.52"/>
<polygon fill="midnightblue" stroke="midnightblue" points="583,-374.941 573.926,-380.411 584.431,-381.793 583,-374.941"/>
</g>
<!-- Node20 -->
<g id="node21" class="node"><title>Node20</title>
<g id="a_node21"><a xlink:href="class_ogre_1_1_p_c_z_light.html" target="_top" xlink:title="Specialized version of Ogre::Light which caches which zones the light affects. ">
<polygon fill="none" stroke="black" points="484.5,-266.5 484.5,-285.5 569.5,-285.5 569.5,-266.5 484.5,-266.5"/>
<text text-anchor="middle" x="527" y="-273.5" font-family="Helvetica,sans-Serif" font-size="10.00">Ogre::PCZLight</text>
</a>
</g>
</g>
<!-- Node19&#45;&gt;Node20 -->
<g id="edge20" class="edge"><title>Node19&#45;&gt;Node20</title>
<path fill="none" stroke="midnightblue" d="M398.384,-276C424.573,-276 458.174,-276 484.324,-276"/>
<polygon fill="midnightblue" stroke="midnightblue" points="398.382,-272.5 388.382,-276 398.382,-279.5 398.382,-272.5"/>
</g>
<!-- Node25 -->
<g id="node26" class="node"><title>Node25</title>
<g id="a_node26"><a xlink:href="class_ogre_1_1_anti_portal.html" target="_top" xlink:title="AntiPortal datastructure for occlusion culling. ">
<polygon fill="none" stroke="black" points="484,-152.5 484,-171.5 570,-171.5 570,-152.5 484,-152.5"/>
<text text-anchor="middle" x="527" y="-159.5" font-family="Helvetica,sans-Serif" font-size="10.00">Ogre::AntiPortal</text>
</a>
</g>
</g>
<!-- Node24&#45;&gt;Node25 -->
<g id="edge25" class="edge"><title>Node24&#45;&gt;Node25</title>
<path fill="none" stroke="midnightblue" d="M409.281,-135.833C433.273,-141.212 461.27,-147.488 483.829,-152.546"/>
<polygon fill="midnightblue" stroke="midnightblue" points="409.795,-132.361 399.272,-133.589 408.264,-139.192 409.795,-132.361"/>
</g>
<!-- Node26 -->
<g id="node27" class="node"><title>Node26</title>
<g id="a_node27"><a xlink:href="class_ogre_1_1_portal.html" target="_top" xlink:title="Portal datastructure for connecting zones. ">
<polygon fill="none" stroke="black" points="492.5,-114.5 492.5,-133.5 561.5,-133.5 561.5,-114.5 492.5,-114.5"/>
<text text-anchor="middle" x="527" y="-121.5" font-family="Helvetica,sans-Serif" font-size="10.00">Ogre::Portal</text>
</a>
</g>
</g>
<!-- Node24&#45;&gt;Node26 -->
<g id="edge26" class="edge"><title>Node24&#45;&gt;Node26</title>
<path fill="none" stroke="midnightblue" d="M412.205,-124C438.666,-124 469.425,-124 492.287,-124"/>
<polygon fill="midnightblue" stroke="midnightblue" points="411.923,-120.5 401.923,-124 411.923,-127.5 411.923,-120.5"/>
</g>
<!-- Node28 -->
<g id="node29" class="node"><title>Node28</title>
<g id="a_node29"><a xlink:href="class_ogre_1_1_rectangle2_d.html" target="_top" xlink:title="Allows the rendering of a simple 2D rectangle This class renders a simple 2D rectangle; this rectangl...">
<polygon fill="none" stroke="black" points="476.5,-76.5 476.5,-95.5 577.5,-95.5 577.5,-76.5 476.5,-76.5"/>
<text text-anchor="middle" x="527" y="-83.5" font-family="Helvetica,sans-Serif" font-size="10.00">Ogre::Rectangle2D</text>
</a>
</g>
</g>
<!-- Node27&#45;&gt;Node28 -->
<g id="edge28" class="edge"><title>Node27&#45;&gt;Node28</title>
<path fill="none" stroke="midnightblue" d="M427.346,-86C443.803,-86 460.979,-86 476.3,-86"/>
<polygon fill="midnightblue" stroke="midnightblue" points="427.215,-82.5001 417.215,-86 427.215,-89.5001 427.215,-82.5001"/>
</g>
<!-- Node29 -->
<g id="node30" class="node"><title>Node29</title>
<g id="a_node30"><a xlink:href="class_ogre_1_1_volume_1_1_chunk.html" target="_top" xlink:title="A single volume chunk mesh. ">
<polygon fill="none" stroke="black" points="471.5,-38.5 471.5,-57.5 582.5,-57.5 582.5,-38.5 471.5,-38.5"/>
<text text-anchor="middle" x="527" y="-45.5" font-family="Helvetica,sans-Serif" font-size="10.00">Ogre::Volume::Chunk</text>
</a>
</g>
</g>
<!-- Node27&#45;&gt;Node29 -->
<g id="edge29" class="edge"><title>Node27&#45;&gt;Node29</title>
<path fill="none" stroke="midnightblue" d="M409.242,-74.1757C433.139,-68.8184 461.015,-62.5689 483.536,-57.5201"/>
<polygon fill="midnightblue" stroke="midnightblue" points="408.264,-70.8081 399.272,-76.411 409.795,-77.6386 408.264,-70.8081"/>
</g>
<!-- Node30 -->
<g id="node31" class="node"><title>Node30</title>
<g id="a_node31"><a xlink:href="class_ogre_1_1_wire_bounding_box.html" target="_top" xlink:title="Allows the rendering of a wireframe bounding box. ">
<polygon fill="none" stroke="black" points="466,-0.5 466,-19.5 588,-19.5 588,-0.5 466,-0.5"/>
<text text-anchor="middle" x="527" y="-7.5" font-family="Helvetica,sans-Serif" font-size="10.00">Ogre::WireBoundingBox</text>
</a>
</g>
</g>
<!-- Node27&#45;&gt;Node30 -->
<g id="edge30" class="edge"><title>Node27&#45;&gt;Node30</title>
<path fill="none" stroke="midnightblue" d="M404.51,-72.5533C408.863,-70.62 413.097,-68.4428 417,-66 436.449,-53.8284 433.168,-40.5367 453,-29 459.679,-25.1149 467.156,-22.0114 474.71,-19.5356"/>
<polygon fill="midnightblue" stroke="midnightblue" points="402.858,-69.4441 394.871,-76.4047 405.456,-75.9444 402.858,-69.4441"/>
</g>
</g>
</svg>
