<?xml version="1.0" encoding="UTF-8" standalone="no"?>
<!DOCTYPE svg PUBLIC "-//W3C//DTD SVG 1.1//EN"
 "http://www.w3.org/Graphics/SVG/1.1/DTD/svg11.dtd">
<!-- Generated by graphviz version 2.38.0 (20140413.2041)
 -->
<!-- Title: Ogre::ScriptLoader Pages: 1 -->
<svg width="671pt" height="392pt"
 viewBox="0.00 0.00 671.00 392.00" xmlns="http://www.w3.org/2000/svg" xmlns:xlink="http://www.w3.org/1999/xlink">
<g id="graph0" class="graph" transform="scale(1 1) rotate(0) translate(4 388)">
<title>Ogre::ScriptLoader</title>
<!-- Node0 -->
<g id="node1" class="node"><title>Node0</title>
<polygon fill="#bfbfbf" stroke="black" points="0,-269.5 0,-288.5 98,-288.5 98,-269.5 0,-269.5"/>
<text text-anchor="middle" x="49" y="-276.5" font-family="Helvetica,sans-Serif" font-size="10.00">Ogre::ScriptLoader</text>
</g>
<!-- Node1 -->
<g id="node2" class="node"><title>Node1</title>
<g id="a_node2"><a xlink:href="class_ogre_1_1_cg_fx_script_loader.html" target="_top" xlink:title="Manages Overlay objects, parsing them from .overlay files and storing a lookup library of them...">
<polygon fill="none" stroke="black" points="147,-364.5 147,-383.5 269,-383.5 269,-364.5 147,-364.5"/>
<text text-anchor="middle" x="208" y="-371.5" font-family="Helvetica,sans-Serif" font-size="10.00">Ogre::CgFxScriptLoader</text>
</a>
</g>
</g>
<!-- Node0&#45;&gt;Node1 -->
<g id="edge1" class="edge"><title>Node0&#45;&gt;Node1</title>
<path fill="none" stroke="midnightblue" d="M64.4451,-296.234C79.9154,-313.593 106.041,-339.906 134,-355 141.145,-358.857 149.111,-361.961 157.081,-364.449"/>
<polygon fill="midnightblue" stroke="midnightblue" points="66.945,-293.775 57.7451,-288.52 61.6601,-298.365 66.945,-293.775"/>
</g>
<!-- Node2 -->
<g id="node3" class="node"><title>Node2</title>
<g id="a_node3"><a xlink:href="class_ogre_1_1_overlay_manager.html" target="_top" xlink:title="Manages Overlay objects, parsing them from .overlay files and storing a lookup library of them...">
<polygon fill="none" stroke="black" points="150.5,-326.5 150.5,-345.5 265.5,-345.5 265.5,-326.5 150.5,-326.5"/>
<text text-anchor="middle" x="208" y="-333.5" font-family="Helvetica,sans-Serif" font-size="10.00">Ogre::OverlayManager</text>
</a>
</g>
</g>
<!-- Node0&#45;&gt;Node2 -->
<g id="edge2" class="edge"><title>Node0&#45;&gt;Node2</title>
<path fill="none" stroke="midnightblue" d="M78.0053,-293.117C94.1085,-300.865 114.879,-310.242 134,-317 144.001,-320.535 154.982,-323.735 165.321,-326.458"/>
<polygon fill="midnightblue" stroke="midnightblue" points="79.1599,-289.786 68.6384,-288.541 76.0874,-296.075 79.1599,-289.786"/>
</g>
<!-- Node3 -->
<g id="node4" class="node"><title>Node3</title>
<g id="a_node4"><a xlink:href="class_ogre_1_1_particle_system_manager.html" target="_top" xlink:title="Manages particle systems, particle system scripts (templates) and the available emitter &amp; affector fa...">
<polygon fill="none" stroke="black" points="134,-288.5 134,-307.5 282,-307.5 282,-288.5 134,-288.5"/>
<text text-anchor="middle" x="208" y="-295.5" font-family="Helvetica,sans-Serif" font-size="10.00">Ogre::ParticleSystemManager</text>
</a>
</g>
</g>
<!-- Node0&#45;&gt;Node3 -->
<g id="edge3" class="edge"><title>Node0&#45;&gt;Node3</title>
<path fill="none" stroke="midnightblue" d="M108.369,-286.064C116.709,-287.073 125.373,-288.122 133.95,-289.16"/>
<polygon fill="midnightblue" stroke="midnightblue" points="108.734,-282.583 98.3862,-284.856 107.893,-289.532 108.734,-282.583"/>
</g>
<!-- Node4 -->
<g id="node5" class="node"><title>Node4</title>
<g id="a_node5"><a xlink:href="class_ogre_1_1_quake3_shader_manager.html" target="_top" xlink:title="Class for managing Quake3 custom shaders. ">
<polygon fill="none" stroke="black" points="135,-250.5 135,-269.5 281,-269.5 281,-250.5 135,-250.5"/>
<text text-anchor="middle" x="208" y="-257.5" font-family="Helvetica,sans-Serif" font-size="10.00">Ogre::Quake3ShaderManager</text>
</a>
</g>
</g>
<!-- Node0&#45;&gt;Node4 -->
<g id="edge4" class="edge"><title>Node0&#45;&gt;Node4</title>
<path fill="none" stroke="midnightblue" d="M108.332,-271.941C116.964,-270.896 125.945,-269.809 134.818,-268.735"/>
<polygon fill="midnightblue" stroke="midnightblue" points="107.893,-268.468 98.3862,-273.144 108.734,-275.417 107.893,-268.468"/>
</g>
<!-- Node5 -->
<g id="node6" class="node"><title>Node5</title>
<g id="a_node6"><a xlink:href="class_ogre_1_1_resource_manager.html" target="_top" xlink:title="Defines a generic resource handler. ">
<polygon fill="none" stroke="black" points="146.5,-212.5 146.5,-231.5 269.5,-231.5 269.5,-212.5 146.5,-212.5"/>
<text text-anchor="middle" x="208" y="-219.5" font-family="Helvetica,sans-Serif" font-size="10.00">Ogre::ResourceManager</text>
</a>
</g>
</g>
<!-- Node0&#45;&gt;Node5 -->
<g id="edge5" class="edge"><title>Node0&#45;&gt;Node5</title>
<path fill="none" stroke="midnightblue" d="M78.0053,-264.883C94.1085,-257.135 114.879,-247.758 134,-241 144.001,-237.465 154.982,-234.265 165.321,-231.542"/>
<polygon fill="midnightblue" stroke="midnightblue" points="76.0874,-261.925 68.6384,-269.459 79.1599,-268.214 76.0874,-261.925"/>
</g>
<!-- Node24 -->
<g id="node25" class="node"><title>Node24</title>
<g id="a_node25"><a xlink:href="class_ogre_1_1_script_compiler_manager.html" target="_top" xlink:title="Manages threaded compilation of scripts. ">
<polygon fill="none" stroke="black" points="135,-174.5 135,-193.5 281,-193.5 281,-174.5 135,-174.5"/>
<text text-anchor="middle" x="208" y="-181.5" font-family="Helvetica,sans-Serif" font-size="10.00">Ogre::ScriptCompilerManager</text>
</a>
</g>
</g>
<!-- Node0&#45;&gt;Node24 -->
<g id="edge24" class="edge"><title>Node0&#45;&gt;Node24</title>
<path fill="none" stroke="midnightblue" d="M64.4451,-261.766C79.9154,-244.407 106.041,-218.094 134,-203 141.145,-199.143 149.111,-196.039 157.081,-193.551"/>
<polygon fill="midnightblue" stroke="midnightblue" points="61.6601,-259.635 57.7451,-269.48 66.945,-264.225 61.6601,-259.635"/>
</g>
<!-- Node6 -->
<g id="node7" class="node"><title>Node6</title>
<g id="a_node7"><a xlink:href="class_ogre_1_1_compositor_manager.html" target="_top" xlink:title="Class for managing Compositor settings for Ogre. ">
<polygon fill="none" stroke="black" points="323.5,-354.5 323.5,-373.5 454.5,-373.5 454.5,-354.5 323.5,-354.5"/>
<text text-anchor="middle" x="389" y="-361.5" font-family="Helvetica,sans-Serif" font-size="10.00">Ogre::CompositorManager</text>
</a>
</g>
</g>
<!-- Node5&#45;&gt;Node6 -->
<g id="edge6" class="edge"><title>Node5&#45;&gt;Node6</title>
<path fill="none" stroke="midnightblue" d="M276.651,-236.702C278.529,-238.018 280.32,-239.447 282,-241 317.919,-274.201 282.254,-311.613 318,-345 322.141,-348.868 326.989,-351.963 332.168,-354.438"/>
<polygon fill="midnightblue" stroke="midnightblue" points="278.33,-233.63 267.925,-231.634 274.814,-239.683 278.33,-233.63"/>
</g>
<!-- Node7 -->
<g id="node8" class="node"><title>Node7</title>
<g id="a_node8"><a xlink:href="class_ogre_1_1_font_manager.html" target="_top" xlink:title="Manages Font resources, parsing .fontdef files and generally organising them. ">
<polygon fill="none" stroke="black" points="338.5,-316.5 338.5,-335.5 439.5,-335.5 439.5,-316.5 338.5,-316.5"/>
<text text-anchor="middle" x="389" y="-323.5" font-family="Helvetica,sans-Serif" font-size="10.00">Ogre::FontManager</text>
</a>
</g>
</g>
<!-- Node5&#45;&gt;Node7 -->
<g id="edge7" class="edge"><title>Node5&#45;&gt;Node7</title>
<path fill="none" stroke="midnightblue" d="M274.611,-236.059C277.2,-237.545 279.678,-239.186 282,-241 308.334,-261.566 291.774,-286.297 318,-307 323.93,-311.681 330.926,-315.212 338.162,-317.874"/>
<polygon fill="midnightblue" stroke="midnightblue" points="275.973,-232.829 265.452,-231.584 272.9,-239.118 275.973,-232.829"/>
</g>
<!-- Node8 -->
<g id="node9" class="node"><title>Node8</title>
<g id="a_node9"><a xlink:href="class_ogre_1_1_gpu_program_manager.html" target="_top" xlink:title="Ogre::GpuProgramManager">
<polygon fill="none" stroke="black" points="321,-278.5 321,-297.5 457,-297.5 457,-278.5 321,-278.5"/>
<text text-anchor="middle" x="389" y="-285.5" font-family="Helvetica,sans-Serif" font-size="10.00">Ogre::GpuProgramManager</text>
</a>
</g>
</g>
<!-- Node5&#45;&gt;Node8 -->
<g id="edge8" class="edge"><title>Node5&#45;&gt;Node8</title>
<path fill="none" stroke="midnightblue" d="M266.695,-234.638C271.975,-236.501 277.154,-238.612 282,-241 300.182,-249.959 299.865,-259.946 318,-269 325.661,-272.825 334.191,-275.958 342.588,-278.498"/>
<polygon fill="midnightblue" stroke="midnightblue" points="267.725,-231.293 257.133,-231.549 265.573,-237.954 267.725,-231.293"/>
</g>
<!-- Node14 -->
<g id="node15" class="node"><title>Node14</title>
<g id="a_node15"><a xlink:href="class_ogre_1_1_high_level_gpu_program_manager.html" target="_top" xlink:title="This ResourceManager manages high&#45;level vertex and fragment programs. ">
<polygon fill="none" stroke="black" points="318,-229 318,-259 460,-259 460,-229 318,-229"/>
<text text-anchor="start" x="326" y="-247" font-family="Helvetica,sans-Serif" font-size="10.00">Ogre::HighLevelGpuProgram</text>
<text text-anchor="middle" x="389" y="-236" font-family="Helvetica,sans-Serif" font-size="10.00">Manager</text>
</a>
</g>
</g>
<!-- Node5&#45;&gt;Node14 -->
<g id="edge14" class="edge"><title>Node5&#45;&gt;Node14</title>
<path fill="none" stroke="midnightblue" d="M279.574,-230.674C292.175,-232.223 305.301,-233.836 317.889,-235.383"/>
<polygon fill="midnightblue" stroke="midnightblue" points="279.954,-227.194 269.601,-229.448 279.1,-234.142 279.954,-227.194"/>
</g>
<!-- Node15 -->
<g id="node16" class="node"><title>Node15</title>
<g id="a_node16"><a xlink:href="class_ogre_1_1_material_manager.html" target="_top" xlink:title="Class for managing Material settings for Ogre. ">
<polygon fill="none" stroke="black" points="331,-190.5 331,-209.5 447,-209.5 447,-190.5 331,-190.5"/>
<text text-anchor="middle" x="389" y="-197.5" font-family="Helvetica,sans-Serif" font-size="10.00">Ogre::MaterialManager</text>
</a>
</g>
</g>
<!-- Node5&#45;&gt;Node15 -->
<g id="edge15" class="edge"><title>Node5&#45;&gt;Node15</title>
<path fill="none" stroke="midnightblue" d="M279.963,-213.278C296.833,-211.205 314.621,-209.019 330.786,-207.032"/>
<polygon fill="midnightblue" stroke="midnightblue" points="279.1,-209.858 269.601,-214.552 279.954,-216.806 279.1,-209.858"/>
</g>
<!-- Node16 -->
<g id="node17" class="node"><title>Node16</title>
<g id="a_node17"><a xlink:href="class_ogre_1_1_mesh_manager.html" target="_top" xlink:title="Handles the management of mesh resources. ">
<polygon fill="none" stroke="black" points="336.5,-152.5 336.5,-171.5 441.5,-171.5 441.5,-152.5 336.5,-152.5"/>
<text text-anchor="middle" x="389" y="-159.5" font-family="Helvetica,sans-Serif" font-size="10.00">Ogre::MeshManager</text>
</a>
</g>
</g>
<!-- Node5&#45;&gt;Node16 -->
<g id="edge16" class="edge"><title>Node5&#45;&gt;Node16</title>
<path fill="none" stroke="midnightblue" d="M263.841,-209.608C270.056,-207.652 276.225,-205.452 282,-203 299.259,-195.671 300.779,-188.419 318,-181 326.558,-177.313 336.017,-174.17 345.142,-171.564"/>
<polygon fill="midnightblue" stroke="midnightblue" points="262.691,-206.298 254.088,-212.482 264.67,-213.013 262.691,-206.298"/>
</g>
<!-- Node17 -->
<g id="node18" class="node"><title>Node17</title>
<g id="a_node18"><a xlink:href="class_ogre_1_1_skeleton_manager.html" target="_top" xlink:title="Handles the management of skeleton resources. ">
<polygon fill="none" stroke="black" points="329.5,-114.5 329.5,-133.5 448.5,-133.5 448.5,-114.5 329.5,-114.5"/>
<text text-anchor="middle" x="389" y="-121.5" font-family="Helvetica,sans-Serif" font-size="10.00">Ogre::SkeletonManager</text>
</a>
</g>
</g>
<!-- Node5&#45;&gt;Node17 -->
<g id="edge17" class="edge"><title>Node5&#45;&gt;Node17</title>
<path fill="none" stroke="midnightblue" d="M274.089,-208.059C276.857,-206.543 279.512,-204.862 282,-203 306.897,-184.366 293.2,-161.764 318,-143 323.121,-139.125 328.981,-136.04 335.08,-133.584"/>
<polygon fill="midnightblue" stroke="midnightblue" points="272.487,-204.944 264.924,-212.364 275.463,-211.28 272.487,-204.944"/>
</g>
<!-- Node18 -->
<g id="node19" class="node"><title>Node18</title>
<g id="a_node19"><a xlink:href="class_ogre_1_1_texture_manager.html" target="_top" xlink:title="Class for loading &amp; managing textures. ">
<polygon fill="none" stroke="black" points="332,-76.5 332,-95.5 446,-95.5 446,-76.5 332,-76.5"/>
<text text-anchor="middle" x="389" y="-83.5" font-family="Helvetica,sans-Serif" font-size="10.00">Ogre::TextureManager</text>
</a>
</g>
</g>
<!-- Node5&#45;&gt;Node18 -->
<g id="edge18" class="edge"><title>Node5&#45;&gt;Node18</title>
<path fill="none" stroke="midnightblue" d="M276.481,-207.347C278.418,-206.018 280.266,-204.573 282,-203 316.369,-171.826 283.793,-136.353 318,-105 322.177,-101.171 327.049,-98.1013 332.242,-95.6419"/>
<polygon fill="midnightblue" stroke="midnightblue" points="274.456,-204.472 267.491,-212.456 277.915,-210.558 274.456,-204.472"/>
</g>
<!-- Node9 -->
<g id="node10" class="node"><title>Node9</title>
<g id="a_node10"><a xlink:href="class_ogre_1_1_d3_d11_gpu_program_manager.html" target="_top" xlink:title="Ogre::D3D11GpuProgramManager">
<polygon fill="none" stroke="black" points="496,-354.5 496,-373.5 663,-373.5 663,-354.5 496,-354.5"/>
<text text-anchor="middle" x="579.5" y="-361.5" font-family="Helvetica,sans-Serif" font-size="10.00">Ogre::D3D11GpuProgramManager</text>
</a>
</g>
</g>
<!-- Node8&#45;&gt;Node9 -->
<g id="edge9" class="edge"><title>Node8&#45;&gt;Node9</title>
<path fill="none" stroke="midnightblue" d="M448.422,-301.166C452.449,-302.884 456.352,-304.82 460,-307 479.969,-318.936 475.804,-333.453 496,-345 502.763,-348.866 510.261,-351.946 517.901,-354.4"/>
<polygon fill="midnightblue" stroke="midnightblue" points="449.453,-297.814 438.862,-297.541 446.972,-304.359 449.453,-297.814"/>
</g>
<!-- Node10 -->
<g id="node11" class="node"><title>Node10</title>
<g id="a_node11"><a xlink:href="class_ogre_1_1_d3_d9_gpu_program_manager.html" target="_top" xlink:title="Ogre::D3D9GpuProgramManager">
<polygon fill="none" stroke="black" points="499,-316.5 499,-335.5 660,-335.5 660,-316.5 499,-316.5"/>
<text text-anchor="middle" x="579.5" y="-323.5" font-family="Helvetica,sans-Serif" font-size="10.00">Ogre::D3D9GpuProgramManager</text>
</a>
</g>
</g>
<!-- Node8&#45;&gt;Node10 -->
<g id="edge10" class="edge"><title>Node8&#45;&gt;Node10</title>
<path fill="none" stroke="midnightblue" d="M447.589,-299.61C474.398,-305.014 505.895,-311.364 531.276,-316.48"/>
<polygon fill="midnightblue" stroke="midnightblue" points="448.061,-296.134 437.567,-297.589 446.678,-302.996 448.061,-296.134"/>
</g>
<!-- Node11 -->
<g id="node12" class="node"><title>Node11</title>
<g id="a_node12"><a xlink:href="class_ogre_1_1_g_l_e_s2_gpu_program_manager.html" target="_top" xlink:title="Ogre::GLES2GpuProgramManager">
<polygon fill="none" stroke="black" points="496,-278.5 496,-297.5 663,-297.5 663,-278.5 496,-278.5"/>
<text text-anchor="middle" x="579.5" y="-285.5" font-family="Helvetica,sans-Serif" font-size="10.00">Ogre::GLES2GpuProgramManager</text>
</a>
</g>
</g>
<!-- Node8&#45;&gt;Node11 -->
<g id="edge11" class="edge"><title>Node8&#45;&gt;Node11</title>
<path fill="none" stroke="midnightblue" d="M467.324,-288C476.704,-288 486.316,-288 495.771,-288"/>
<polygon fill="midnightblue" stroke="midnightblue" points="467.255,-284.5 457.254,-288 467.254,-291.5 467.255,-284.5"/>
</g>
<!-- Node12 -->
<g id="node13" class="node"><title>Node12</title>
<g id="a_node13"><a xlink:href="class_ogre_1_1_g_l_gpu_program_manager.html" target="_top" xlink:title="Ogre::GLGpuProgramManager">
<polygon fill="none" stroke="black" points="505,-240.5 505,-259.5 654,-259.5 654,-240.5 505,-240.5"/>
<text text-anchor="middle" x="579.5" y="-247.5" font-family="Helvetica,sans-Serif" font-size="10.00">Ogre::GLGpuProgramManager</text>
</a>
</g>
</g>
<!-- Node8&#45;&gt;Node12 -->
<g id="edge12" class="edge"><title>Node8&#45;&gt;Node12</title>
<path fill="none" stroke="midnightblue" d="M447.589,-276.39C474.398,-270.986 505.895,-264.636 531.276,-259.52"/>
<polygon fill="midnightblue" stroke="midnightblue" points="446.678,-273.004 437.567,-278.411 448.061,-279.866 446.678,-273.004"/>
</g>
<!-- Node13 -->
<g id="node14" class="node"><title>Node13</title>
<g id="a_node14"><a xlink:href="class_ogre_1_1_g_l_s_l_shader_manager.html" target="_top" xlink:title="Ogre::GLSLShaderManager">
<polygon fill="none" stroke="black" points="511,-202.5 511,-221.5 648,-221.5 648,-202.5 511,-202.5"/>
<text text-anchor="middle" x="579.5" y="-209.5" font-family="Helvetica,sans-Serif" font-size="10.00">Ogre::GLSLShaderManager</text>
</a>
</g>
</g>
<!-- Node8&#45;&gt;Node13 -->
<g id="edge13" class="edge"><title>Node8&#45;&gt;Node13</title>
<path fill="none" stroke="midnightblue" d="M448.422,-274.834C452.449,-273.116 456.352,-271.18 460,-269 479.969,-257.064 475.804,-242.547 496,-231 502.763,-227.134 510.261,-224.054 517.901,-221.6"/>
<polygon fill="midnightblue" stroke="midnightblue" points="446.972,-271.641 438.862,-278.459 449.453,-278.186 446.972,-271.641"/>
</g>
<!-- Node19 -->
<g id="node20" class="node"><title>Node19</title>
<g id="a_node20"><a xlink:href="class_ogre_1_1_d3_d11_texture_manager.html" target="_top" xlink:title="Ogre::D3D11TextureManager">
<polygon fill="none" stroke="black" points="507,-152.5 507,-171.5 652,-171.5 652,-152.5 507,-152.5"/>
<text text-anchor="middle" x="579.5" y="-159.5" font-family="Helvetica,sans-Serif" font-size="10.00">Ogre::D3D11TextureManager</text>
</a>
</g>
</g>
<!-- Node18&#45;&gt;Node19 -->
<g id="edge19" class="edge"><title>Node18&#45;&gt;Node19</title>
<path fill="none" stroke="midnightblue" d="M448.422,-99.1661C452.449,-100.884 456.352,-102.82 460,-105 479.969,-116.936 475.804,-131.453 496,-143 502.763,-146.866 510.261,-149.946 517.901,-152.4"/>
<polygon fill="midnightblue" stroke="midnightblue" points="449.453,-95.814 438.862,-95.5414 446.972,-102.359 449.453,-95.814"/>
</g>
<!-- Node20 -->
<g id="node21" class="node"><title>Node20</title>
<g id="a_node21"><a xlink:href="class_ogre_1_1_d3_d9_texture_manager.html" target="_top" xlink:title="Ogre::D3D9TextureManager">
<polygon fill="none" stroke="black" points="509.5,-114.5 509.5,-133.5 649.5,-133.5 649.5,-114.5 509.5,-114.5"/>
<text text-anchor="middle" x="579.5" y="-121.5" font-family="Helvetica,sans-Serif" font-size="10.00">Ogre::D3D9TextureManager</text>
</a>
</g>
</g>
<!-- Node18&#45;&gt;Node20 -->
<g id="edge20" class="edge"><title>Node18&#45;&gt;Node20</title>
<path fill="none" stroke="midnightblue" d="M447.589,-97.6095C474.398,-103.014 505.895,-109.364 531.276,-114.48"/>
<polygon fill="midnightblue" stroke="midnightblue" points="448.061,-94.1343 437.567,-95.589 446.678,-100.996 448.061,-94.1343"/>
</g>
<!-- Node21 -->
<g id="node22" class="node"><title>Node21</title>
<g id="a_node22"><a xlink:href="class_ogre_1_1_g_l3_plus_texture_manager.html" target="_top" xlink:title="GL3Plus&#45;specific implementation of a TextureManager. ">
<polygon fill="none" stroke="black" points="503.5,-76.5 503.5,-95.5 655.5,-95.5 655.5,-76.5 503.5,-76.5"/>
<text text-anchor="middle" x="579.5" y="-83.5" font-family="Helvetica,sans-Serif" font-size="10.00">Ogre::GL3PlusTextureManager</text>
</a>
</g>
</g>
<!-- Node18&#45;&gt;Node21 -->
<g id="edge21" class="edge"><title>Node18&#45;&gt;Node21</title>
<path fill="none" stroke="midnightblue" d="M456.394,-86C471.618,-86 487.909,-86 503.469,-86"/>
<polygon fill="midnightblue" stroke="midnightblue" points="456.046,-82.5001 446.046,-86 456.046,-89.5001 456.046,-82.5001"/>
</g>
<!-- Node22 -->
<g id="node23" class="node"><title>Node22</title>
<g id="a_node23"><a xlink:href="class_ogre_1_1_g_l_e_s2_texture_manager.html" target="_top" xlink:title="GL ES&#45;specific implementation of a TextureManager. ">
<polygon fill="none" stroke="black" points="506.5,-38.5 506.5,-57.5 652.5,-57.5 652.5,-38.5 506.5,-38.5"/>
<text text-anchor="middle" x="579.5" y="-45.5" font-family="Helvetica,sans-Serif" font-size="10.00">Ogre::GLES2TextureManager</text>
</a>
</g>
</g>
<!-- Node18&#45;&gt;Node22 -->
<g id="edge22" class="edge"><title>Node18&#45;&gt;Node22</title>
<path fill="none" stroke="midnightblue" d="M447.589,-74.3905C474.398,-68.986 505.895,-62.6365 531.276,-57.5201"/>
<polygon fill="midnightblue" stroke="midnightblue" points="446.678,-71.0038 437.567,-76.411 448.061,-77.8657 446.678,-71.0038"/>
</g>
<!-- Node23 -->
<g id="node24" class="node"><title>Node23</title>
<g id="a_node24"><a xlink:href="class_ogre_1_1_g_l_texture_manager.html" target="_top" xlink:title="GL&#45;specific implementation of a TextureManager. ">
<polygon fill="none" stroke="black" points="516,-0.5 516,-19.5 643,-19.5 643,-0.5 516,-0.5"/>
<text text-anchor="middle" x="579.5" y="-7.5" font-family="Helvetica,sans-Serif" font-size="10.00">Ogre::GLTextureManager</text>
</a>
</g>
</g>
<!-- Node18&#45;&gt;Node23 -->
<g id="edge23" class="edge"><title>Node18&#45;&gt;Node23</title>
<path fill="none" stroke="midnightblue" d="M413.369,-71.0704C434.294,-58.2865 466.188,-40.2168 496,-29 505.905,-25.2734 516.764,-22.1401 527.257,-19.5611"/>
<polygon fill="midnightblue" stroke="midnightblue" points="411.495,-68.1139 404.842,-76.3592 415.185,-74.0625 411.495,-68.1139"/>
</g>
</g>
</svg>
