<?xml version="1.0" encoding="UTF-8" standalone="no"?>
<!DOCTYPE svg PUBLIC "-//W3C//DTD SVG 1.1//EN"
 "http://www.w3.org/Graphics/SVG/1.1/DTD/svg11.dtd">
<!-- Generated by graphviz version 2.38.0 (20140413.2041)
 -->
<!-- Title: Graphical Class Hierarchy Pages: 1 -->
<svg width="230pt" height="66pt"
 viewBox="0.00 0.00 230.00 66.00" xmlns="http://www.w3.org/2000/svg" xmlns:xlink="http://www.w3.org/1999/xlink">
<g id="graph0" class="graph" transform="scale(1 1) rotate(0) translate(4 62)">
<title>Graphical Class Hierarchy</title>
<!-- Node0 -->
<g id="node1" class="node"><title>Node0</title>
<g id="a_node1"><a xlink:href="class_ogre_1_1_transform_base.html" target="_top" xlink:title="Class encapsulating a standard 4x4 homogeneous matrix. ">
<polygon fill="none" stroke="black" points="0,-19.5 0,-38.5 110,-38.5 110,-19.5 0,-19.5"/>
<text text-anchor="middle" x="55" y="-26.5" font-family="Helvetica,sans-Serif" font-size="10.00">Ogre::TransformBase</text>
</a>
</g>
</g>
<!-- Node1 -->
<g id="node2" class="node"><title>Node1</title>
<g id="a_node2"><a xlink:href="class_ogre_1_1_affine3.html" target="_top" xlink:title="Transform specialization for 3D Affine &#45; encapsulating a 3x4 Matrix. ">
<polygon fill="none" stroke="black" points="147,-38.5 147,-57.5 221,-57.5 221,-38.5 147,-38.5"/>
<text text-anchor="middle" x="184" y="-45.5" font-family="Helvetica,sans-Serif" font-size="10.00">Ogre::Affine3</text>
</a>
</g>
</g>
<!-- Node0&#45;&gt;Node1 -->
<g id="edge1" class="edge"><title>Node0&#45;&gt;Node1</title>
<path fill="none" stroke="midnightblue" d="M120.179,-38.6015C129.376,-39.9775 138.554,-41.3506 146.941,-42.6054"/>
<polygon fill="midnightblue" stroke="midnightblue" points="120.636,-35.131 110.228,-37.1128 119.6,-42.054 120.636,-35.131"/>
</g>
<!-- Node2 -->
<g id="node3" class="node"><title>Node2</title>
<g id="a_node3"><a xlink:href="class_ogre_1_1_matrix4.html" target="_top" xlink:title="Transform specialization for projective &#45; encapsulating a 4x4 Matrix. ">
<polygon fill="none" stroke="black" points="146,-0.5 146,-19.5 222,-19.5 222,-0.5 146,-0.5"/>
<text text-anchor="middle" x="184" y="-7.5" font-family="Helvetica,sans-Serif" font-size="10.00">Ogre::Matrix4</text>
</a>
</g>
</g>
<!-- Node0&#45;&gt;Node2 -->
<g id="edge2" class="edge"><title>Node0&#45;&gt;Node2</title>
<path fill="none" stroke="midnightblue" d="M120.137,-19.4047C128.94,-18.0877 137.726,-16.7733 145.819,-15.5624"/>
<polygon fill="midnightblue" stroke="midnightblue" points="119.6,-15.946 110.228,-20.8872 120.636,-22.869 119.6,-15.946"/>
</g>
</g>
</svg>
