<?xml version="1.0" encoding="UTF-8" standalone="no"?>
<!DOCTYPE svg PUBLIC "-//W3C//DTD SVG 1.1//EN"
 "http://www.w3.org/Graphics/SVG/1.1/DTD/svg11.dtd">
<!-- Generated by graphviz version 2.38.0 (20140413.2041)
 -->
<!-- Title: Graphical Class Hierarchy Pages: 1 -->
<svg width="687pt" height="332pt"
 viewBox="0.00 0.00 687.00 332.00" xmlns="http://www.w3.org/2000/svg" xmlns:xlink="http://www.w3.org/1999/xlink">
<g id="graph0" class="graph" transform="scale(1 1) rotate(0) translate(4 328)">
<title>Graphical Class Hierarchy</title>
<!-- Node5 -->
<g id="node1" class="node"><title>Node5</title>
<g id="a_node1"><a xlink:href="class_ogre_1_1_invalid_state_exception.html" target="_top" xlink:title="Ogre::InvalidStateException">
<polygon fill="none" stroke="black" points="0,-152.5 0,-171.5 139,-171.5 139,-152.5 0,-152.5"/>
<text text-anchor="middle" x="69.5" y="-159.5" font-family="Helvetica,sans-Serif" font-size="10.00">Ogre::InvalidStateException</text>
</a>
</g>
</g>
<!-- Node0 -->
<g id="node2" class="node"><title>Node0</title>
<g id="a_node2"><a xlink:href="class_ogre_1_1_exception.html" target="_top" xlink:title="When thrown, provides information about an error that has occurred inside the engine. ">
<polygon fill="none" stroke="black" points="175,-152.5 175,-171.5 262,-171.5 262,-152.5 175,-152.5"/>
<text text-anchor="middle" x="218.5" y="-159.5" font-family="Helvetica,sans-Serif" font-size="10.00">Ogre::Exception</text>
</a>
</g>
</g>
<!-- Node5&#45;&gt;Node0 -->
<g id="edge1" class="edge"><title>Node5&#45;&gt;Node0</title>
<path fill="none" stroke="midnightblue" d="M149.491,-155.267C158.186,-155.32 166.778,-155.5 174.776,-155.806"/>
<polygon fill="midnightblue" stroke="midnightblue" points="149.267,-151.767 139.266,-155.262 149.264,-158.767 149.267,-151.767"/>
</g>
<!-- Node0&#45;&gt;Node5 -->
<g id="edge6" class="edge"><title>Node0&#45;&gt;Node5</title>
<path fill="none" stroke="midnightblue" d="M164.596,-168.509C156.374,-168.706 147.777,-168.782 139.266,-168.738"/>
<polygon fill="midnightblue" stroke="midnightblue" points="164.889,-172.001 174.776,-168.194 164.673,-165.005 164.889,-172.001"/>
</g>
<!-- Node1 -->
<g id="node3" class="node"><title>Node1</title>
<g id="a_node3"><a xlink:href="class_ogre_1_1_file_not_found_exception.html" target="_top" xlink:title="Ogre::FileNotFoundException">
<polygon fill="none" stroke="black" points="308,-304.5 308,-323.5 454,-323.5 454,-304.5 308,-304.5"/>
<text text-anchor="middle" x="381" y="-311.5" font-family="Helvetica,sans-Serif" font-size="10.00">Ogre::FileNotFoundException</text>
</a>
</g>
</g>
<!-- Node0&#45;&gt;Node1 -->
<g id="edge2" class="edge"><title>Node0&#45;&gt;Node1</title>
<path fill="none" stroke="midnightblue" d="M225.411,-181.361C235.404,-210.695 258.502,-266.041 298,-295 303.303,-298.888 309.276,-301.997 315.519,-304.479"/>
<polygon fill="midnightblue" stroke="midnightblue" points="228.628,-179.935 222.216,-171.501 221.969,-182.093 228.628,-179.935"/>
</g>
<!-- Node2 -->
<g id="node4" class="node"><title>Node2</title>
<g id="a_node4"><a xlink:href="class_ogre_1_1_internal_error_exception.html" target="_top" xlink:title="Ogre::InternalErrorException">
<polygon fill="none" stroke="black" points="311,-266.5 311,-285.5 451,-285.5 451,-266.5 311,-266.5"/>
<text text-anchor="middle" x="381" y="-273.5" font-family="Helvetica,sans-Serif" font-size="10.00">Ogre::InternalErrorException</text>
</a>
</g>
</g>
<!-- Node0&#45;&gt;Node2 -->
<g id="edge3" class="edge"><title>Node0&#45;&gt;Node2</title>
<path fill="none" stroke="midnightblue" d="M229.659,-180.494C242.609,-202.265 267.073,-237.87 298,-257 304.214,-260.844 311.129,-263.911 318.233,-266.358"/>
<polygon fill="midnightblue" stroke="midnightblue" points="232.552,-178.504 224.538,-171.574 226.482,-181.989 232.552,-178.504"/>
</g>
<!-- Node3 -->
<g id="node5" class="node"><title>Node3</title>
<g id="a_node5"><a xlink:href="class_ogre_1_1_invalid_call_exception.html" target="_top" xlink:title="Ogre::InvalidCallException">
<polygon fill="none" stroke="black" points="314.5,-228.5 314.5,-247.5 447.5,-247.5 447.5,-228.5 314.5,-228.5"/>
<text text-anchor="middle" x="381" y="-235.5" font-family="Helvetica,sans-Serif" font-size="10.00">Ogre::InvalidCallException</text>
</a>
</g>
</g>
<!-- Node0&#45;&gt;Node3 -->
<g id="edge4" class="edge"><title>Node0&#45;&gt;Node3</title>
<path fill="none" stroke="midnightblue" d="M237.363,-178.222C252.474,-191.104 275.244,-208.622 298,-219 306.376,-222.82 315.596,-225.91 324.737,-228.399"/>
<polygon fill="midnightblue" stroke="midnightblue" points="239.638,-175.562 229.805,-171.617 235.032,-180.833 239.638,-175.562"/>
</g>
<!-- Node4 -->
<g id="node6" class="node"><title>Node4</title>
<g id="a_node6"><a xlink:href="class_ogre_1_1_invalid_parameters_exception.html" target="_top" xlink:title="Ogre::InvalidParametersException">
<polygon fill="none" stroke="black" points="298,-190.5 298,-209.5 464,-209.5 464,-190.5 298,-190.5"/>
<text text-anchor="middle" x="381" y="-197.5" font-family="Helvetica,sans-Serif" font-size="10.00">Ogre::InvalidParametersException</text>
</a>
</g>
</g>
<!-- Node0&#45;&gt;Node4 -->
<g id="edge5" class="edge"><title>Node0&#45;&gt;Node4</title>
<path fill="none" stroke="midnightblue" d="M268.574,-173.956C278.32,-176.308 288.481,-178.745 298,-181 311.082,-184.099 325.352,-187.424 338.266,-190.413"/>
<polygon fill="midnightblue" stroke="midnightblue" points="269.155,-170.496 258.613,-171.546 267.509,-177.299 269.155,-170.496"/>
</g>
<!-- Node6 -->
<g id="node7" class="node"><title>Node6</title>
<g id="a_node7"><a xlink:href="class_ogre_1_1_i_o_exception.html" target="_top" xlink:title="Ogre::IOException">
<polygon fill="none" stroke="black" points="332,-152.5 332,-171.5 430,-171.5 430,-152.5 332,-152.5"/>
<text text-anchor="middle" x="381" y="-159.5" font-family="Helvetica,sans-Serif" font-size="10.00">Ogre::IOException</text>
</a>
</g>
</g>
<!-- Node0&#45;&gt;Node6 -->
<g id="edge7" class="edge"><title>Node0&#45;&gt;Node6</title>
<path fill="none" stroke="midnightblue" d="M272.187,-162C291.403,-162 313.018,-162 331.822,-162"/>
<polygon fill="midnightblue" stroke="midnightblue" points="272.09,-158.5 262.09,-162 272.09,-165.5 272.09,-158.5"/>
</g>
<!-- Node7 -->
<g id="node8" class="node"><title>Node7</title>
<g id="a_node8"><a xlink:href="class_ogre_1_1_item_identity_exception.html" target="_top" xlink:title="Ogre::ItemIdentityException">
<polygon fill="none" stroke="black" points="311.5,-114.5 311.5,-133.5 450.5,-133.5 450.5,-114.5 311.5,-114.5"/>
<text text-anchor="middle" x="381" y="-121.5" font-family="Helvetica,sans-Serif" font-size="10.00">Ogre::ItemIdentityException</text>
</a>
</g>
</g>
<!-- Node0&#45;&gt;Node7 -->
<g id="edge8" class="edge"><title>Node0&#45;&gt;Node7</title>
<path fill="none" stroke="midnightblue" d="M268.574,-150.044C278.32,-147.692 288.481,-145.255 298,-143 311.082,-139.901 325.352,-136.576 338.266,-133.587"/>
<polygon fill="midnightblue" stroke="midnightblue" points="267.509,-146.701 258.613,-152.454 269.155,-153.504 267.509,-146.701"/>
</g>
<!-- Node8 -->
<g id="node9" class="node"><title>Node8</title>
<g id="a_node9"><a xlink:href="class_ogre_1_1_rendering_a_p_i_exception.html" target="_top" xlink:title="Ogre::RenderingAPIException">
<polygon fill="none" stroke="black" points="307,-76.5 307,-95.5 455,-95.5 455,-76.5 307,-76.5"/>
<text text-anchor="middle" x="381" y="-83.5" font-family="Helvetica,sans-Serif" font-size="10.00">Ogre::RenderingAPIException</text>
</a>
</g>
</g>
<!-- Node0&#45;&gt;Node8 -->
<g id="edge9" class="edge"><title>Node0&#45;&gt;Node8</title>
<path fill="none" stroke="midnightblue" d="M237.363,-145.778C252.474,-132.896 275.244,-115.378 298,-105 306.376,-101.18 315.596,-98.0895 324.737,-95.6008"/>
<polygon fill="midnightblue" stroke="midnightblue" points="235.032,-143.167 229.805,-152.383 239.638,-148.438 235.032,-143.167"/>
</g>
<!-- Node10 -->
<g id="node11" class="node"><title>Node10</title>
<g id="a_node11"><a xlink:href="class_ogre_1_1_runtime_assertion_exception.html" target="_top" xlink:title="Ogre::RuntimeAssertionException">
<polygon fill="none" stroke="black" points="298.5,-38.5 298.5,-57.5 463.5,-57.5 463.5,-38.5 298.5,-38.5"/>
<text text-anchor="middle" x="381" y="-45.5" font-family="Helvetica,sans-Serif" font-size="10.00">Ogre::RuntimeAssertionException</text>
</a>
</g>
</g>
<!-- Node0&#45;&gt;Node10 -->
<g id="edge11" class="edge"><title>Node0&#45;&gt;Node10</title>
<path fill="none" stroke="midnightblue" d="M229.659,-143.506C242.609,-121.735 267.073,-86.13 298,-67 304.214,-63.1563 311.129,-60.0893 318.233,-57.6422"/>
<polygon fill="midnightblue" stroke="midnightblue" points="226.482,-142.011 224.538,-152.426 232.552,-145.496 226.482,-142.011"/>
</g>
<!-- Node11 -->
<g id="node12" class="node"><title>Node11</title>
<g id="a_node12"><a xlink:href="class_ogre_1_1_unimplemented_exception.html" target="_top" xlink:title="Template struct which creates a distinct type for each exception code. ">
<polygon fill="none" stroke="black" points="303.5,-0.5 303.5,-19.5 458.5,-19.5 458.5,-0.5 303.5,-0.5"/>
<text text-anchor="middle" x="381" y="-7.5" font-family="Helvetica,sans-Serif" font-size="10.00">Ogre::UnimplementedException</text>
</a>
</g>
</g>
<!-- Node0&#45;&gt;Node11 -->
<g id="edge12" class="edge"><title>Node0&#45;&gt;Node11</title>
<path fill="none" stroke="midnightblue" d="M225.411,-142.639C235.404,-113.305 258.502,-57.9586 298,-29 303.303,-25.1118 309.276,-22.0034 315.519,-19.5209"/>
<polygon fill="midnightblue" stroke="midnightblue" points="221.969,-141.907 222.216,-152.499 228.628,-144.065 221.969,-141.907"/>
</g>
<!-- Node9 -->
<g id="node10" class="node"><title>Node9</title>
<g id="a_node10"><a xlink:href="class_ogre_1_1_d3_d11_rendering_a_p_i_exception.html" target="_top" xlink:title="Ogre::D3D11RenderingAPIException">
<polygon fill="none" stroke="black" points="500,-76.5 500,-95.5 679,-95.5 679,-76.5 500,-76.5"/>
<text text-anchor="middle" x="589.5" y="-83.5" font-family="Helvetica,sans-Serif" font-size="10.00">Ogre::D3D11RenderingAPIException</text>
</a>
</g>
</g>
<!-- Node8&#45;&gt;Node9 -->
<g id="edge10" class="edge"><title>Node8&#45;&gt;Node9</title>
<path fill="none" stroke="midnightblue" d="M465.419,-86C476.781,-86 488.475,-86 499.924,-86"/>
<polygon fill="midnightblue" stroke="midnightblue" points="465.095,-82.5001 455.095,-86 465.095,-89.5001 465.095,-82.5001"/>
</g>
</g>
</svg>
