<?xml version="1.0" encoding="UTF-8" standalone="no"?>
<!DOCTYPE svg PUBLIC "-//W3C//DTD SVG 1.1//EN"
 "http://www.w3.org/Graphics/SVG/1.1/DTD/svg11.dtd">
<!-- Generated by graphviz version 2.38.0 (20140413.2041)
 -->
<!-- Title: Graphical Class Hierarchy Pages: 1 -->
<svg width="293pt" height="1883pt"
 viewBox="0.00 0.00 293.00 1882.50" xmlns="http://www.w3.org/2000/svg" xmlns:xlink="http://www.w3.org/1999/xlink">
<g id="graph0" class="graph" transform="scale(1 1) rotate(0) translate(4 1878.5)">
<title>Graphical Class Hierarchy</title>
<!-- Node1339 -->
<g id="node1" class="node"><title>Node1339</title>
<polygon fill="none" stroke="#bfbfbf" points="0,-960 0,-979 62,-979 62,-960 0,-960"/>
<text text-anchor="middle" x="31" y="-967" font-family="Helvetica,sans-Serif" font-size="10.00">shared_ptr</text>
</g>
<!-- Node0 -->
<g id="node2" class="node"><title>Node0</title>
<g id="a_node2"><a xlink:href="class_ogre_1_1_shared_ptr.html" target="_top" xlink:title="Ogre::SharedPtr\&lt; T \&gt;">
<polygon fill="none" stroke="black" points="136,-1855 136,-1874 247,-1874 247,-1855 136,-1855"/>
<text text-anchor="middle" x="191.5" y="-1862" font-family="Helvetica,sans-Serif" font-size="10.00">Ogre::SharedPtr&lt; T &gt;</text>
</a>
</g>
</g>
<!-- Node1339&#45;&gt;Node0 -->
<g id="edge1" class="edge"><title>Node1339&#45;&gt;Node0</title>
<path fill="none" stroke="midnightblue" d="M32.0904,-989.378C32.8363,-1113.51 39.5547,-1779.09 98,-1845.5 107.531,-1856.33 121.44,-1861.96 135.591,-1864.68"/>
<polygon fill="midnightblue" stroke="midnightblue" points="35.5889,-989.075 32.0353,-979.094 28.589,-989.112 35.5889,-989.075"/>
</g>
<!-- Node1341 -->
<g id="node3" class="node"><title>Node1341</title>
<g id="a_node3"><a xlink:href="class_ogre_1_1_shared_ptr.html" target="_top" xlink:title="Ogre::SharedPtr\&lt; Abstract\lNodeList \&gt;">
<polygon fill="none" stroke="black" points="125,-1805.5 125,-1835.5 258,-1835.5 258,-1805.5 125,-1805.5"/>
<text text-anchor="start" x="133" y="-1823.5" font-family="Helvetica,sans-Serif" font-size="10.00">Ogre::SharedPtr&lt; Abstract</text>
<text text-anchor="middle" x="191.5" y="-1812.5" font-family="Helvetica,sans-Serif" font-size="10.00">NodeList &gt;</text>
</a>
</g>
</g>
<!-- Node1339&#45;&gt;Node1341 -->
<g id="edge2" class="edge"><title>Node1339&#45;&gt;Node1341</title>
<path fill="none" stroke="midnightblue" d="M32.2293,-989.332C33.7891,-1109.09 44.4548,-1732.71 98,-1796.5 105.04,-1804.89 114.598,-1810.54 124.908,-1814.32"/>
<polygon fill="midnightblue" stroke="midnightblue" points="35.7261,-989.04 32.1025,-979.084 28.7266,-989.127 35.7261,-989.04"/>
</g>
<!-- Node1342 -->
<g id="node4" class="node"><title>Node1342</title>
<g id="a_node4"><a xlink:href="class_ogre_1_1_shared_ptr.html" target="_top" xlink:title="Ogre::SharedPtr\&lt; Animable\lValue \&gt;">
<polygon fill="none" stroke="black" points="123,-1756.5 123,-1786.5 260,-1786.5 260,-1756.5 123,-1756.5"/>
<text text-anchor="start" x="131" y="-1774.5" font-family="Helvetica,sans-Serif" font-size="10.00">Ogre::SharedPtr&lt; Animable</text>
<text text-anchor="middle" x="191.5" y="-1763.5" font-family="Helvetica,sans-Serif" font-size="10.00">Value &gt;</text>
</a>
</g>
</g>
<!-- Node1339&#45;&gt;Node1342 -->
<g id="edge3" class="edge"><title>Node1339&#45;&gt;Node1342</title>
<path fill="none" stroke="midnightblue" d="M32.3433,-989.189C34.522,-1104.25 47.9766,-1686.6 98,-1746.5 104.504,-1754.29 113.161,-1759.79 122.575,-1763.64"/>
<polygon fill="midnightblue" stroke="midnightblue" points="35.8399,-988.962 32.1577,-979.028 28.841,-989.09 35.8399,-988.962"/>
</g>
<!-- Node1343 -->
<g id="node5" class="node"><title>Node1343</title>
<g id="a_node5"><a xlink:href="class_ogre_1_1_shared_ptr.html" target="_top" xlink:title="Ogre::SharedPtr\&lt; BspLevel \&gt;">
<polygon fill="none" stroke="black" points="118.5,-1718 118.5,-1737 264.5,-1737 264.5,-1718 118.5,-1718"/>
<text text-anchor="middle" x="191.5" y="-1725" font-family="Helvetica,sans-Serif" font-size="10.00">Ogre::SharedPtr&lt; BspLevel &gt;</text>
</a>
</g>
</g>
<!-- Node1339&#45;&gt;Node1343 -->
<g id="edge4" class="edge"><title>Node1339&#45;&gt;Node1343</title>
<path fill="none" stroke="midnightblue" d="M32.3821,-989.307C34.7244,-1101.41 48.712,-1653.27 98,-1708.5 103.567,-1714.74 110.588,-1719.24 118.261,-1722.46"/>
<polygon fill="midnightblue" stroke="midnightblue" points="35.8772,-989.026 32.1761,-979.099 28.8787,-989.167 35.8772,-989.026"/>
</g>
<!-- Node1344 -->
<g id="node6" class="node"><title>Node1344</title>
<g id="a_node6"><a xlink:href="class_ogre_1_1_shared_ptr.html" target="_top" xlink:title="Ogre::SharedPtr\&lt; Controller\lFunction\&lt; Real \&gt; \&gt;">
<polygon fill="none" stroke="black" points="122.5,-1668.5 122.5,-1698.5 260.5,-1698.5 260.5,-1668.5 122.5,-1668.5"/>
<text text-anchor="start" x="130.5" y="-1686.5" font-family="Helvetica,sans-Serif" font-size="10.00">Ogre::SharedPtr&lt; Controller</text>
<text text-anchor="middle" x="191.5" y="-1675.5" font-family="Helvetica,sans-Serif" font-size="10.00">Function&lt; Real &gt; &gt;</text>
</a>
</g>
</g>
<!-- Node1339&#45;&gt;Node1344 -->
<g id="edge5" class="edge"><title>Node1339&#45;&gt;Node1344</title>
<path fill="none" stroke="midnightblue" d="M32.5596,-989.285C35.7715,-1096.72 53.312,-1607.1 98,-1659.5 104.46,-1667.07 112.972,-1672.42 122.221,-1676.16"/>
<polygon fill="midnightblue" stroke="midnightblue" points="36.0552,-989.082 32.2649,-979.188 29.0582,-989.286 36.0552,-989.082"/>
</g>
<!-- Node1345 -->
<g id="node7" class="node"><title>Node1345</title>
<g id="a_node7"><a xlink:href="class_ogre_1_1_shared_ptr.html" target="_top" xlink:title="Ogre::SharedPtr\&lt; Controller\lValue\&lt; Real \&gt; \&gt;">
<polygon fill="none" stroke="black" points="122.5,-1619.5 122.5,-1649.5 260.5,-1649.5 260.5,-1619.5 122.5,-1619.5"/>
<text text-anchor="start" x="130.5" y="-1637.5" font-family="Helvetica,sans-Serif" font-size="10.00">Ogre::SharedPtr&lt; Controller</text>
<text text-anchor="middle" x="191.5" y="-1626.5" font-family="Helvetica,sans-Serif" font-size="10.00">Value&lt; Real &gt; &gt;</text>
</a>
</g>
</g>
<!-- Node1339&#45;&gt;Node1345 -->
<g id="edge6" class="edge"><title>Node1339&#45;&gt;Node1345</title>
<path fill="none" stroke="midnightblue" d="M32.7298,-989.427C36.6733,-1092.37 56.8,-1561.06 98,-1609.5 104.467,-1617.1 112.983,-1622.52 122.233,-1626.35"/>
<polygon fill="midnightblue" stroke="midnightblue" points="36.2186,-989.06 32.3457,-979.199 29.2236,-989.323 36.2186,-989.06"/>
</g>
<!-- Node1346 -->
<g id="node8" class="node"><title>Node1346</title>
<g id="a_node8"><a xlink:href="class_ogre_1_1_shared_ptr.html" target="_top" xlink:title="Ogre::SharedPtr\&lt; DataStream \&gt;">
<polygon fill="none" stroke="black" points="112.5,-1581 112.5,-1600 270.5,-1600 270.5,-1581 112.5,-1581"/>
<text text-anchor="middle" x="191.5" y="-1588" font-family="Helvetica,sans-Serif" font-size="10.00">Ogre::SharedPtr&lt; DataStream &gt;</text>
</a>
</g>
</g>
<!-- Node1339&#45;&gt;Node1346 -->
<g id="edge7" class="edge"><title>Node1339&#45;&gt;Node1346</title>
<path fill="none" stroke="midnightblue" d="M32.8016,-989.212C37.0017,-1088.13 57.8223,-1527.38 98,-1571.5 102.084,-1575.98 106.92,-1579.57 112.205,-1582.42"/>
<polygon fill="midnightblue" stroke="midnightblue" points="36.2941,-988.955 32.3808,-979.109 29.3001,-989.246 36.2941,-988.955"/>
</g>
<!-- Node1347 -->
<g id="node9" class="node"><title>Node1347</title>
<g id="a_node9"><a xlink:href="class_ogre_1_1_shared_ptr.html" target="_top" xlink:title="Ogre::SharedPtr\&lt; Font \&gt;">
<polygon fill="none" stroke="black" points="129,-1543 129,-1562 254,-1562 254,-1543 129,-1543"/>
<text text-anchor="middle" x="191.5" y="-1550" font-family="Helvetica,sans-Serif" font-size="10.00">Ogre::SharedPtr&lt; Font &gt;</text>
</a>
</g>
</g>
<!-- Node1339&#45;&gt;Node1347 -->
<g id="edge8" class="edge"><title>Node1339&#45;&gt;Node1347</title>
<path fill="none" stroke="midnightblue" d="M32.9668,-989.457C37.773,-1084.97 60.3753,-1492.49 98,-1533.5 106.091,-1542.32 117.088,-1547.65 128.678,-1550.77"/>
<polygon fill="midnightblue" stroke="midnightblue" points="36.4593,-989.216 32.4691,-979.401 29.4678,-989.562 36.4593,-989.216"/>
</g>
<!-- Node1348 -->
<g id="node10" class="node"><title>Node1348</title>
<g id="a_node10"><a xlink:href="class_ogre_1_1_shared_ptr.html" target="_top" xlink:title="Ogre::SharedPtr\&lt; GpuLogical\lBufferStruct \&gt;">
<polygon fill="none" stroke="black" points="119,-1493.5 119,-1523.5 264,-1523.5 264,-1493.5 119,-1493.5"/>
<text text-anchor="start" x="127" y="-1511.5" font-family="Helvetica,sans-Serif" font-size="10.00">Ogre::SharedPtr&lt; GpuLogical</text>
<text text-anchor="middle" x="191.5" y="-1500.5" font-family="Helvetica,sans-Serif" font-size="10.00">BufferStruct &gt;</text>
</a>
</g>
</g>
<!-- Node1339&#45;&gt;Node1348 -->
<g id="edge9" class="edge"><title>Node1339&#45;&gt;Node1348</title>
<path fill="none" stroke="midnightblue" d="M31.6925,-989.482C30.7919,-1074.99 31.6325,-1409.16 98,-1484.5 103.703,-1490.97 110.905,-1495.81 118.763,-1499.4"/>
<polygon fill="midnightblue" stroke="midnightblue" points="35.1942,-989.36 31.8215,-979.316 28.1948,-989.271 35.1942,-989.36"/>
</g>
<!-- Node1349 -->
<g id="node11" class="node"><title>Node1349</title>
<g id="a_node11"><a xlink:href="class_ogre_1_1_shared_ptr.html" target="_top" xlink:title="Ogre::SharedPtr\&lt; GpuNamed\lConstants \&gt;">
<polygon fill="none" stroke="black" points="118.5,-1444.5 118.5,-1474.5 264.5,-1474.5 264.5,-1444.5 118.5,-1444.5"/>
<text text-anchor="start" x="126.5" y="-1462.5" font-family="Helvetica,sans-Serif" font-size="10.00">Ogre::SharedPtr&lt; GpuNamed</text>
<text text-anchor="middle" x="191.5" y="-1451.5" font-family="Helvetica,sans-Serif" font-size="10.00">Constants &gt;</text>
</a>
</g>
</g>
<!-- Node1339&#45;&gt;Node1349 -->
<g id="edge10" class="edge"><title>Node1339&#45;&gt;Node1349</title>
<path fill="none" stroke="midnightblue" d="M32.0165,-989.278C32.4892,-1069.16 38.2912,-1366.96 98,-1434.5 103.619,-1440.86 110.671,-1445.67 118.36,-1449.31"/>
<polygon fill="midnightblue" stroke="midnightblue" points="35.5161,-989.113 31.9797,-979.126 28.5161,-989.139 35.5161,-989.113"/>
</g>
<!-- Node1350 -->
<g id="node12" class="node"><title>Node1350</title>
<g id="a_node12"><a xlink:href="class_ogre_1_1_shared_ptr.html" target="_top" xlink:title="Ogre::SharedPtr\&lt; GpuProgram \&gt;">
<polygon fill="none" stroke="black" points="111.5,-1406 111.5,-1425 271.5,-1425 271.5,-1406 111.5,-1406"/>
<text text-anchor="middle" x="191.5" y="-1413" font-family="Helvetica,sans-Serif" font-size="10.00">Ogre::SharedPtr&lt; GpuProgram &gt;</text>
</a>
</g>
</g>
<!-- Node1339&#45;&gt;Node1350 -->
<g id="edge11" class="edge"><title>Node1339&#45;&gt;Node1350</title>
<path fill="none" stroke="midnightblue" d="M32.1774,-989.2C33.2765,-1065.03 41.1802,-1336.81 98,-1396.5 101.843,-1400.54 106.297,-1403.84 111.132,-1406.52"/>
<polygon fill="midnightblue" stroke="midnightblue" points="35.6764,-989.083 32.0563,-979.126 28.6769,-989.167 35.6764,-989.083"/>
</g>
<!-- Node1351 -->
<g id="node13" class="node"><title>Node1351</title>
<g id="a_node13"><a xlink:href="class_ogre_1_1_shared_ptr.html" target="_top" xlink:title="Ogre::SharedPtr\&lt; GpuProgram\lParameters \&gt;">
<polygon fill="none" stroke="black" points="116,-1356.5 116,-1386.5 267,-1386.5 267,-1356.5 116,-1356.5"/>
<text text-anchor="start" x="124" y="-1374.5" font-family="Helvetica,sans-Serif" font-size="10.00">Ogre::SharedPtr&lt; GpuProgram</text>
<text text-anchor="middle" x="191.5" y="-1363.5" font-family="Helvetica,sans-Serif" font-size="10.00">Parameters &gt;</text>
</a>
</g>
</g>
<!-- Node1339&#45;&gt;Node1351 -->
<g id="edge12" class="edge"><title>Node1339&#45;&gt;Node1351</title>
<path fill="none" stroke="midnightblue" d="M32.701,-989.061C35.5996,-1058.85 48.9117,-1294.27 98,-1347.5 103.061,-1352.99 109.201,-1357.29 115.884,-1360.65"/>
<polygon fill="midnightblue" stroke="midnightblue" points="36.196,-988.862 32.3094,-979.006 29.2013,-989.135 36.196,-988.862"/>
</g>
<!-- Node1352 -->
<g id="node14" class="node"><title>Node1352</title>
<g id="a_node14"><a xlink:href="class_ogre_1_1_shared_ptr.html" target="_top" xlink:title="Ogre::SharedPtr\&lt; GpuShared\lParameters \&gt;">
<polygon fill="none" stroke="black" points="119,-1307.5 119,-1337.5 264,-1337.5 264,-1307.5 119,-1307.5"/>
<text text-anchor="start" x="127" y="-1325.5" font-family="Helvetica,sans-Serif" font-size="10.00">Ogre::SharedPtr&lt; GpuShared</text>
<text text-anchor="middle" x="191.5" y="-1314.5" font-family="Helvetica,sans-Serif" font-size="10.00">Parameters &gt;</text>
</a>
</g>
</g>
<!-- Node1339&#45;&gt;Node1352 -->
<g id="edge13" class="edge"><title>Node1339&#45;&gt;Node1352</title>
<path fill="none" stroke="midnightblue" d="M33.2774,-989.351C37.7992,-1053.42 55.1378,-1253.17 98,-1298.5 103.814,-1304.65 110.982,-1309.3 118.735,-1312.8"/>
<polygon fill="midnightblue" stroke="midnightblue" points="36.7466,-988.775 32.579,-979.035 29.7625,-989.248 36.7466,-988.775"/>
</g>
<!-- Node1353 -->
<g id="node15" class="node"><title>Node1353</title>
<g id="a_node15"><a xlink:href="class_ogre_1_1_shared_ptr.html" target="_top" xlink:title="Ogre::SharedPtr\&lt; Hardware\lIndexBuffer \&gt;">
<polygon fill="none" stroke="black" points="122.5,-1258.5 122.5,-1288.5 260.5,-1288.5 260.5,-1258.5 122.5,-1258.5"/>
<text text-anchor="start" x="130.5" y="-1276.5" font-family="Helvetica,sans-Serif" font-size="10.00">Ogre::SharedPtr&lt; Hardware</text>
<text text-anchor="middle" x="191.5" y="-1265.5" font-family="Helvetica,sans-Serif" font-size="10.00">IndexBuffer &gt;</text>
</a>
</g>
</g>
<!-- Node1339&#45;&gt;Node1353 -->
<g id="edge14" class="edge"><title>Node1339&#45;&gt;Node1353</title>
<path fill="none" stroke="midnightblue" d="M34.0309,-989.331C40.3125,-1046.83 61.2492,-1211.92 98,-1249.5 104.728,-1256.38 113.155,-1261.37 122.166,-1264.98"/>
<polygon fill="midnightblue" stroke="midnightblue" points="37.4764,-988.631 32.9409,-979.056 30.5154,-989.369 37.4764,-988.631"/>
</g>
<!-- Node1354 -->
<g id="node16" class="node"><title>Node1354</title>
<g id="a_node16"><a xlink:href="class_ogre_1_1_shared_ptr.html" target="_top" xlink:title="Ogre::SharedPtr\&lt; Hardware\lUniformBuffer \&gt;">
<polygon fill="none" stroke="black" points="122.5,-1209.5 122.5,-1239.5 260.5,-1239.5 260.5,-1209.5 122.5,-1209.5"/>
<text text-anchor="start" x="130.5" y="-1227.5" font-family="Helvetica,sans-Serif" font-size="10.00">Ogre::SharedPtr&lt; Hardware</text>
<text text-anchor="middle" x="191.5" y="-1216.5" font-family="Helvetica,sans-Serif" font-size="10.00">UniformBuffer &gt;</text>
</a>
</g>
</g>
<!-- Node1339&#45;&gt;Node1354 -->
<g id="edge15" class="edge"><title>Node1339&#45;&gt;Node1354</title>
<path fill="none" stroke="midnightblue" d="M31.522,-989.1C31.5613,-1033.43 38.1362,-1142.08 98,-1200.5 104.887,-1207.22 113.401,-1212.13 122.452,-1215.7"/>
<polygon fill="midnightblue" stroke="midnightblue" points="35.0221,-989.098 31.6294,-979.061 28.0225,-989.023 35.0221,-989.098"/>
</g>
<!-- Node1355 -->
<g id="node17" class="node"><title>Node1355</title>
<g id="a_node17"><a xlink:href="class_ogre_1_1_shared_ptr.html" target="_top" xlink:title="Ogre::SharedPtr\&lt; Hardware\lVertexBuffer \&gt;">
<polygon fill="none" stroke="black" points="122.5,-1160.5 122.5,-1190.5 260.5,-1190.5 260.5,-1160.5 122.5,-1160.5"/>
<text text-anchor="start" x="130.5" y="-1178.5" font-family="Helvetica,sans-Serif" font-size="10.00">Ogre::SharedPtr&lt; Hardware</text>
<text text-anchor="middle" x="191.5" y="-1167.5" font-family="Helvetica,sans-Serif" font-size="10.00">VertexBuffer &gt;</text>
</a>
</g>
</g>
<!-- Node1339&#45;&gt;Node1355 -->
<g id="edge16" class="edge"><title>Node1339&#45;&gt;Node1355</title>
<path fill="none" stroke="midnightblue" d="M33.306,-989.191C36.8708,-1026.54 50.0182,-1107.83 98,-1151.5 104.994,-1157.87 113.459,-1162.59 122.393,-1166.08"/>
<polygon fill="midnightblue" stroke="midnightblue" points="36.7843,-988.782 32.4794,-979.101 29.8077,-989.353 36.7843,-988.782"/>
</g>
<!-- Node1356 -->
<g id="node18" class="node"><title>Node1356</title>
<g id="a_node18"><a xlink:href="class_ogre_1_1_shared_ptr.html" target="_top" xlink:title="Ogre::SharedPtr\&lt; HighLevel\lGpuProgram \&gt;">
<polygon fill="none" stroke="black" points="121.5,-1111.5 121.5,-1141.5 261.5,-1141.5 261.5,-1111.5 121.5,-1111.5"/>
<text text-anchor="start" x="129.5" y="-1129.5" font-family="Helvetica,sans-Serif" font-size="10.00">Ogre::SharedPtr&lt; HighLevel</text>
<text text-anchor="middle" x="191.5" y="-1118.5" font-family="Helvetica,sans-Serif" font-size="10.00">GpuProgram &gt;</text>
</a>
</g>
</g>
<!-- Node1339&#45;&gt;Node1356 -->
<g id="edge17" class="edge"><title>Node1339&#45;&gt;Node1356</title>
<path fill="none" stroke="midnightblue" d="M36.3354,-988.918C43.818,-1017.85 61.9484,-1072.01 98,-1101.5 104.825,-1107.08 112.788,-1111.42 121.127,-1114.8"/>
<polygon fill="midnightblue" stroke="midnightblue" points="39.73,-988.065 33.9737,-979.17 32.9268,-989.713 39.73,-988.065"/>
</g>
<!-- Node1357 -->
<g id="node19" class="node"><title>Node1357</title>
<g id="a_node19"><a xlink:href="class_ogre_1_1_shared_ptr.html" target="_top" xlink:title="Ogre::SharedPtr\&lt; Material \&gt;">
<polygon fill="none" stroke="black" points="121.5,-1073 121.5,-1092 261.5,-1092 261.5,-1073 121.5,-1073"/>
<text text-anchor="middle" x="191.5" y="-1080" font-family="Helvetica,sans-Serif" font-size="10.00">Ogre::SharedPtr&lt; Material &gt;</text>
</a>
</g>
</g>
<!-- Node1339&#45;&gt;Node1357 -->
<g id="edge18" class="edge"><title>Node1339&#45;&gt;Node1357</title>
<path fill="none" stroke="midnightblue" d="M39.8875,-988.207C50.038,-1009.89 69.7894,-1044.99 98,-1063.5 105.128,-1068.18 113.177,-1071.74 121.478,-1074.44"/>
<polygon fill="midnightblue" stroke="midnightblue" points="43.0657,-986.741 35.7918,-979.037 36.6742,-989.595 43.0657,-986.741"/>
</g>
<!-- Node1358 -->
<g id="node20" class="node"><title>Node1358</title>
<g id="a_node20"><a xlink:href="class_ogre_1_1_shared_ptr.html" target="_top" xlink:title="Ogre::SharedPtr\&lt; MemoryData\lStream \&gt;">
<polygon fill="none" stroke="black" points="115.5,-1023.5 115.5,-1053.5 267.5,-1053.5 267.5,-1023.5 115.5,-1023.5"/>
<text text-anchor="start" x="123.5" y="-1041.5" font-family="Helvetica,sans-Serif" font-size="10.00">Ogre::SharedPtr&lt; MemoryData</text>
<text text-anchor="middle" x="191.5" y="-1030.5" font-family="Helvetica,sans-Serif" font-size="10.00">Stream &gt;</text>
</a>
</g>
</g>
<!-- Node1339&#45;&gt;Node1358 -->
<g id="edge19" class="edge"><title>Node1339&#45;&gt;Node1358</title>
<path fill="none" stroke="midnightblue" d="M51.91,-985.262C64.5132,-994.59 81.4936,-1006.01 98,-1013.5 106.332,-1017.28 115.353,-1020.59 124.383,-1023.46"/>
<polygon fill="midnightblue" stroke="midnightblue" points="54.0242,-982.472 43.9435,-979.212 49.7905,-988.047 54.0242,-982.472"/>
</g>
<!-- Node1359 -->
<g id="node21" class="node"><title>Node1359</title>
<g id="a_node21"><a xlink:href="class_ogre_1_1_shared_ptr.html" target="_top" xlink:title="Ogre::SharedPtr\&lt; Mesh \&gt;">
<polygon fill="none" stroke="black" points="127,-985 127,-1004 256,-1004 256,-985 127,-985"/>
<text text-anchor="middle" x="191.5" y="-992" font-family="Helvetica,sans-Serif" font-size="10.00">Ogre::SharedPtr&lt; Mesh &gt;</text>
</a>
</g>
</g>
<!-- Node1339&#45;&gt;Node1359 -->
<g id="edge20" class="edge"><title>Node1339&#45;&gt;Node1359</title>
<path fill="none" stroke="midnightblue" d="M72.1206,-975.828C89.7347,-978.606 110.792,-981.928 130.23,-984.994"/>
<polygon fill="midnightblue" stroke="midnightblue" points="72.6089,-972.362 62.1857,-974.261 71.5183,-979.277 72.6089,-972.362"/>
</g>
<!-- Node1360 -->
<g id="node22" class="node"><title>Node1360</title>
<g id="a_node22"><a xlink:href="class_ogre_1_1_shared_ptr.html" target="_top" xlink:title="Ogre::SharedPtr\&lt; Ogre\l::ControllerFunction\l\&lt; Real \&gt; \&gt;">
<polygon fill="none" stroke="black" points="133,-925 133,-966 250,-966 250,-925 133,-925"/>
<text text-anchor="start" x="141" y="-954" font-family="Helvetica,sans-Serif" font-size="10.00">Ogre::SharedPtr&lt; Ogre</text>
<text text-anchor="start" x="141" y="-943" font-family="Helvetica,sans-Serif" font-size="10.00">::ControllerFunction</text>
<text text-anchor="middle" x="191.5" y="-932" font-family="Helvetica,sans-Serif" font-size="10.00">&lt; Real &gt; &gt;</text>
</a>
</g>
</g>
<!-- Node1339&#45;&gt;Node1360 -->
<g id="edge21" class="edge"><title>Node1339&#45;&gt;Node1360</title>
<path fill="none" stroke="midnightblue" d="M72.2522,-963.405C90.628,-960.623 112.73,-957.276 132.828,-954.233"/>
<polygon fill="midnightblue" stroke="midnightblue" points="71.549,-959.972 62.1857,-964.929 72.597,-966.893 71.549,-959.972"/>
</g>
<!-- Node1361 -->
<g id="node23" class="node"><title>Node1361</title>
<g id="a_node23"><a xlink:href="class_ogre_1_1_shared_ptr.html" target="_top" xlink:title="Ogre::SharedPtr\&lt; Ogre\l::ControllerFunction\l\&lt; T \&gt; \&gt;">
<polygon fill="none" stroke="black" points="133,-865 133,-906 250,-906 250,-865 133,-865"/>
<text text-anchor="start" x="141" y="-894" font-family="Helvetica,sans-Serif" font-size="10.00">Ogre::SharedPtr&lt; Ogre</text>
<text text-anchor="start" x="141" y="-883" font-family="Helvetica,sans-Serif" font-size="10.00">::ControllerFunction</text>
<text text-anchor="middle" x="191.5" y="-872" font-family="Helvetica,sans-Serif" font-size="10.00">&lt; T &gt; &gt;</text>
</a>
</g>
</g>
<!-- Node1339&#45;&gt;Node1361 -->
<g id="edge22" class="edge"><title>Node1339&#45;&gt;Node1361</title>
<path fill="none" stroke="midnightblue" d="M48.8724,-952.678C61.4923,-940.888 79.6652,-925.509 98,-915.5 108.817,-909.595 120.987,-904.618 132.858,-900.521"/>
<polygon fill="midnightblue" stroke="midnightblue" points="46.2273,-950.365 41.4352,-959.814 51.0739,-955.416 46.2273,-950.365"/>
</g>
<!-- Node1362 -->
<g id="node24" class="node"><title>Node1362</title>
<g id="a_node24"><a xlink:href="class_ogre_1_1_shared_ptr.html" target="_top" xlink:title="Ogre::SharedPtr\&lt; Ogre\l::ControllerValue\&lt; Real \&gt; \&gt;">
<polygon fill="none" stroke="black" points="123,-815.5 123,-845.5 260,-845.5 260,-815.5 123,-815.5"/>
<text text-anchor="start" x="131" y="-833.5" font-family="Helvetica,sans-Serif" font-size="10.00">Ogre::SharedPtr&lt; Ogre</text>
<text text-anchor="middle" x="191.5" y="-822.5" font-family="Helvetica,sans-Serif" font-size="10.00">::ControllerValue&lt; Real &gt; &gt;</text>
</a>
</g>
</g>
<!-- Node1339&#45;&gt;Node1362 -->
<g id="edge23" class="edge"><title>Node1339&#45;&gt;Node1362</title>
<path fill="none" stroke="midnightblue" d="M37.9749,-950.188C46.8817,-924.643 66.1021,-880.001 98,-855.5 105.388,-849.825 113.97,-845.437 122.87,-842.044"/>
<polygon fill="midnightblue" stroke="midnightblue" points="34.5958,-949.259 34.7822,-959.852 41.2425,-951.455 34.5958,-949.259"/>
</g>
<!-- Node1363 -->
<g id="node25" class="node"><title>Node1363</title>
<g id="a_node25"><a xlink:href="class_ogre_1_1_shared_ptr.html" target="_top" xlink:title="Ogre::SharedPtr\&lt; Ogre\l::ControllerValue\&lt; T \&gt; \&gt;">
<polygon fill="none" stroke="black" points="130.5,-766.5 130.5,-796.5 252.5,-796.5 252.5,-766.5 130.5,-766.5"/>
<text text-anchor="start" x="138.5" y="-784.5" font-family="Helvetica,sans-Serif" font-size="10.00">Ogre::SharedPtr&lt; Ogre</text>
<text text-anchor="middle" x="191.5" y="-773.5" font-family="Helvetica,sans-Serif" font-size="10.00">::ControllerValue&lt; T &gt; &gt;</text>
</a>
</g>
</g>
<!-- Node1339&#45;&gt;Node1363 -->
<g id="edge24" class="edge"><title>Node1339&#45;&gt;Node1363</title>
<path fill="none" stroke="midnightblue" d="M34.3476,-949.533C39.4725,-915.129 54.8853,-844.699 98,-806.5 107.089,-798.447 118.517,-792.954 130.209,-789.215"/>
<polygon fill="midnightblue" stroke="midnightblue" points="30.8417,-949.344 32.9788,-959.721 37.7793,-950.276 30.8417,-949.344"/>
</g>
<!-- Node1364 -->
<g id="node26" class="node"><title>Node1364</title>
<g id="a_node26"><a xlink:href="class_ogre_1_1_shared_ptr.html" target="_top" xlink:title="Ogre::SharedPtr\&lt; Ogre\l::D3D11VideoModeList \&gt;">
<polygon fill="none" stroke="black" points="128,-717.5 128,-747.5 255,-747.5 255,-717.5 128,-717.5"/>
<text text-anchor="start" x="136" y="-735.5" font-family="Helvetica,sans-Serif" font-size="10.00">Ogre::SharedPtr&lt; Ogre</text>
<text text-anchor="middle" x="191.5" y="-724.5" font-family="Helvetica,sans-Serif" font-size="10.00">::D3D11VideoModeList &gt;</text>
</a>
</g>
</g>
<!-- Node1339&#45;&gt;Node1364 -->
<g id="edge25" class="edge"><title>Node1339&#45;&gt;Node1364</title>
<path fill="none" stroke="midnightblue" d="M32.1742,-949.581C33.6588,-907.752 43.1748,-810.289 98,-757.5 106.269,-749.539 116.8,-744.053 127.773,-740.286"/>
<polygon fill="midnightblue" stroke="midnightblue" points="28.6696,-949.742 31.9374,-959.82 35.6677,-949.904 28.6696,-949.742"/>
</g>
<!-- Node1365 -->
<g id="node27" class="node"><title>Node1365</title>
<g id="a_node27"><a xlink:href="class_ogre_1_1_shared_ptr.html" target="_top" xlink:title="Ogre::SharedPtr\&lt; Ogre\l::GLStateCacheManagerCommon \&gt;">
<polygon fill="none" stroke="black" points="105,-668.5 105,-698.5 278,-698.5 278,-668.5 105,-668.5"/>
<text text-anchor="start" x="113" y="-686.5" font-family="Helvetica,sans-Serif" font-size="10.00">Ogre::SharedPtr&lt; Ogre</text>
<text text-anchor="middle" x="191.5" y="-675.5" font-family="Helvetica,sans-Serif" font-size="10.00">::GLStateCacheManagerCommon &gt;</text>
</a>
</g>
</g>
<!-- Node1339&#45;&gt;Node1365 -->
<g id="edge26" class="edge"><title>Node1339&#45;&gt;Node1365</title>
<path fill="none" stroke="midnightblue" d="M34.4279,-949.59C41.505,-894.749 63.8018,-743.26 98,-708.5 101.733,-704.705 105.979,-701.469 110.55,-698.71"/>
<polygon fill="midnightblue" stroke="midnightblue" points="30.9256,-949.39 33.15,-959.749 37.8708,-950.264 30.9256,-949.39"/>
</g>
<!-- Node1366 -->
<g id="node28" class="node"><title>Node1366</title>
<g id="a_node28"><a xlink:href="class_ogre_1_1_shared_ptr.html" target="_top" xlink:title="Ogre::SharedPtr\&lt; Ogre\l::RTShader::DualQuaternionSkinning \&gt;">
<polygon fill="none" stroke="black" points="98,-619.5 98,-649.5 285,-649.5 285,-619.5 98,-619.5"/>
<text text-anchor="start" x="106" y="-637.5" font-family="Helvetica,sans-Serif" font-size="10.00">Ogre::SharedPtr&lt; Ogre</text>
<text text-anchor="middle" x="191.5" y="-626.5" font-family="Helvetica,sans-Serif" font-size="10.00">::RTShader::DualQuaternionSkinning &gt;</text>
</a>
</g>
</g>
<!-- Node1339&#45;&gt;Node1366 -->
<g id="edge27" class="edge"><title>Node1339&#45;&gt;Node1366</title>
<path fill="none" stroke="midnightblue" d="M33.5655,-949.615C38.8095,-888.024 57.7402,-702.003 98,-659.5 101.661,-655.635 105.852,-652.346 110.383,-649.549"/>
<polygon fill="midnightblue" stroke="midnightblue" points="30.051,-949.648 32.7201,-959.902 37.0275,-950.222 30.051,-949.648"/>
</g>
<!-- Node1367 -->
<g id="node29" class="node"><title>Node1367</title>
<g id="a_node29"><a xlink:href="class_ogre_1_1_shared_ptr.html" target="_top" xlink:title="Ogre::SharedPtr\&lt; Ogre\l::RTShader::HardwareSkinning\lTechnique \&gt;">
<polygon fill="none" stroke="black" points="115.5,-559 115.5,-600 267.5,-600 267.5,-559 115.5,-559"/>
<text text-anchor="start" x="123.5" y="-588" font-family="Helvetica,sans-Serif" font-size="10.00">Ogre::SharedPtr&lt; Ogre</text>
<text text-anchor="start" x="123.5" y="-577" font-family="Helvetica,sans-Serif" font-size="10.00">::RTShader::HardwareSkinning</text>
<text text-anchor="middle" x="191.5" y="-566" font-family="Helvetica,sans-Serif" font-size="10.00">Technique &gt;</text>
</a>
</g>
</g>
<!-- Node1339&#45;&gt;Node1367 -->
<g id="edge28" class="edge"><title>Node1339&#45;&gt;Node1367</title>
<path fill="none" stroke="midnightblue" d="M33.0452,-949.735C36.9971,-882.24 53.148,-662.197 98,-610.5 102.884,-604.871 108.821,-600.261 115.306,-596.487"/>
<polygon fill="midnightblue" stroke="midnightblue" points="29.5432,-949.675 32.4787,-959.855 36.5322,-950.067 29.5432,-949.675"/>
</g>
<!-- Node1368 -->
<g id="node30" class="node"><title>Node1368</title>
<g id="a_node30"><a xlink:href="class_ogre_1_1_shared_ptr.html" target="_top" xlink:title="Ogre::SharedPtr\&lt; Ogre\l::RTShader::LinearSkinning \&gt;">
<polygon fill="none" stroke="black" points="118.5,-509.5 118.5,-539.5 264.5,-539.5 264.5,-509.5 118.5,-509.5"/>
<text text-anchor="start" x="126.5" y="-527.5" font-family="Helvetica,sans-Serif" font-size="10.00">Ogre::SharedPtr&lt; Ogre</text>
<text text-anchor="middle" x="191.5" y="-516.5" font-family="Helvetica,sans-Serif" font-size="10.00">::RTShader::LinearSkinning &gt;</text>
</a>
</g>
</g>
<!-- Node1339&#45;&gt;Node1368 -->
<g id="edge29" class="edge"><title>Node1339&#45;&gt;Node1368</title>
<path fill="none" stroke="midnightblue" d="M32.3596,-949.274C34.1144,-873.76 44.0705,-609.598 98,-549.5 103.666,-543.186 110.746,-538.395 118.451,-534.771"/>
<polygon fill="midnightblue" stroke="midnightblue" points="28.8513,-949.643 32.143,-959.713 35.8498,-949.788 28.8513,-949.643"/>
</g>
<!-- Node1369 -->
<g id="node31" class="node"><title>Node1369</title>
<g id="a_node31"><a xlink:href="class_ogre_1_1_shared_ptr.html" target="_top" xlink:title="Ogre::SharedPtr\&lt; Ogre\l::Vector3 \&gt;">
<polygon fill="none" stroke="black" points="133,-460.5 133,-490.5 250,-490.5 250,-460.5 133,-460.5"/>
<text text-anchor="start" x="141" y="-478.5" font-family="Helvetica,sans-Serif" font-size="10.00">Ogre::SharedPtr&lt; Ogre</text>
<text text-anchor="middle" x="191.5" y="-467.5" font-family="Helvetica,sans-Serif" font-size="10.00">::Vector3 &gt;</text>
</a>
</g>
</g>
<!-- Node1339&#45;&gt;Node1369 -->
<g id="edge30" class="edge"><title>Node1339&#45;&gt;Node1369</title>
<path fill="none" stroke="midnightblue" d="M31.9908,-949.554C32.3631,-868.988 37.8281,-568.648 98,-500.5 107.029,-490.275 119.764,-484.035 132.905,-480.277"/>
<polygon fill="midnightblue" stroke="midnightblue" points="28.4903,-949.784 31.9669,-959.792 35.4903,-949.8 28.4903,-949.784"/>
</g>
<!-- Node1370 -->
<g id="node32" class="node"><title>Node1370</title>
<g id="a_node32"><a xlink:href="class_ogre_1_1_shared_ptr.html" target="_top" xlink:title="Ogre::SharedPtr\&lt; RenderSystem\lData \&gt;">
<polygon fill="none" stroke="black" points="111,-411.5 111,-441.5 272,-441.5 272,-411.5 111,-411.5"/>
<text text-anchor="start" x="119" y="-429.5" font-family="Helvetica,sans-Serif" font-size="10.00">Ogre::SharedPtr&lt; RenderSystem</text>
<text text-anchor="middle" x="191.5" y="-418.5" font-family="Helvetica,sans-Serif" font-size="10.00">Data &gt;</text>
</a>
</g>
</g>
<!-- Node1339&#45;&gt;Node1370 -->
<g id="edge31" class="edge"><title>Node1339&#45;&gt;Node1370</title>
<path fill="none" stroke="midnightblue" d="M31.694,-949.42C30.7999,-863.487 31.6635,-527.627 98,-451.5 101.716,-447.236 106.076,-443.663 110.844,-440.674"/>
<polygon fill="midnightblue" stroke="midnightblue" points="28.1969,-949.681 31.8223,-959.636 35.1964,-949.593 28.1969,-949.681"/>
</g>
<!-- Node1371 -->
<g id="node33" class="node"><title>Node1371</title>
<g id="a_node33"><a xlink:href="class_ogre_1_1_shared_ptr.html" target="_top" xlink:title="Ogre::SharedPtr\&lt; Resource \&gt;">
<polygon fill="none" stroke="black" points="118,-373 118,-392 265,-392 265,-373 118,-373"/>
<text text-anchor="middle" x="191.5" y="-380" font-family="Helvetica,sans-Serif" font-size="10.00">Ogre::SharedPtr&lt; Resource &gt;</text>
</a>
</g>
</g>
<!-- Node1339&#45;&gt;Node1371 -->
<g id="edge32" class="edge"><title>Node1339&#45;&gt;Node1371</title>
<path fill="none" stroke="midnightblue" d="M32.968,-949.445C37.7799,-853.463 60.4043,-443.934 98,-402.5 103.52,-396.416 110.413,-391.946 117.931,-388.691"/>
<polygon fill="midnightblue" stroke="midnightblue" points="29.4666,-949.39 32.4697,-959.55 36.4581,-949.735 29.4666,-949.39"/>
</g>
<!-- Node1372 -->
<g id="node34" class="node"><title>Node1372</title>
<g id="a_node34"><a xlink:href="class_ogre_1_1_shared_ptr.html" target="_top" xlink:title="Ogre::SharedPtr\&lt; ShadowCamera\lSetup \&gt;">
<polygon fill="none" stroke="black" points="108.5,-323.5 108.5,-353.5 274.5,-353.5 274.5,-323.5 108.5,-323.5"/>
<text text-anchor="start" x="116.5" y="-341.5" font-family="Helvetica,sans-Serif" font-size="10.00">Ogre::SharedPtr&lt; ShadowCamera</text>
<text text-anchor="middle" x="191.5" y="-330.5" font-family="Helvetica,sans-Serif" font-size="10.00">Setup &gt;</text>
</a>
</g>
</g>
<!-- Node1339&#45;&gt;Node1372 -->
<g id="edge33" class="edge"><title>Node1339&#45;&gt;Node1372</title>
<path fill="none" stroke="midnightblue" d="M32.8453,-949.704C37.2586,-850.365 58.9564,-409.14 98,-363.5 101.244,-359.708 104.998,-356.461 109.098,-353.684"/>
<polygon fill="midnightblue" stroke="midnightblue" points="29.3419,-949.707 32.4023,-959.851 36.3352,-950.013 29.3419,-949.707"/>
</g>
<!-- Node1373 -->
<g id="node35" class="node"><title>Node1373</title>
<g id="a_node35"><a xlink:href="class_ogre_1_1_shared_ptr.html" target="_top" xlink:title="Ogre::SharedPtr\&lt; Skeleton \&gt;">
<polygon fill="none" stroke="black" points="120,-285 120,-304 263,-304 263,-285 120,-285"/>
<text text-anchor="middle" x="191.5" y="-292" font-family="Helvetica,sans-Serif" font-size="10.00">Ogre::SharedPtr&lt; Skeleton &gt;</text>
</a>
</g>
</g>
<!-- Node1339&#45;&gt;Node1373 -->
<g id="edge34" class="edge"><title>Node1339&#45;&gt;Node1373</title>
<path fill="none" stroke="midnightblue" d="M32.6404,-949.388C36.1611,-844.49 54.6065,-363.073 98,-314.5 103.911,-307.884 111.444,-303.169 119.652,-299.847"/>
<polygon fill="midnightblue" stroke="midnightblue" points="29.1367,-949.445 32.3068,-959.555 36.133,-949.675 29.1367,-949.445"/>
</g>
<!-- Node1374 -->
<g id="node36" class="node"><title>Node1374</title>
<g id="a_node36"><a xlink:href="class_ogre_1_1_shared_ptr.html" target="_top" xlink:title="Ogre::SharedPtr\&lt; std\l::vector\&lt; MemoryDataStreamPtr \&gt; \&gt;">
<polygon fill="none" stroke="black" points="103,-235.5 103,-265.5 280,-265.5 280,-235.5 103,-235.5"/>
<text text-anchor="start" x="111" y="-253.5" font-family="Helvetica,sans-Serif" font-size="10.00">Ogre::SharedPtr&lt; std</text>
<text text-anchor="middle" x="191.5" y="-242.5" font-family="Helvetica,sans-Serif" font-size="10.00">::vector&lt; MemoryDataStreamPtr &gt; &gt;</text>
</a>
</g>
</g>
<!-- Node1339&#45;&gt;Node1374 -->
<g id="edge35" class="edge"><title>Node1339&#45;&gt;Node1374</title>
<path fill="none" stroke="midnightblue" d="M32.5604,-949.608C35.7767,-841.593 53.3365,-328.438 98,-275.5 101.218,-271.686 104.952,-268.422 109.037,-265.632"/>
<polygon fill="midnightblue" stroke="midnightblue" points="29.0574,-949.662 32.2653,-959.76 36.0545,-949.866 29.0574,-949.662"/>
</g>
<!-- Node1375 -->
<g id="node37" class="node"><title>Node1375</title>
<g id="a_node37"><a xlink:href="class_ogre_1_1_shared_ptr.html" target="_top" xlink:title="Ogre::SharedPtr\&lt; SubRender\lStateAccessor \&gt;">
<polygon fill="none" stroke="black" points="119,-186.5 119,-216.5 264,-216.5 264,-186.5 119,-186.5"/>
<text text-anchor="start" x="127" y="-204.5" font-family="Helvetica,sans-Serif" font-size="10.00">Ogre::SharedPtr&lt; SubRender</text>
<text text-anchor="middle" x="191.5" y="-193.5" font-family="Helvetica,sans-Serif" font-size="10.00">StateAccessor &gt;</text>
</a>
</g>
</g>
<!-- Node1339&#45;&gt;Node1375 -->
<g id="edge36" class="edge"><title>Node1339&#45;&gt;Node1375</title>
<path fill="none" stroke="midnightblue" d="M32.4282,-949.633C35.0257,-837.183 50.1879,-283.529 98,-226.5 103.664,-219.744 110.948,-214.713 118.938,-210.984"/>
<polygon fill="midnightblue" stroke="midnightblue" points="28.9238,-949.797 32.1988,-959.872 35.922,-949.953 28.9238,-949.797"/>
</g>
<!-- Node1376 -->
<g id="node38" class="node"><title>Node1376</title>
<g id="a_node38"><a xlink:href="class_ogre_1_1_shared_ptr.html" target="_top" xlink:title="Ogre::SharedPtr\&lt; Terrain\lMaterialGenerator \&gt;">
<polygon fill="none" stroke="black" points="128.5,-137.5 128.5,-167.5 254.5,-167.5 254.5,-137.5 128.5,-137.5"/>
<text text-anchor="start" x="136.5" y="-155.5" font-family="Helvetica,sans-Serif" font-size="10.00">Ogre::SharedPtr&lt; Terrain</text>
<text text-anchor="middle" x="191.5" y="-144.5" font-family="Helvetica,sans-Serif" font-size="10.00">MaterialGenerator &gt;</text>
</a>
</g>
</g>
<!-- Node1339&#45;&gt;Node1376 -->
<g id="edge37" class="edge"><title>Node1339&#45;&gt;Node1376</title>
<path fill="none" stroke="midnightblue" d="M32.3103,-949.786C34.3156,-833.36 47.015,-238.651 98,-177.5 105.777,-168.173 116.64,-162.132 128.196,-158.262"/>
<polygon fill="midnightblue" stroke="midnightblue" points="28.8108,-949.732 32.1445,-959.789 35.8099,-949.848 28.8108,-949.732"/>
</g>
<!-- Node1377 -->
<g id="node39" class="node"><title>Node1377</title>
<g id="a_node39"><a xlink:href="class_ogre_1_1_shared_ptr.html" target="_top" xlink:title="Ogre::SharedPtr\&lt; Texture \&gt;">
<polygon fill="none" stroke="black" points="122.5,-99 122.5,-118 260.5,-118 260.5,-99 122.5,-99"/>
<text text-anchor="middle" x="191.5" y="-106" font-family="Helvetica,sans-Serif" font-size="10.00">Ogre::SharedPtr&lt; Texture &gt;</text>
</a>
</g>
</g>
<!-- Node1339&#45;&gt;Node1377 -->
<g id="edge38" class="edge"><title>Node1339&#45;&gt;Node1377</title>
<path fill="none" stroke="midnightblue" d="M32.165,-949.669C33.3515,-828.62 42.2241,-192.339 98,-128.5 104.486,-121.076 113.013,-116.034 122.268,-112.664"/>
<polygon fill="midnightblue" stroke="midnightblue" points="28.6646,-949.707 32.0728,-959.738 35.6643,-949.771 28.6646,-949.707"/>
</g>
<!-- Node1378 -->
<g id="node40" class="node"><title>Node1378</title>
<g id="a_node40"><a xlink:href="class_ogre_1_1_shared_ptr.html" target="_top" xlink:title="Ogre::SharedPtr\&lt; Texture\lAtlasTable \&gt;">
<polygon fill="none" stroke="black" points="127,-49.5 127,-79.5 256,-79.5 256,-49.5 127,-49.5"/>
<text text-anchor="start" x="135" y="-67.5" font-family="Helvetica,sans-Serif" font-size="10.00">Ogre::SharedPtr&lt; Texture</text>
<text text-anchor="middle" x="191.5" y="-56.5" font-family="Helvetica,sans-Serif" font-size="10.00">AtlasTable &gt;</text>
</a>
</g>
</g>
<!-- Node1339&#45;&gt;Node1378 -->
<g id="edge39" class="edge"><title>Node1339&#45;&gt;Node1378</title>
<path fill="none" stroke="midnightblue" d="M32.1383,-949.578C33.1774,-825.165 41.3755,-157.99 98,-89.5 105.42,-80.5254 115.698,-74.5896 126.717,-70.7017"/>
<polygon fill="midnightblue" stroke="midnightblue" points="28.6362,-949.858 32.0587,-959.885 35.6359,-949.913 28.6362,-949.858"/>
</g>
<!-- Node1379 -->
<g id="node41" class="node"><title>Node1379</title>
<g id="a_node41"><a xlink:href="class_ogre_1_1_shared_ptr.html" target="_top" xlink:title="Ogre::SharedPtr\&lt; unsigned\l char \&gt;">
<polygon fill="none" stroke="black" points="124,-0.5 124,-30.5 259,-30.5 259,-0.5 124,-0.5"/>
<text text-anchor="start" x="132" y="-18.5" font-family="Helvetica,sans-Serif" font-size="10.00">Ogre::SharedPtr&lt; unsigned</text>
<text text-anchor="middle" x="191.5" y="-7.5" font-family="Helvetica,sans-Serif" font-size="10.00"> char &gt;</text>
</a>
</g>
</g>
<!-- Node1339&#45;&gt;Node1379 -->
<g id="edge40" class="edge"><title>Node1339&#45;&gt;Node1379</title>
<path fill="none" stroke="midnightblue" d="M32.0545,-949.675C32.5813,-821.516 38.1974,-113.124 98,-40.5 104.768,-32.2813 113.933,-26.6095 123.874,-22.7247"/>
<polygon fill="midnightblue" stroke="midnightblue" points="28.5537,-949.932 32.0185,-959.945 35.5536,-949.957 28.5537,-949.932"/>
</g>
</g>
</svg>
